G04 #@! TF.GenerationSoftware,KiCad,Pcbnew,(6.0.4)*
G04 #@! TF.CreationDate,2022-05-02T12:08:19+02:00*
G04 #@! TF.ProjectId,Support-Board-for-TS3008,53757070-6f72-4742-9d42-6f6172642d66,rev?*
G04 #@! TF.SameCoordinates,Original*
G04 #@! TF.FileFunction,Copper,L1,Top*
G04 #@! TF.FilePolarity,Positive*
%FSLAX46Y46*%
G04 Gerber Fmt 4.6, Leading zero omitted, Abs format (unit mm)*
G04 Created by KiCad (PCBNEW (6.0.4)) date 2022-05-02 12:08:19*
%MOMM*%
%LPD*%
G01*
G04 APERTURE LIST*
G04 Aperture macros list*
%AMRoundRect*
0 Rectangle with rounded corners*
0 $1 Rounding radius*
0 $2 $3 $4 $5 $6 $7 $8 $9 X,Y pos of 4 corners*
0 Add a 4 corners polygon primitive as box body*
4,1,4,$2,$3,$4,$5,$6,$7,$8,$9,$2,$3,0*
0 Add four circle primitives for the rounded corners*
1,1,$1+$1,$2,$3*
1,1,$1+$1,$4,$5*
1,1,$1+$1,$6,$7*
1,1,$1+$1,$8,$9*
0 Add four rect primitives between the rounded corners*
20,1,$1+$1,$2,$3,$4,$5,0*
20,1,$1+$1,$4,$5,$6,$7,0*
20,1,$1+$1,$6,$7,$8,$9,0*
20,1,$1+$1,$8,$9,$2,$3,0*%
G04 Aperture macros list end*
G04 #@! TA.AperFunction,SMDPad,CuDef*
%ADD10RoundRect,0.140000X-0.170000X0.140000X-0.170000X-0.140000X0.170000X-0.140000X0.170000X0.140000X0*%
G04 #@! TD*
G04 #@! TA.AperFunction,SMDPad,CuDef*
%ADD11RoundRect,0.140000X-0.140000X-0.170000X0.140000X-0.170000X0.140000X0.170000X-0.140000X0.170000X0*%
G04 #@! TD*
G04 #@! TA.AperFunction,SMDPad,CuDef*
%ADD12RoundRect,0.140000X0.140000X0.170000X-0.140000X0.170000X-0.140000X-0.170000X0.140000X-0.170000X0*%
G04 #@! TD*
G04 #@! TA.AperFunction,SMDPad,CuDef*
%ADD13RoundRect,0.250000X-0.250000X-0.475000X0.250000X-0.475000X0.250000X0.475000X-0.250000X0.475000X0*%
G04 #@! TD*
G04 #@! TA.AperFunction,SMDPad,CuDef*
%ADD14RoundRect,0.150000X-0.150000X0.825000X-0.150000X-0.825000X0.150000X-0.825000X0.150000X0.825000X0*%
G04 #@! TD*
G04 #@! TA.AperFunction,SMDPad,CuDef*
%ADD15R,0.711200X1.422400*%
G04 #@! TD*
G04 #@! TA.AperFunction,SMDPad,CuDef*
%ADD16R,1.422400X0.711200*%
G04 #@! TD*
G04 #@! TA.AperFunction,SMDPad,CuDef*
%ADD17R,2.000000X1.050000*%
G04 #@! TD*
G04 #@! TA.AperFunction,SMDPad,CuDef*
%ADD18RoundRect,0.250000X0.262500X0.450000X-0.262500X0.450000X-0.262500X-0.450000X0.262500X-0.450000X0*%
G04 #@! TD*
G04 #@! TA.AperFunction,SMDPad,CuDef*
%ADD19RoundRect,0.200000X-0.200000X-0.275000X0.200000X-0.275000X0.200000X0.275000X-0.200000X0.275000X0*%
G04 #@! TD*
G04 #@! TA.AperFunction,SMDPad,CuDef*
%ADD20RoundRect,0.135000X-0.135000X-0.185000X0.135000X-0.185000X0.135000X0.185000X-0.135000X0.185000X0*%
G04 #@! TD*
G04 #@! TA.AperFunction,SMDPad,CuDef*
%ADD21RoundRect,0.200000X0.200000X0.275000X-0.200000X0.275000X-0.200000X-0.275000X0.200000X-0.275000X0*%
G04 #@! TD*
G04 #@! TA.AperFunction,SMDPad,CuDef*
%ADD22RoundRect,0.200000X-0.275000X0.200000X-0.275000X-0.200000X0.275000X-0.200000X0.275000X0.200000X0*%
G04 #@! TD*
G04 #@! TA.AperFunction,SMDPad,CuDef*
%ADD23RoundRect,0.135000X0.135000X0.185000X-0.135000X0.185000X-0.135000X-0.185000X0.135000X-0.185000X0*%
G04 #@! TD*
G04 #@! TA.AperFunction,SMDPad,CuDef*
%ADD24RoundRect,0.135000X0.185000X-0.135000X0.185000X0.135000X-0.185000X0.135000X-0.185000X-0.135000X0*%
G04 #@! TD*
G04 #@! TA.AperFunction,SMDPad,CuDef*
%ADD25RoundRect,0.200000X0.275000X-0.200000X0.275000X0.200000X-0.275000X0.200000X-0.275000X-0.200000X0*%
G04 #@! TD*
G04 #@! TA.AperFunction,SMDPad,CuDef*
%ADD26RoundRect,0.250000X0.450000X-0.262500X0.450000X0.262500X-0.450000X0.262500X-0.450000X-0.262500X0*%
G04 #@! TD*
G04 #@! TA.AperFunction,SMDPad,CuDef*
%ADD27RoundRect,0.135000X-0.185000X0.135000X-0.185000X-0.135000X0.185000X-0.135000X0.185000X0.135000X0*%
G04 #@! TD*
G04 #@! TA.AperFunction,SMDPad,CuDef*
%ADD28RoundRect,0.150000X0.587500X0.150000X-0.587500X0.150000X-0.587500X-0.150000X0.587500X-0.150000X0*%
G04 #@! TD*
G04 #@! TA.AperFunction,SMDPad,CuDef*
%ADD29RoundRect,0.147500X-0.147500X-0.172500X0.147500X-0.172500X0.147500X0.172500X-0.147500X0.172500X0*%
G04 #@! TD*
G04 #@! TA.AperFunction,ComponentPad*
%ADD30R,1.700000X1.700000*%
G04 #@! TD*
G04 #@! TA.AperFunction,ComponentPad*
%ADD31O,1.700000X1.700000*%
G04 #@! TD*
G04 #@! TA.AperFunction,SMDPad,CuDef*
%ADD32RoundRect,0.243750X-0.456250X0.243750X-0.456250X-0.243750X0.456250X-0.243750X0.456250X0.243750X0*%
G04 #@! TD*
G04 #@! TA.AperFunction,SMDPad,CuDef*
%ADD33RoundRect,0.250000X-0.325000X-0.650000X0.325000X-0.650000X0.325000X0.650000X-0.325000X0.650000X0*%
G04 #@! TD*
G04 #@! TA.AperFunction,SMDPad,CuDef*
%ADD34RoundRect,0.250000X-0.650000X0.325000X-0.650000X-0.325000X0.650000X-0.325000X0.650000X0.325000X0*%
G04 #@! TD*
G04 #@! TA.AperFunction,SMDPad,CuDef*
%ADD35RoundRect,0.250000X0.650000X-0.325000X0.650000X0.325000X-0.650000X0.325000X-0.650000X-0.325000X0*%
G04 #@! TD*
G04 #@! TA.AperFunction,ViaPad*
%ADD36C,0.800000*%
G04 #@! TD*
G04 #@! TA.AperFunction,ViaPad*
%ADD37C,1.000000*%
G04 #@! TD*
G04 #@! TA.AperFunction,Conductor*
%ADD38C,0.400000*%
G04 #@! TD*
G04 #@! TA.AperFunction,Conductor*
%ADD39C,0.500000*%
G04 #@! TD*
G04 #@! TA.AperFunction,Conductor*
%ADD40C,1.000000*%
G04 #@! TD*
G04 #@! TA.AperFunction,Conductor*
%ADD41C,0.300000*%
G04 #@! TD*
G04 APERTURE END LIST*
D10*
X112025000Y-61595000D03*
X112025000Y-62555000D03*
D11*
X113848000Y-60960000D03*
X114808000Y-60960000D03*
D12*
X107855000Y-61375000D03*
X106895000Y-61375000D03*
X106855000Y-63600000D03*
X105895000Y-63600000D03*
D13*
X118000000Y-78200000D03*
X119900000Y-78200000D03*
D14*
X117355000Y-73275000D03*
X116085000Y-73275000D03*
X114815000Y-73275000D03*
X113545000Y-73275000D03*
X113545000Y-68325000D03*
X114815000Y-68325000D03*
X116085000Y-68325000D03*
X117355000Y-68325000D03*
D15*
X76077370Y-63400140D03*
X77377850Y-63400140D03*
X78678330Y-63400140D03*
X79976270Y-63400140D03*
X81276750Y-63400140D03*
X82577230Y-63400140D03*
X83875170Y-63400140D03*
X85175650Y-63400140D03*
X86476130Y-63400140D03*
X87774070Y-63400140D03*
X89074550Y-63400140D03*
X90375030Y-63400140D03*
X91675510Y-63400140D03*
X92975990Y-63400140D03*
X94273930Y-63400140D03*
X95574410Y-63400140D03*
D16*
X97075550Y-65350860D03*
X97075550Y-66651340D03*
X97075550Y-67951820D03*
X97075550Y-69252300D03*
X97075550Y-70547700D03*
X97075550Y-71848180D03*
X97075550Y-73148660D03*
X97075550Y-74449140D03*
D15*
X95574410Y-76399860D03*
X94273930Y-76399860D03*
X92975990Y-76399860D03*
X91675510Y-76399860D03*
X90375030Y-76399860D03*
X89074550Y-76399860D03*
X87774070Y-76399860D03*
X86476130Y-76399860D03*
X85175650Y-76399860D03*
X83875170Y-76399860D03*
X82577230Y-76399860D03*
X81276750Y-76399860D03*
X79976270Y-76399860D03*
X78678330Y-76399860D03*
X77377850Y-76399860D03*
X76077370Y-76399860D03*
D17*
X88000000Y-78775000D03*
X88000000Y-83225000D03*
X83000000Y-83225000D03*
X83000000Y-78775000D03*
X78000000Y-83225000D03*
X78000000Y-78775000D03*
D18*
X99912500Y-76200000D03*
X98087500Y-76200000D03*
D19*
X111575000Y-75900000D03*
X109925000Y-75900000D03*
X113175000Y-78000000D03*
X114825000Y-78000000D03*
X116400000Y-75825000D03*
X114750000Y-75825000D03*
D20*
X110940000Y-74300000D03*
X111960000Y-74300000D03*
D21*
X115150000Y-65175000D03*
X116800000Y-65175000D03*
D20*
X113500000Y-65825000D03*
X112480000Y-65825000D03*
D22*
X113325000Y-63975000D03*
X113325000Y-62325000D03*
X116078000Y-63626000D03*
X116078000Y-61976000D03*
D23*
X106640000Y-62425000D03*
X107660000Y-62425000D03*
X110060000Y-68875000D03*
X109040000Y-68875000D03*
D24*
X109050000Y-66665000D03*
X109050000Y-67685000D03*
D25*
X104632500Y-79725000D03*
X104632500Y-78075000D03*
D22*
X101332500Y-79725000D03*
X101332500Y-78075000D03*
D26*
X92900000Y-81375000D03*
X92900000Y-83200000D03*
D18*
X91737500Y-79050000D03*
X93562500Y-79050000D03*
D24*
X90200000Y-79410000D03*
X90200000Y-78390000D03*
X85200000Y-79420000D03*
X85200000Y-78400000D03*
X80200000Y-79510000D03*
X80200000Y-78490000D03*
X107582500Y-81400000D03*
X107582500Y-80380000D03*
D27*
X113182500Y-82160000D03*
X113182500Y-81140000D03*
D20*
X110042500Y-83750000D03*
X109022500Y-83750000D03*
D28*
X109245000Y-81400000D03*
X111120000Y-82350000D03*
X111120000Y-80450000D03*
D29*
X109250000Y-61375000D03*
X110220000Y-61375000D03*
D30*
X121950000Y-65950000D03*
D31*
X121950000Y-68490000D03*
X121950000Y-71030000D03*
X121950000Y-73570000D03*
D30*
X100275000Y-71800000D03*
D31*
X102815000Y-71800000D03*
X105355000Y-71800000D03*
X107895000Y-71800000D03*
X110435000Y-71800000D03*
X96774000Y-79253000D03*
D30*
X96774000Y-81793000D03*
D32*
X104632500Y-83250000D03*
X104632500Y-81375000D03*
X101357500Y-83250000D03*
X101357500Y-81375000D03*
D33*
X120025000Y-81000000D03*
X122975000Y-81000000D03*
D12*
X107520000Y-76050000D03*
X108480000Y-76050000D03*
X109352500Y-77650000D03*
X110312500Y-77650000D03*
D11*
X119680000Y-76200000D03*
X118720000Y-76200000D03*
D34*
X107100000Y-66075000D03*
X107100000Y-69025000D03*
D33*
X121314000Y-62484000D03*
X118364000Y-62484000D03*
D10*
X108950000Y-63635000D03*
X108950000Y-62675000D03*
D34*
X104550000Y-68250000D03*
X104550000Y-65300000D03*
D35*
X100000000Y-65875000D03*
X100000000Y-62925000D03*
D12*
X107592500Y-83200000D03*
X106632500Y-83200000D03*
D36*
X112776000Y-79248000D03*
X108966000Y-78994000D03*
X110744000Y-78994000D03*
X122174000Y-78232000D03*
X121666000Y-76962000D03*
X122936000Y-83566000D03*
X120396000Y-83566000D03*
X118110000Y-83566000D03*
X115824000Y-83566000D03*
X83058000Y-69342000D03*
X81534000Y-67818000D03*
X86360000Y-72898000D03*
X84328000Y-72644000D03*
X83566000Y-71120000D03*
X81026000Y-70612000D03*
X79502000Y-69342000D03*
X79502000Y-67310000D03*
X90678000Y-83312000D03*
X90678000Y-82042000D03*
X80518000Y-82296000D03*
X85344000Y-82296000D03*
X105950000Y-80610000D03*
X107320000Y-78840000D03*
X87890000Y-67580000D03*
X94110000Y-66820000D03*
X95730000Y-66660000D03*
D37*
X111420000Y-68790000D03*
X117310000Y-72240000D03*
X100710000Y-63470000D03*
D36*
X110730000Y-63139500D03*
D37*
X120610000Y-78810000D03*
X107870000Y-74460000D03*
X100850000Y-67290000D03*
D36*
X105670000Y-61360000D03*
X105170000Y-63510000D03*
X97970000Y-63890000D03*
X88040000Y-64910000D03*
X84050000Y-65400000D03*
X85920000Y-65100000D03*
X113030000Y-60960000D03*
X105060332Y-62269668D03*
X79502000Y-65278000D03*
X94400000Y-73150000D03*
X93250000Y-71100000D03*
X108500000Y-77475000D03*
X106725000Y-75600000D03*
X110236000Y-67684989D03*
X111900000Y-65700000D03*
D37*
X98650000Y-83250000D03*
X117200000Y-79000000D03*
D36*
X94273930Y-65473930D03*
X89200000Y-66000000D03*
D37*
X91700000Y-65300000D03*
X90375030Y-65275030D03*
D36*
X80000000Y-74900000D03*
X89700000Y-77800000D03*
X80900000Y-73500000D03*
X84650000Y-77850000D03*
D37*
X104600000Y-76900000D03*
X101400000Y-76900000D03*
D36*
X108150000Y-81400000D03*
X112546250Y-80503750D03*
D38*
X113848000Y-60960000D02*
X113030000Y-60960000D01*
X116078000Y-61976000D02*
X115824000Y-61976000D01*
X115824000Y-61976000D02*
X114808000Y-60960000D01*
D39*
X115150000Y-65175000D02*
X115150000Y-64554000D01*
X115150000Y-64554000D02*
X116078000Y-63626000D01*
D40*
X121950000Y-65950000D02*
X121950000Y-63120000D01*
X121950000Y-63120000D02*
X121314000Y-62484000D01*
X118364000Y-62484000D02*
X118364000Y-63611000D01*
X118364000Y-63611000D02*
X116800000Y-65175000D01*
D38*
X97970000Y-63890000D02*
X98600000Y-64520000D01*
X98600000Y-64520000D02*
X103436441Y-64520000D01*
X103630961Y-64325480D02*
X106270592Y-64325480D01*
X103436441Y-64520000D02*
X103630961Y-64325480D01*
X106270592Y-64325480D02*
X106724520Y-63871552D01*
X106724520Y-63871552D02*
X106724520Y-63600000D01*
D39*
X77377850Y-63400140D02*
X77377850Y-61560150D01*
X77377850Y-61560150D02*
X78232000Y-60706000D01*
X78232000Y-60706000D02*
X105122609Y-60706000D01*
X105122609Y-60706000D02*
X105318120Y-60510489D01*
X105318120Y-60510489D02*
X110860009Y-60510489D01*
X110860009Y-60510489D02*
X112025000Y-61675480D01*
X110236000Y-67684989D02*
X110235989Y-67685000D01*
X110235989Y-67685000D02*
X109050000Y-67685000D01*
D38*
X85009688Y-65100000D02*
X85920000Y-65100000D01*
D40*
X96520000Y-79502000D02*
X98087500Y-77934500D01*
X98087500Y-77934500D02*
X98087500Y-76200000D01*
D39*
X96520000Y-79502000D02*
X94262020Y-81759980D01*
X94262020Y-81759980D02*
X94262020Y-81837980D01*
X94262020Y-81837980D02*
X92900000Y-83200000D01*
D40*
X96774000Y-81793000D02*
X98231000Y-83250000D01*
X98231000Y-83250000D02*
X98650000Y-83250000D01*
D39*
X105060332Y-62269668D02*
X104258664Y-61468000D01*
X104258664Y-61468000D02*
X79122000Y-61468000D01*
X79122000Y-61468000D02*
X78678330Y-61911670D01*
X78678330Y-61911670D02*
X78678330Y-63400140D01*
X79502000Y-65278000D02*
X77289888Y-65278000D01*
X77289888Y-65278000D02*
X76077370Y-64065482D01*
X76077370Y-64065482D02*
X76077370Y-63400140D01*
D40*
X107320000Y-78840000D02*
X105916520Y-80243480D01*
X105916520Y-80243480D02*
X105916520Y-80576520D01*
X93685056Y-65690000D02*
X93840000Y-65690000D01*
X91795056Y-67580000D02*
X93685056Y-65690000D01*
X87890000Y-67580000D02*
X91795056Y-67580000D01*
D38*
X94110000Y-66820000D02*
X95579140Y-65350860D01*
X95579140Y-65350860D02*
X97075550Y-65350860D01*
X95730000Y-66660000D02*
X97066890Y-66660000D01*
X97066890Y-66660000D02*
X97075550Y-66651340D01*
X110060000Y-68875000D02*
X111335000Y-68875000D01*
X111335000Y-68875000D02*
X111420000Y-68790000D01*
X110220000Y-61375000D02*
X110220000Y-62629500D01*
X110220000Y-62629500D02*
X110730000Y-63139500D01*
D40*
X107829511Y-74500489D02*
X107870000Y-74460000D01*
X101612011Y-74500489D02*
X107829511Y-74500489D01*
X99912500Y-76200000D02*
X101612011Y-74500489D01*
D38*
X109040000Y-68875000D02*
X107250000Y-68875000D01*
X107250000Y-68875000D02*
X107100000Y-69025000D01*
D40*
X100850000Y-67290000D02*
X100850000Y-66725000D01*
X100850000Y-66725000D02*
X100000000Y-65875000D01*
X109050000Y-66665000D02*
X109129511Y-66585489D01*
X109129511Y-66585489D02*
X111230545Y-66585489D01*
X111230545Y-66585489D02*
X112970056Y-68325000D01*
X112970056Y-68325000D02*
X113545000Y-68325000D01*
X118655000Y-71030000D02*
X121950000Y-71030000D01*
X113545000Y-68325000D02*
X113545000Y-69945000D01*
X113545000Y-69945000D02*
X114630000Y-71030000D01*
X114630000Y-71030000D02*
X118655000Y-71030000D01*
D38*
X105670000Y-61360000D02*
X107025480Y-61360000D01*
X105170000Y-63510000D02*
X105935480Y-63510000D01*
X88040000Y-64910000D02*
X88040000Y-63666070D01*
X88040000Y-63666070D02*
X87774070Y-63400140D01*
X85009688Y-65100000D02*
X83875170Y-63965482D01*
X83875170Y-63965482D02*
X83875170Y-63400140D01*
X84009208Y-65400000D02*
X84050000Y-65400000D01*
X82577230Y-63968022D02*
X84009208Y-65400000D01*
X82577230Y-63400140D02*
X82577230Y-63968022D01*
D41*
X113325000Y-62325000D02*
X113275480Y-62374520D01*
X113275480Y-62374520D02*
X112025000Y-62374520D01*
D39*
X93250000Y-71100000D02*
X86825000Y-71100000D01*
X86825000Y-71100000D02*
X79976270Y-64251270D01*
X79976270Y-64251270D02*
X79976270Y-63400140D01*
X94400000Y-73150000D02*
X94175489Y-72925489D01*
X81276750Y-64526750D02*
X81276750Y-63400140D01*
X94175489Y-72925489D02*
X94175489Y-70600489D01*
X94175489Y-70600489D02*
X93475000Y-69900000D01*
X93475000Y-69900000D02*
X86650000Y-69900000D01*
X86650000Y-69900000D02*
X81276750Y-64526750D01*
X108675000Y-77650000D02*
X108500000Y-77475000D01*
X109352500Y-77650000D02*
X108675000Y-77650000D01*
X107175000Y-76050000D02*
X106725000Y-75600000D01*
X107520000Y-76050000D02*
X107175000Y-76050000D01*
D41*
X106640000Y-62425000D02*
X106674520Y-62459520D01*
X106674520Y-62459520D02*
X106674520Y-63600000D01*
D39*
X107660000Y-62425000D02*
X107660000Y-61781783D01*
X107660000Y-61781783D02*
X107774520Y-61667263D01*
X108950000Y-62675000D02*
X107910000Y-62675000D01*
X107910000Y-62675000D02*
X107660000Y-62425000D01*
X108950000Y-62675000D02*
X108950000Y-61675000D01*
X108950000Y-61675000D02*
X109250000Y-61375000D01*
X109050000Y-66665000D02*
X109050000Y-63735000D01*
X109050000Y-63735000D02*
X108950000Y-63635000D01*
X112025000Y-65825000D02*
X111900000Y-65700000D01*
X112480000Y-65825000D02*
X112025000Y-65825000D01*
X109040000Y-68875000D02*
X109040000Y-67695000D01*
X109040000Y-67695000D02*
X109050000Y-67685000D01*
X110940000Y-74300000D02*
X110940000Y-73132787D01*
X110940000Y-73132787D02*
X111734511Y-72338276D01*
X109040000Y-69001636D02*
X109040000Y-68875000D01*
X111734511Y-72338276D02*
X111734511Y-70671897D01*
X111734511Y-70671897D02*
X110707134Y-69644520D01*
X110707134Y-69644520D02*
X109682884Y-69644520D01*
X109682884Y-69644520D02*
X109040000Y-69001636D01*
X110312500Y-77650000D02*
X112825000Y-77650000D01*
X112825000Y-77650000D02*
X113175000Y-78000000D01*
X119680000Y-72055000D02*
X118655000Y-71030000D01*
X119680000Y-73300000D02*
X119680000Y-72055000D01*
X113500000Y-65825000D02*
X114815000Y-67140000D01*
X114815000Y-67140000D02*
X114815000Y-68325000D01*
X113325000Y-63975000D02*
X113325000Y-65650000D01*
X113325000Y-65650000D02*
X113500000Y-65825000D01*
X115150000Y-65175000D02*
X116085000Y-66110000D01*
X116085000Y-66110000D02*
X116085000Y-68325000D01*
D40*
X117355000Y-65730000D02*
X117355000Y-68325000D01*
X116800000Y-65175000D02*
X117355000Y-65730000D01*
D39*
X109925000Y-75900000D02*
X108630000Y-75900000D01*
X108630000Y-75900000D02*
X108480000Y-76050000D01*
X111960000Y-74300000D02*
X111960000Y-75515000D01*
X111960000Y-75515000D02*
X111575000Y-75900000D01*
X113545000Y-73275000D02*
X112985000Y-73275000D01*
X112985000Y-73275000D02*
X111960000Y-74300000D01*
D40*
X116085000Y-73275000D02*
X116085000Y-74181402D01*
X116085000Y-74181402D02*
X116400000Y-74496402D01*
X116400000Y-75825000D02*
X116400000Y-74496402D01*
D39*
X114815000Y-73275000D02*
X114815000Y-75760000D01*
X114815000Y-75760000D02*
X114750000Y-75825000D01*
D40*
X116000000Y-73360000D02*
X116085000Y-73275000D01*
X114825000Y-78000000D02*
X114825000Y-75900000D01*
X114825000Y-75900000D02*
X114750000Y-75825000D01*
X120025000Y-81000000D02*
X116500000Y-81000000D01*
X116500000Y-81000000D02*
X114825000Y-79325000D01*
X114825000Y-79325000D02*
X114825000Y-78000000D01*
X98650000Y-83250000D02*
X101357500Y-83250000D01*
X118000000Y-78200000D02*
X117200000Y-79000000D01*
X118000000Y-78200000D02*
X118000000Y-76900480D01*
X118000000Y-76900480D02*
X118700480Y-76200000D01*
X117355000Y-73275000D02*
X118700480Y-74620480D01*
X118700480Y-74620480D02*
X118700480Y-76200000D01*
D39*
X119680000Y-76200000D02*
X119680000Y-73300000D01*
X119900000Y-78200000D02*
X119900000Y-76420000D01*
X119900000Y-76420000D02*
X119680000Y-76200000D01*
D40*
X124000000Y-70540000D02*
X124000000Y-80600000D01*
X121950000Y-68490000D02*
X124000000Y-70540000D01*
X124000000Y-80600000D02*
X123600000Y-81000000D01*
X123600000Y-81000000D02*
X122975000Y-81000000D01*
X107100000Y-66075000D02*
X108460000Y-66075000D01*
X108460000Y-66075000D02*
X109050000Y-66665000D01*
X104550000Y-65300000D02*
X106325000Y-65300000D01*
X106325000Y-65300000D02*
X107100000Y-66075000D01*
X104550000Y-68250000D02*
X104800000Y-68000000D01*
X104800000Y-68000000D02*
X106075000Y-68000000D01*
X106075000Y-68000000D02*
X107100000Y-69025000D01*
D39*
X107895000Y-71800000D02*
X105369520Y-69274520D01*
X105369520Y-69274520D02*
X99063592Y-69274520D01*
X99063592Y-69274520D02*
X97740892Y-67951820D01*
X97740892Y-67951820D02*
X97075550Y-67951820D01*
X100275000Y-71781328D02*
X97745972Y-69252300D01*
X97745972Y-69252300D02*
X97075550Y-69252300D01*
X94273930Y-63400140D02*
X94273930Y-65473930D01*
X99400000Y-62925000D02*
X98714429Y-62239429D01*
X98714429Y-62239429D02*
X93260571Y-62239429D01*
X93260571Y-62239429D02*
X92800000Y-62700000D01*
X89200000Y-66000000D02*
X89200000Y-63525590D01*
X89200000Y-63525590D02*
X89074550Y-63400140D01*
D40*
X91675510Y-65275510D02*
X91700000Y-65300000D01*
X91675510Y-63400140D02*
X91675510Y-65275510D01*
X90375030Y-63400140D02*
X90375030Y-65275030D01*
X97075550Y-74449140D02*
X97075550Y-75188050D01*
X97075550Y-75188050D02*
X98087500Y-76200000D01*
D39*
X80900000Y-73500000D02*
X79396549Y-73500000D01*
X79396549Y-73500000D02*
X78678330Y-74218219D01*
X78678330Y-74218219D02*
X78678330Y-76399860D01*
X79976270Y-74923730D02*
X80000000Y-74900000D01*
X79976270Y-76399860D02*
X79976270Y-74923730D01*
X93562500Y-79050000D02*
X93562500Y-80712500D01*
X93562500Y-80712500D02*
X92900000Y-81375000D01*
X93562500Y-79050000D02*
X95574410Y-77038090D01*
X95574410Y-77038090D02*
X95574410Y-76399860D01*
X86550489Y-81775489D02*
X86550489Y-80850489D01*
X86550489Y-80850489D02*
X86550489Y-78049511D01*
X91737500Y-79050000D02*
X89937011Y-80850489D01*
X89937011Y-80850489D02*
X86550489Y-80850489D01*
X86929520Y-77670480D02*
X87168792Y-77670480D01*
X87168792Y-77670480D02*
X87774070Y-77065202D01*
X90200000Y-78300000D02*
X89700000Y-77800000D01*
X90200000Y-78390000D02*
X90200000Y-78300000D01*
X88000000Y-78775000D02*
X89175000Y-78775000D01*
X89175000Y-78775000D02*
X89800000Y-79400000D01*
X88000000Y-83225000D02*
X86550489Y-81775489D01*
X86550489Y-78049511D02*
X86929520Y-77670480D01*
X87774070Y-76399860D02*
X87774070Y-77065202D01*
X85200000Y-78400000D02*
X84650000Y-77850000D01*
X83000000Y-79100000D02*
X84100000Y-80200000D01*
X83000000Y-78775000D02*
X83000000Y-79100000D01*
X84100000Y-80200000D02*
X84420000Y-80200000D01*
X84420000Y-80200000D02*
X85200000Y-79420000D01*
X79410000Y-77700000D02*
X77300000Y-77700000D01*
X77377850Y-77622150D02*
X77377850Y-76399860D01*
X80200000Y-78490000D02*
X79410000Y-77700000D01*
X77300000Y-77700000D02*
X77377850Y-77622150D01*
X80200000Y-79510000D02*
X78735000Y-79510000D01*
X78735000Y-79510000D02*
X78000000Y-78775000D01*
X83000000Y-83225000D02*
X88000000Y-83225000D01*
X78000000Y-83225000D02*
X83000000Y-83225000D01*
D40*
X104632500Y-78075000D02*
X104632500Y-76932500D01*
X104632500Y-76932500D02*
X104600000Y-76900000D01*
X101332500Y-78075000D02*
X101332500Y-76967500D01*
X101332500Y-76967500D02*
X101400000Y-76900000D01*
X101357500Y-81375000D02*
X101357500Y-79750000D01*
X104632500Y-81375000D02*
X104632500Y-79725000D01*
D39*
X108150000Y-81400000D02*
X107582500Y-81400000D01*
X112546250Y-80503750D02*
X113182500Y-81140000D01*
X111120000Y-80450000D02*
X112492500Y-80450000D01*
X112492500Y-80450000D02*
X112546250Y-80503750D01*
X111120000Y-82350000D02*
X112992500Y-82350000D01*
X112992500Y-82350000D02*
X113182500Y-82160000D01*
X106632500Y-83200000D02*
X106632500Y-81203364D01*
X106632500Y-81203364D02*
X107455864Y-80380000D01*
X107455864Y-80380000D02*
X107582500Y-80380000D01*
X109245000Y-81400000D02*
X108150000Y-81400000D01*
X110042500Y-83750000D02*
X110042500Y-83427500D01*
X110042500Y-83427500D02*
X111120000Y-82350000D01*
X107592500Y-83200000D02*
X107592500Y-83342500D01*
X107592500Y-83342500D02*
X108000000Y-83750000D01*
X108000000Y-83750000D02*
X109022500Y-83750000D01*
X106632500Y-83200000D02*
X104682500Y-83200000D01*
X104682500Y-83200000D02*
X104632500Y-83250000D01*
D40*
X101357500Y-83250000D02*
X104632500Y-83250000D01*
G04 #@! TA.AperFunction,Conductor*
G36*
X120647012Y-74008678D02*
G01*
X120681243Y-74056498D01*
X120730184Y-74177025D01*
X120733266Y-74184616D01*
X120735965Y-74189020D01*
X120844485Y-74366109D01*
X120849987Y-74375088D01*
X120996250Y-74543938D01*
X121065448Y-74601387D01*
X121151055Y-74672459D01*
X121168126Y-74686632D01*
X121361000Y-74799338D01*
X121569692Y-74879030D01*
X121574760Y-74880061D01*
X121574763Y-74880062D01*
X121640494Y-74893435D01*
X121788597Y-74923567D01*
X121793772Y-74923757D01*
X121793774Y-74923757D01*
X122006673Y-74931564D01*
X122006677Y-74931564D01*
X122011837Y-74931753D01*
X122016957Y-74931097D01*
X122016959Y-74931097D01*
X122228288Y-74904025D01*
X122228289Y-74904025D01*
X122233416Y-74903368D01*
X122244642Y-74900000D01*
X122442429Y-74840661D01*
X122442434Y-74840659D01*
X122447384Y-74839174D01*
X122647994Y-74740896D01*
X122652199Y-74737896D01*
X122652205Y-74737893D01*
X122769581Y-74654169D01*
X122792333Y-74637941D01*
X122859405Y-74614668D01*
X122928414Y-74631351D01*
X122977448Y-74682695D01*
X122991500Y-74740520D01*
X122991500Y-79465500D01*
X122971498Y-79533621D01*
X122917842Y-79580114D01*
X122865500Y-79591500D01*
X122599600Y-79591500D01*
X122596354Y-79591837D01*
X122596350Y-79591837D01*
X122500692Y-79601762D01*
X122500688Y-79601763D01*
X122493834Y-79602474D01*
X122487298Y-79604655D01*
X122487296Y-79604655D01*
X122374782Y-79642193D01*
X122326054Y-79658450D01*
X122175652Y-79751522D01*
X122170479Y-79756704D01*
X122152263Y-79774952D01*
X122050695Y-79876697D01*
X122046855Y-79882927D01*
X122046854Y-79882928D01*
X121968513Y-80010021D01*
X121957885Y-80027262D01*
X121941458Y-80076788D01*
X121919320Y-80143534D01*
X121902203Y-80195139D01*
X121901503Y-80201975D01*
X121901502Y-80201978D01*
X121898223Y-80233985D01*
X121891500Y-80299600D01*
X121891500Y-81700400D01*
X121891837Y-81703646D01*
X121891837Y-81703650D01*
X121901042Y-81792361D01*
X121902474Y-81806166D01*
X121904655Y-81812702D01*
X121904655Y-81812704D01*
X121917889Y-81852371D01*
X121958450Y-81973946D01*
X122051522Y-82124348D01*
X122176697Y-82249305D01*
X122182927Y-82253145D01*
X122182928Y-82253146D01*
X122320090Y-82337694D01*
X122327262Y-82342115D01*
X122407005Y-82368564D01*
X122488611Y-82395632D01*
X122488613Y-82395632D01*
X122495139Y-82397797D01*
X122501975Y-82398497D01*
X122501978Y-82398498D01*
X122545031Y-82402909D01*
X122599600Y-82408500D01*
X123350400Y-82408500D01*
X123353646Y-82408163D01*
X123353650Y-82408163D01*
X123449308Y-82398238D01*
X123449312Y-82398237D01*
X123456166Y-82397526D01*
X123462702Y-82395345D01*
X123462704Y-82395345D01*
X123594806Y-82351272D01*
X123623946Y-82341550D01*
X123774348Y-82248478D01*
X123899305Y-82123303D01*
X123992115Y-81972738D01*
X123994418Y-81965795D01*
X123997226Y-81959773D01*
X124044143Y-81906488D01*
X124052264Y-81901774D01*
X124068255Y-81893271D01*
X124069425Y-81892657D01*
X124146453Y-81852729D01*
X124151926Y-81849892D01*
X124156089Y-81846569D01*
X124160796Y-81844066D01*
X124232918Y-81785245D01*
X124233774Y-81784554D01*
X124272973Y-81753262D01*
X124275477Y-81750758D01*
X124276195Y-81750116D01*
X124280558Y-81746390D01*
X124285873Y-81742056D01*
X124351307Y-81714508D01*
X124421248Y-81726710D01*
X124473488Y-81774787D01*
X124491500Y-81839706D01*
X124491500Y-82950633D01*
X124490000Y-82970018D01*
X124487690Y-82984851D01*
X124487690Y-82984855D01*
X124486309Y-82993724D01*
X124488136Y-83007693D01*
X124488304Y-83008976D01*
X124489047Y-83034302D01*
X124478026Y-83188404D01*
X124476962Y-83203279D01*
X124474404Y-83221064D01*
X124456598Y-83302919D01*
X124433001Y-83411392D01*
X124427937Y-83428641D01*
X124359864Y-83611150D01*
X124352396Y-83627502D01*
X124259048Y-83798458D01*
X124249328Y-83813582D01*
X124132598Y-83969514D01*
X124120825Y-83983100D01*
X123983100Y-84120825D01*
X123969514Y-84132598D01*
X123813582Y-84249328D01*
X123798458Y-84259048D01*
X123627502Y-84352396D01*
X123611150Y-84359864D01*
X123428641Y-84427937D01*
X123411393Y-84433001D01*
X123221064Y-84474404D01*
X123203285Y-84476961D01*
X123041395Y-84488540D01*
X123023435Y-84487793D01*
X123015155Y-84487692D01*
X123006276Y-84486309D01*
X122974714Y-84490436D01*
X122958379Y-84491500D01*
X110816900Y-84491500D01*
X110748779Y-84471498D01*
X110702286Y-84417842D01*
X110692182Y-84347568D01*
X110708446Y-84301361D01*
X110768734Y-84199419D01*
X110768734Y-84199418D01*
X110772769Y-84192596D01*
X110776147Y-84180971D01*
X110816334Y-84042644D01*
X110818129Y-84036466D01*
X110818926Y-84026348D01*
X110820807Y-84002444D01*
X110820807Y-84002438D01*
X110821000Y-83999989D01*
X110820999Y-83773872D01*
X110841001Y-83705752D01*
X110857904Y-83684777D01*
X111347276Y-83195405D01*
X111409588Y-83161379D01*
X111436371Y-83158500D01*
X111774002Y-83158500D01*
X111776450Y-83158307D01*
X111776458Y-83158307D01*
X111804921Y-83156067D01*
X111804926Y-83156066D01*
X111811331Y-83155562D01*
X111817507Y-83153768D01*
X111817511Y-83153767D01*
X111956102Y-83113503D01*
X111991254Y-83108500D01*
X112925430Y-83108500D01*
X112944380Y-83109933D01*
X112958615Y-83112099D01*
X112958619Y-83112099D01*
X112965849Y-83113199D01*
X112973141Y-83112606D01*
X112973144Y-83112606D01*
X113018518Y-83108915D01*
X113028733Y-83108500D01*
X113036793Y-83108500D01*
X113050083Y-83106951D01*
X113065007Y-83105211D01*
X113069382Y-83104778D01*
X113134839Y-83099454D01*
X113134842Y-83099453D01*
X113142137Y-83098860D01*
X113149101Y-83096604D01*
X113155060Y-83095413D01*
X113160915Y-83094029D01*
X113168181Y-83093182D01*
X113236827Y-83068265D01*
X113240955Y-83066848D01*
X113303436Y-83046607D01*
X113303438Y-83046606D01*
X113310399Y-83044351D01*
X113316654Y-83040555D01*
X113322128Y-83038049D01*
X113327558Y-83035330D01*
X113334437Y-83032833D01*
X113350586Y-83022245D01*
X113395476Y-82992814D01*
X113399180Y-82990477D01*
X113461607Y-82952595D01*
X113465816Y-82948878D01*
X113470333Y-82945554D01*
X113470832Y-82946232D01*
X113513728Y-82922624D01*
X113589354Y-82900653D01*
X113617483Y-82892481D01*
X113617485Y-82892480D01*
X113625096Y-82890269D01*
X113703790Y-82843730D01*
X113758220Y-82811540D01*
X113765041Y-82807506D01*
X113880006Y-82692541D01*
X113929564Y-82608743D01*
X113958734Y-82559419D01*
X113958734Y-82559418D01*
X113962769Y-82552596D01*
X113966647Y-82539250D01*
X113998356Y-82430106D01*
X114008129Y-82396466D01*
X114009030Y-82385026D01*
X114010807Y-82362444D01*
X114010807Y-82362438D01*
X114011000Y-82359989D01*
X114010999Y-81960012D01*
X114008129Y-81923534D01*
X113970020Y-81792361D01*
X113964981Y-81775017D01*
X113964980Y-81775015D01*
X113962769Y-81767404D01*
X113930977Y-81713647D01*
X113913518Y-81644834D01*
X113930978Y-81585370D01*
X113958271Y-81539220D01*
X113964519Y-81524783D01*
X113997461Y-81411395D01*
X113997421Y-81397295D01*
X113990151Y-81394000D01*
X113520042Y-81394000D01*
X113484890Y-81388997D01*
X113475147Y-81386166D01*
X113475140Y-81386165D01*
X113468966Y-81384371D01*
X113462559Y-81383867D01*
X113462555Y-81383866D01*
X113434944Y-81381693D01*
X113434938Y-81381693D01*
X113432489Y-81381500D01*
X113182652Y-81381500D01*
X112932512Y-81381501D01*
X112896034Y-81384371D01*
X112889852Y-81386167D01*
X112889847Y-81386168D01*
X112880110Y-81388997D01*
X112844958Y-81394000D01*
X112380600Y-81394000D01*
X112367069Y-81397973D01*
X112365934Y-81405870D01*
X112373045Y-81430346D01*
X112372842Y-81501343D01*
X112334289Y-81560959D01*
X112269624Y-81590268D01*
X112252048Y-81591500D01*
X111991254Y-81591500D01*
X111956102Y-81586497D01*
X111817511Y-81546233D01*
X111817507Y-81546232D01*
X111811331Y-81544438D01*
X111804926Y-81543934D01*
X111804921Y-81543933D01*
X111776458Y-81541693D01*
X111776450Y-81541693D01*
X111774002Y-81541500D01*
X110617000Y-81541500D01*
X110548879Y-81521498D01*
X110502386Y-81467842D01*
X110491000Y-81415500D01*
X110491000Y-81384000D01*
X110511002Y-81315879D01*
X110564658Y-81269386D01*
X110617000Y-81258000D01*
X110847885Y-81258000D01*
X110863124Y-81253525D01*
X110864329Y-81252135D01*
X110866000Y-81244452D01*
X110866000Y-81239884D01*
X111374000Y-81239884D01*
X111378475Y-81255123D01*
X111379865Y-81256328D01*
X111387548Y-81257999D01*
X111771484Y-81257999D01*
X111776420Y-81257805D01*
X111804836Y-81255570D01*
X111817431Y-81253270D01*
X111963290Y-81210893D01*
X111977721Y-81204648D01*
X112107178Y-81128089D01*
X112119604Y-81118449D01*
X112225949Y-81012104D01*
X112235591Y-80999675D01*
X112266232Y-80947862D01*
X112318124Y-80899409D01*
X112374686Y-80886000D01*
X112910385Y-80886000D01*
X112925624Y-80881525D01*
X112926829Y-80880135D01*
X112928500Y-80872452D01*
X112928500Y-80867885D01*
X113436500Y-80867885D01*
X113440975Y-80883124D01*
X113442365Y-80884329D01*
X113450048Y-80886000D01*
X113984400Y-80886000D01*
X113997931Y-80882027D01*
X113999066Y-80874129D01*
X113964519Y-80755217D01*
X113958270Y-80740778D01*
X113883646Y-80614595D01*
X113873999Y-80602159D01*
X113770341Y-80498501D01*
X113757905Y-80488854D01*
X113631722Y-80414230D01*
X113617283Y-80407981D01*
X113475064Y-80366662D01*
X113462477Y-80364363D01*
X113454557Y-80363740D01*
X113439470Y-80366910D01*
X113436500Y-80378374D01*
X113436500Y-80867885D01*
X112928500Y-80867885D01*
X112928500Y-80380434D01*
X112924156Y-80365639D01*
X112912497Y-80363579D01*
X112902523Y-80364363D01*
X112889936Y-80366662D01*
X112747717Y-80407981D01*
X112733278Y-80414230D01*
X112607095Y-80488854D01*
X112594659Y-80498501D01*
X112491001Y-80602159D01*
X112481354Y-80614595D01*
X112465065Y-80642139D01*
X112413172Y-80690592D01*
X112356612Y-80704000D01*
X111392115Y-80704000D01*
X111376876Y-80708475D01*
X111375671Y-80709865D01*
X111374000Y-80717548D01*
X111374000Y-81239884D01*
X110866000Y-81239884D01*
X110866000Y-80722115D01*
X110861525Y-80706876D01*
X110860135Y-80705671D01*
X110852452Y-80704000D01*
X110237342Y-80704000D01*
X110173203Y-80686453D01*
X110109711Y-80648904D01*
X110096101Y-80640855D01*
X110088490Y-80638644D01*
X110088488Y-80638643D01*
X110022892Y-80619586D01*
X109936331Y-80594438D01*
X109929926Y-80593934D01*
X109929921Y-80593933D01*
X109901458Y-80591693D01*
X109901450Y-80591693D01*
X109899002Y-80591500D01*
X108594494Y-80591500D01*
X108543246Y-80580607D01*
X108485751Y-80555009D01*
X108431655Y-80509029D01*
X108411000Y-80439902D01*
X108410999Y-80182484D01*
X108410999Y-80180012D01*
X108410888Y-80178605D01*
X109882561Y-80178605D01*
X109882601Y-80192706D01*
X109889870Y-80196000D01*
X110847885Y-80196000D01*
X110863124Y-80191525D01*
X110864329Y-80190135D01*
X110866000Y-80182452D01*
X110866000Y-80177885D01*
X111374000Y-80177885D01*
X111378475Y-80193124D01*
X111379865Y-80194329D01*
X111387548Y-80196000D01*
X112344378Y-80196000D01*
X112357909Y-80192027D01*
X112359044Y-80184129D01*
X112318393Y-80044210D01*
X112312148Y-80029779D01*
X112235589Y-79900322D01*
X112225949Y-79887896D01*
X112119604Y-79781551D01*
X112107178Y-79771911D01*
X111977721Y-79695352D01*
X111963290Y-79689107D01*
X111817435Y-79646731D01*
X111804833Y-79644430D01*
X111776416Y-79642193D01*
X111771486Y-79642000D01*
X111392115Y-79642000D01*
X111376876Y-79646475D01*
X111375671Y-79647865D01*
X111374000Y-79655548D01*
X111374000Y-80177885D01*
X110866000Y-80177885D01*
X110866000Y-79660116D01*
X110861525Y-79644877D01*
X110860135Y-79643672D01*
X110852452Y-79642001D01*
X110468517Y-79642001D01*
X110463580Y-79642195D01*
X110435164Y-79644430D01*
X110422569Y-79646730D01*
X110276710Y-79689107D01*
X110262279Y-79695352D01*
X110132822Y-79771911D01*
X110120396Y-79781551D01*
X110014051Y-79887896D01*
X110004411Y-79900322D01*
X109927852Y-80029779D01*
X109921607Y-80044210D01*
X109882561Y-80178605D01*
X108410888Y-80178605D01*
X108408129Y-80143534D01*
X108376367Y-80034209D01*
X108364981Y-79995017D01*
X108364980Y-79995015D01*
X108362769Y-79987404D01*
X108352455Y-79969963D01*
X108284040Y-79854280D01*
X108280006Y-79847459D01*
X108165041Y-79732494D01*
X108131138Y-79712444D01*
X108031919Y-79653766D01*
X108031918Y-79653766D01*
X108025096Y-79649731D01*
X108017485Y-79647520D01*
X108017483Y-79647519D01*
X107926750Y-79621159D01*
X107868966Y-79604371D01*
X107862559Y-79603867D01*
X107862555Y-79603866D01*
X107834944Y-79601693D01*
X107834938Y-79601693D01*
X107832489Y-79601500D01*
X107582652Y-79601500D01*
X107332512Y-79601501D01*
X107296034Y-79604371D01*
X107210861Y-79629116D01*
X107147517Y-79647519D01*
X107147515Y-79647520D01*
X107139904Y-79649731D01*
X107133082Y-79653766D01*
X107133081Y-79653766D01*
X107033862Y-79712444D01*
X106999959Y-79732494D01*
X106884994Y-79847459D01*
X106880960Y-79854279D01*
X106880960Y-79854280D01*
X106848618Y-79908968D01*
X106829259Y-79933924D01*
X106143589Y-80619594D01*
X106129177Y-80631980D01*
X106117582Y-80640513D01*
X106117577Y-80640518D01*
X106111682Y-80644856D01*
X106106943Y-80650434D01*
X106106940Y-80650437D01*
X106077465Y-80685132D01*
X106070535Y-80692648D01*
X106064840Y-80698343D01*
X106062560Y-80701225D01*
X106047219Y-80720615D01*
X106044428Y-80724019D01*
X106005415Y-80769940D01*
X105997167Y-80779649D01*
X105993838Y-80786168D01*
X105990478Y-80791206D01*
X105987307Y-80796341D01*
X105982766Y-80802080D01*
X105982149Y-80803400D01*
X105931127Y-80849237D01*
X105861045Y-80860599D01*
X105795946Y-80832268D01*
X105769595Y-80801883D01*
X105769538Y-80801790D01*
X105682297Y-80660811D01*
X105677115Y-80655638D01*
X105672568Y-80649901D01*
X105673825Y-80648904D01*
X105643904Y-80594228D01*
X105641000Y-80567331D01*
X105641000Y-79675231D01*
X105640331Y-79668401D01*
X105632790Y-79591500D01*
X105626580Y-79528167D01*
X105621377Y-79510934D01*
X105615999Y-79474516D01*
X105615999Y-79468366D01*
X105615734Y-79465474D01*
X105611812Y-79422797D01*
X105609253Y-79394938D01*
X105595650Y-79351531D01*
X105560244Y-79238550D01*
X105560243Y-79238548D01*
X105557972Y-79231301D01*
X105469139Y-79084619D01*
X105373615Y-78989095D01*
X105339589Y-78926783D01*
X105344654Y-78855968D01*
X105373615Y-78810905D01*
X105469139Y-78715381D01*
X105557972Y-78568699D01*
X105609253Y-78405062D01*
X105616000Y-78331635D01*
X105616000Y-78328734D01*
X105616132Y-78325860D01*
X105616573Y-78325880D01*
X105620941Y-78297667D01*
X105620591Y-78297593D01*
X105621872Y-78291566D01*
X105623735Y-78285694D01*
X105625260Y-78272103D01*
X105638522Y-78153866D01*
X105641000Y-78131773D01*
X105641000Y-76994343D01*
X105641737Y-76980736D01*
X105645159Y-76949238D01*
X105645159Y-76949233D01*
X105645824Y-76943112D01*
X105642521Y-76905359D01*
X105641450Y-76893112D01*
X105641121Y-76888286D01*
X105641000Y-76885814D01*
X105641000Y-76882731D01*
X105639145Y-76863811D01*
X105636810Y-76839994D01*
X105636688Y-76838681D01*
X105631070Y-76774468D01*
X105628587Y-76746087D01*
X105627100Y-76740968D01*
X105626580Y-76735667D01*
X105599709Y-76646666D01*
X105599374Y-76645533D01*
X105575130Y-76562086D01*
X105575128Y-76562082D01*
X105573409Y-76556164D01*
X105570956Y-76551432D01*
X105569416Y-76546331D01*
X105549916Y-76509656D01*
X105525769Y-76464240D01*
X105525157Y-76463074D01*
X105485229Y-76386047D01*
X105482392Y-76380574D01*
X105479069Y-76376411D01*
X105476566Y-76371704D01*
X105417745Y-76299582D01*
X105417054Y-76298726D01*
X105385762Y-76259527D01*
X105383258Y-76257023D01*
X105382616Y-76256305D01*
X105378915Y-76251972D01*
X105351565Y-76218438D01*
X105342660Y-76211071D01*
X105325335Y-76193625D01*
X105322959Y-76190711D01*
X105322953Y-76190705D01*
X105319065Y-76185938D01*
X105314323Y-76182015D01*
X105314317Y-76182009D01*
X105280244Y-76153822D01*
X105278838Y-76152604D01*
X105277925Y-76151691D01*
X105241560Y-76121820D01*
X105166675Y-76059870D01*
X105165112Y-76059025D01*
X105163739Y-76057897D01*
X105156438Y-76053982D01*
X105078289Y-76012080D01*
X105077901Y-76011870D01*
X104997917Y-75968622D01*
X104997914Y-75968621D01*
X104992701Y-75965802D01*
X104990997Y-75965275D01*
X104989437Y-75964438D01*
X104983799Y-75962714D01*
X104983796Y-75962713D01*
X104897004Y-75936178D01*
X104896584Y-75936049D01*
X104809386Y-75909057D01*
X104803768Y-75907318D01*
X104802000Y-75907132D01*
X104800302Y-75906613D01*
X104703804Y-75896811D01*
X104703540Y-75896784D01*
X104607075Y-75886645D01*
X104605308Y-75886806D01*
X104603538Y-75886626D01*
X104597656Y-75887182D01*
X104597655Y-75887182D01*
X104506822Y-75895768D01*
X104506385Y-75895808D01*
X104461269Y-75899914D01*
X104410112Y-75904570D01*
X104408407Y-75905072D01*
X104406638Y-75905239D01*
X104400989Y-75906923D01*
X104400984Y-75906924D01*
X104313728Y-75932936D01*
X104313307Y-75933061D01*
X104220381Y-75960410D01*
X104218805Y-75961234D01*
X104217104Y-75961741D01*
X104198488Y-75971556D01*
X104134543Y-76005271D01*
X104131252Y-76007006D01*
X104045110Y-76052040D01*
X104043725Y-76053154D01*
X104042154Y-76053982D01*
X104037572Y-76057692D01*
X104037568Y-76057695D01*
X103966918Y-76114907D01*
X103966576Y-76115183D01*
X103895591Y-76172256D01*
X103895588Y-76172259D01*
X103890975Y-76175968D01*
X103889832Y-76177331D01*
X103888453Y-76178447D01*
X103884663Y-76182996D01*
X103826525Y-76252775D01*
X103826243Y-76253112D01*
X103811768Y-76270363D01*
X103763846Y-76327474D01*
X103762988Y-76329035D01*
X103761854Y-76330396D01*
X103759037Y-76335563D01*
X103759034Y-76335567D01*
X103728746Y-76391118D01*
X103715375Y-76415642D01*
X103668567Y-76500787D01*
X103668031Y-76502476D01*
X103667178Y-76504041D01*
X103665420Y-76509652D01*
X103665418Y-76509656D01*
X103655631Y-76540888D01*
X103638074Y-76596914D01*
X103608765Y-76689306D01*
X103608567Y-76691070D01*
X103608035Y-76692768D01*
X103607400Y-76698615D01*
X103607399Y-76698619D01*
X103602799Y-76740968D01*
X103599144Y-76774622D01*
X103597589Y-76788935D01*
X103597541Y-76789373D01*
X103587612Y-76877893D01*
X103586719Y-76885851D01*
X103586868Y-76887623D01*
X103586676Y-76889388D01*
X103587190Y-76895264D01*
X103587190Y-76895265D01*
X103591292Y-76942158D01*
X103595134Y-76986071D01*
X103603268Y-77082934D01*
X103603758Y-77084644D01*
X103603913Y-77086413D01*
X103605552Y-77092054D01*
X103605552Y-77092055D01*
X103618997Y-77138333D01*
X103624000Y-77173486D01*
X103624000Y-78124769D01*
X103624300Y-78127825D01*
X103624300Y-78127832D01*
X103624737Y-78132285D01*
X103638420Y-78271833D01*
X103640202Y-78277734D01*
X103640202Y-78277736D01*
X103643623Y-78289066D01*
X103649001Y-78325484D01*
X103649001Y-78331634D01*
X103649264Y-78334492D01*
X103649264Y-78334501D01*
X103649871Y-78341109D01*
X103655747Y-78405062D01*
X103657746Y-78411440D01*
X103657746Y-78411441D01*
X103679908Y-78482158D01*
X103707028Y-78568699D01*
X103795861Y-78715381D01*
X103891385Y-78810905D01*
X103925411Y-78873217D01*
X103920346Y-78944032D01*
X103891385Y-78989095D01*
X103795861Y-79084619D01*
X103707028Y-79231301D01*
X103704757Y-79238548D01*
X103704756Y-79238550D01*
X103691781Y-79279953D01*
X103655747Y-79394938D01*
X103649000Y-79468365D01*
X103649000Y-79471263D01*
X103648868Y-79474140D01*
X103648427Y-79474120D01*
X103644059Y-79502333D01*
X103644409Y-79502407D01*
X103643128Y-79508434D01*
X103641265Y-79514306D01*
X103640579Y-79520423D01*
X103640578Y-79520427D01*
X103636825Y-79553891D01*
X103624000Y-79668227D01*
X103624000Y-80567530D01*
X103603998Y-80635651D01*
X103587172Y-80656549D01*
X103581883Y-80661847D01*
X103489839Y-80811171D01*
X103487534Y-80818119D01*
X103487534Y-80818120D01*
X103439707Y-80962314D01*
X103434615Y-80977665D01*
X103424000Y-81081269D01*
X103424001Y-81668730D01*
X103434884Y-81773629D01*
X103437063Y-81780160D01*
X103437064Y-81780165D01*
X103474698Y-81892966D01*
X103490398Y-81940026D01*
X103504456Y-81962744D01*
X103557955Y-82049197D01*
X103576793Y-82117649D01*
X103555632Y-82185419D01*
X103501191Y-82230990D01*
X103450811Y-82241500D01*
X102539274Y-82241500D01*
X102471153Y-82221498D01*
X102424660Y-82167842D01*
X102414556Y-82097568D01*
X102432014Y-82049384D01*
X102500161Y-81938829D01*
X102502614Y-81931433D01*
X102553219Y-81778866D01*
X102553219Y-81778864D01*
X102555385Y-81772335D01*
X102566000Y-81668731D01*
X102565999Y-81081270D01*
X102555116Y-80976371D01*
X102552937Y-80969840D01*
X102552936Y-80969835D01*
X102501920Y-80816922D01*
X102499602Y-80809974D01*
X102407297Y-80660811D01*
X102402115Y-80655638D01*
X102397568Y-80649901D01*
X102398825Y-80648904D01*
X102368904Y-80594228D01*
X102366000Y-80567331D01*
X102366000Y-79700231D01*
X102365002Y-79690046D01*
X102357291Y-79611412D01*
X102351580Y-79553167D01*
X102349774Y-79547183D01*
X102315318Y-79433061D01*
X102310469Y-79408172D01*
X102309865Y-79401601D01*
X102309253Y-79394938D01*
X102273219Y-79279953D01*
X102260244Y-79238550D01*
X102260243Y-79238548D01*
X102257972Y-79231301D01*
X102169139Y-79084619D01*
X102073615Y-78989095D01*
X102039589Y-78926783D01*
X102044654Y-78855968D01*
X102073615Y-78810905D01*
X102169139Y-78715381D01*
X102257972Y-78568699D01*
X102309253Y-78405062D01*
X102316000Y-78331635D01*
X102316000Y-78328734D01*
X102316132Y-78325860D01*
X102316573Y-78325880D01*
X102320941Y-78297667D01*
X102320591Y-78297593D01*
X102321872Y-78291566D01*
X102323735Y-78285694D01*
X102325260Y-78272103D01*
X102338522Y-78153866D01*
X102341000Y-78131773D01*
X102341000Y-77290480D01*
X102346504Y-77253646D01*
X102360434Y-77208083D01*
X102361347Y-77205226D01*
X102374902Y-77164480D01*
X102388197Y-77124513D01*
X102388970Y-77118398D01*
X102390335Y-77112390D01*
X102390638Y-77112459D01*
X102390674Y-77112292D01*
X102390368Y-77112230D01*
X102391584Y-77106200D01*
X102393387Y-77100302D01*
X102401011Y-77025248D01*
X102401978Y-77015732D01*
X102402326Y-77012675D01*
X102411752Y-76938056D01*
X102412985Y-76928295D01*
X102413053Y-76923436D01*
X102413272Y-76907779D01*
X102413272Y-76907777D01*
X102413324Y-76904033D01*
X102413374Y-76903538D01*
X102413336Y-76903138D01*
X102413380Y-76900000D01*
X102408375Y-76848959D01*
X102403920Y-76803517D01*
X102403878Y-76803080D01*
X102395318Y-76712526D01*
X102395317Y-76712522D01*
X102394761Y-76706638D01*
X102394253Y-76704935D01*
X102394080Y-76703167D01*
X102392375Y-76697521D01*
X102392374Y-76697514D01*
X102366154Y-76610669D01*
X102366027Y-76610249D01*
X102339937Y-76522732D01*
X102339936Y-76522730D01*
X102338259Y-76517104D01*
X102337429Y-76515529D01*
X102336916Y-76513831D01*
X102291323Y-76428083D01*
X102246018Y-76342154D01*
X102244901Y-76340775D01*
X102244066Y-76339204D01*
X102182587Y-76263823D01*
X102176098Y-76255810D01*
X102125253Y-76193021D01*
X102125248Y-76193016D01*
X102121553Y-76188453D01*
X102120190Y-76187317D01*
X102119065Y-76185938D01*
X102044080Y-76123905D01*
X101969604Y-76061854D01*
X101968047Y-76061005D01*
X101966675Y-76059870D01*
X101961493Y-76057068D01*
X101961487Y-76057064D01*
X101881269Y-76013691D01*
X101881008Y-76013550D01*
X101798609Y-75968624D01*
X101748377Y-75918454D01*
X101733241Y-75849090D01*
X101758010Y-75782554D01*
X101769831Y-75768904D01*
X101992841Y-75545894D01*
X102055153Y-75511868D01*
X102081936Y-75508989D01*
X105688479Y-75508989D01*
X105756600Y-75528991D01*
X105803093Y-75582647D01*
X105813789Y-75621818D01*
X105830653Y-75782265D01*
X105831458Y-75789928D01*
X105890473Y-75971556D01*
X105893776Y-75977278D01*
X105893777Y-75977279D01*
X105909938Y-76005271D01*
X105985960Y-76136944D01*
X105990378Y-76141851D01*
X105990379Y-76141852D01*
X106100028Y-76263630D01*
X106113747Y-76278866D01*
X106183129Y-76329275D01*
X106248792Y-76376982D01*
X106268248Y-76391118D01*
X106274276Y-76393802D01*
X106274278Y-76393803D01*
X106431205Y-76463671D01*
X106442712Y-76468794D01*
X106449167Y-76470166D01*
X106449176Y-76470169D01*
X106505772Y-76482199D01*
X106568669Y-76516350D01*
X106591230Y-76538911D01*
X106603616Y-76553323D01*
X106612149Y-76564918D01*
X106612154Y-76564923D01*
X106616492Y-76570818D01*
X106622070Y-76575557D01*
X106622073Y-76575560D01*
X106656768Y-76605035D01*
X106664284Y-76611965D01*
X106669979Y-76617660D01*
X106672861Y-76619940D01*
X106692251Y-76635281D01*
X106695655Y-76638072D01*
X106726324Y-76664127D01*
X106751285Y-76685333D01*
X106757801Y-76688661D01*
X106762850Y-76692028D01*
X106767979Y-76695195D01*
X106773716Y-76699734D01*
X106839875Y-76730655D01*
X106843769Y-76732558D01*
X106908808Y-76765769D01*
X106915916Y-76767508D01*
X106921559Y-76769607D01*
X106927322Y-76771524D01*
X106933950Y-76774622D01*
X107004869Y-76789373D01*
X107005412Y-76789486D01*
X107009696Y-76790456D01*
X107032901Y-76796134D01*
X107073900Y-76806166D01*
X107080610Y-76807808D01*
X107085392Y-76808105D01*
X107114705Y-76816524D01*
X107120403Y-76819894D01*
X107128014Y-76822105D01*
X107128016Y-76822106D01*
X107170313Y-76834394D01*
X107277746Y-76865606D01*
X107284151Y-76866110D01*
X107284156Y-76866111D01*
X107312060Y-76868307D01*
X107312068Y-76868307D01*
X107314516Y-76868500D01*
X107582880Y-76868500D01*
X107651001Y-76888502D01*
X107697494Y-76942158D01*
X107707598Y-77012432D01*
X107691999Y-77057499D01*
X107665473Y-77103444D01*
X107606458Y-77285072D01*
X107605768Y-77291633D01*
X107605768Y-77291635D01*
X107594537Y-77398498D01*
X107586496Y-77475000D01*
X107587186Y-77481565D01*
X107605474Y-77655561D01*
X107606458Y-77664928D01*
X107665473Y-77846556D01*
X107668776Y-77852278D01*
X107668777Y-77852279D01*
X107671768Y-77857459D01*
X107760960Y-78011944D01*
X107765378Y-78016851D01*
X107765379Y-78016852D01*
X107844763Y-78105017D01*
X107888747Y-78153866D01*
X107950138Y-78198469D01*
X108035158Y-78260240D01*
X108043248Y-78266118D01*
X108049276Y-78268802D01*
X108049278Y-78268803D01*
X108211681Y-78341109D01*
X108217712Y-78343794D01*
X108311112Y-78363647D01*
X108398056Y-78382128D01*
X108398061Y-78382128D01*
X108404513Y-78383500D01*
X108463666Y-78383500D01*
X108489324Y-78386140D01*
X108505411Y-78389486D01*
X108509696Y-78390456D01*
X108580610Y-78407808D01*
X108586212Y-78408156D01*
X108586215Y-78408156D01*
X108591764Y-78408500D01*
X108591762Y-78408536D01*
X108595755Y-78408775D01*
X108599947Y-78409149D01*
X108607115Y-78410640D01*
X108684520Y-78408546D01*
X108687928Y-78408500D01*
X108902982Y-78408500D01*
X108950157Y-78418270D01*
X108952903Y-78419894D01*
X108960514Y-78422105D01*
X108960516Y-78422106D01*
X108982532Y-78428502D01*
X109110246Y-78465606D01*
X109116651Y-78466110D01*
X109116656Y-78466111D01*
X109144560Y-78468307D01*
X109144568Y-78468307D01*
X109147016Y-78468500D01*
X109557984Y-78468500D01*
X109560432Y-78468307D01*
X109560440Y-78468307D01*
X109588344Y-78466111D01*
X109588349Y-78466110D01*
X109594754Y-78465606D01*
X109722468Y-78428502D01*
X109744484Y-78422106D01*
X109744486Y-78422105D01*
X109752097Y-78419894D01*
X109758922Y-78415858D01*
X109768363Y-78410275D01*
X109837180Y-78392817D01*
X109896637Y-78410275D01*
X109906078Y-78415858D01*
X109912903Y-78419894D01*
X109920514Y-78422105D01*
X109920516Y-78422106D01*
X109942532Y-78428502D01*
X110070246Y-78465606D01*
X110076651Y-78466110D01*
X110076656Y-78466111D01*
X110104560Y-78468307D01*
X110104568Y-78468307D01*
X110107016Y-78468500D01*
X110517984Y-78468500D01*
X110520432Y-78468307D01*
X110520440Y-78468307D01*
X110548344Y-78466111D01*
X110548349Y-78466110D01*
X110554754Y-78465606D01*
X110682468Y-78428502D01*
X110704484Y-78422106D01*
X110704486Y-78422105D01*
X110712097Y-78419894D01*
X110714843Y-78418270D01*
X110762018Y-78408500D01*
X112181768Y-78408500D01*
X112249889Y-78428502D01*
X112296382Y-78482158D01*
X112302002Y-78496820D01*
X112324528Y-78568699D01*
X112328463Y-78575196D01*
X112328464Y-78575199D01*
X112351850Y-78613814D01*
X112413361Y-78715381D01*
X112534619Y-78836639D01*
X112681301Y-78925472D01*
X112688548Y-78927743D01*
X112688550Y-78927744D01*
X112697179Y-78930448D01*
X112844938Y-78976753D01*
X112918365Y-78983500D01*
X112921263Y-78983500D01*
X113175665Y-78983499D01*
X113431634Y-78983499D01*
X113434492Y-78983236D01*
X113434501Y-78983236D01*
X113470004Y-78979974D01*
X113505062Y-78976753D01*
X113609031Y-78944171D01*
X113652821Y-78930448D01*
X113723806Y-78929164D01*
X113784216Y-78966461D01*
X113814873Y-79030497D01*
X113816500Y-79050682D01*
X113816500Y-79263157D01*
X113815763Y-79276764D01*
X113812419Y-79307550D01*
X113811676Y-79314388D01*
X113812213Y-79320523D01*
X113816050Y-79364388D01*
X113816379Y-79369214D01*
X113816500Y-79371686D01*
X113816500Y-79374769D01*
X113816801Y-79377837D01*
X113820690Y-79417506D01*
X113820812Y-79418819D01*
X113822810Y-79441658D01*
X113828913Y-79511413D01*
X113830400Y-79516532D01*
X113830920Y-79521833D01*
X113857791Y-79610834D01*
X113858126Y-79611967D01*
X113880811Y-79690046D01*
X113884091Y-79701336D01*
X113886544Y-79706068D01*
X113888084Y-79711169D01*
X113890978Y-79716612D01*
X113931731Y-79793260D01*
X113932343Y-79794426D01*
X113969641Y-79866379D01*
X113975108Y-79876926D01*
X113978431Y-79881089D01*
X113980934Y-79885796D01*
X114039755Y-79957918D01*
X114040446Y-79958774D01*
X114071738Y-79997973D01*
X114074242Y-80000477D01*
X114074884Y-80001195D01*
X114078585Y-80005528D01*
X114105935Y-80039062D01*
X114110682Y-80042989D01*
X114110684Y-80042991D01*
X114141262Y-80068287D01*
X114150042Y-80076277D01*
X115743145Y-81669379D01*
X115752247Y-81679522D01*
X115775968Y-81709025D01*
X115814421Y-81741291D01*
X115818069Y-81744472D01*
X115819881Y-81746115D01*
X115822075Y-81748309D01*
X115855349Y-81775642D01*
X115856147Y-81776304D01*
X115927474Y-81836154D01*
X115932144Y-81838722D01*
X115936261Y-81842103D01*
X116018120Y-81885995D01*
X116019250Y-81886608D01*
X116040643Y-81898369D01*
X116095389Y-81928466D01*
X116095394Y-81928468D01*
X116100787Y-81931433D01*
X116105865Y-81933044D01*
X116110563Y-81935563D01*
X116199498Y-81962753D01*
X116200702Y-81963128D01*
X116289306Y-81991235D01*
X116294597Y-81991828D01*
X116299698Y-81993388D01*
X116392311Y-82002795D01*
X116393431Y-82002915D01*
X116443227Y-82008500D01*
X116446756Y-82008500D01*
X116447739Y-82008555D01*
X116453426Y-82009003D01*
X116473683Y-82011060D01*
X116490336Y-82012752D01*
X116490339Y-82012752D01*
X116496463Y-82013374D01*
X116542112Y-82009059D01*
X116553969Y-82008500D01*
X118959631Y-82008500D01*
X119027752Y-82028502D01*
X119066772Y-82068193D01*
X119101522Y-82124348D01*
X119226697Y-82249305D01*
X119232927Y-82253145D01*
X119232928Y-82253146D01*
X119370090Y-82337694D01*
X119377262Y-82342115D01*
X119457005Y-82368564D01*
X119538611Y-82395632D01*
X119538613Y-82395632D01*
X119545139Y-82397797D01*
X119551975Y-82398497D01*
X119551978Y-82398498D01*
X119595031Y-82402909D01*
X119649600Y-82408500D01*
X120400400Y-82408500D01*
X120403646Y-82408163D01*
X120403650Y-82408163D01*
X120499308Y-82398238D01*
X120499312Y-82398237D01*
X120506166Y-82397526D01*
X120512702Y-82395345D01*
X120512704Y-82395345D01*
X120644806Y-82351272D01*
X120673946Y-82341550D01*
X120824348Y-82248478D01*
X120949305Y-82123303D01*
X120960851Y-82104572D01*
X121038275Y-81978968D01*
X121038276Y-81978966D01*
X121042115Y-81972738D01*
X121083963Y-81846569D01*
X121095632Y-81811389D01*
X121095632Y-81811387D01*
X121097797Y-81804861D01*
X121099779Y-81785522D01*
X121105952Y-81725266D01*
X121108500Y-81700400D01*
X121108500Y-80299600D01*
X121107804Y-80292889D01*
X121098238Y-80200692D01*
X121098237Y-80200688D01*
X121097526Y-80193834D01*
X121093740Y-80182484D01*
X121047201Y-80042991D01*
X121041550Y-80026054D01*
X121005051Y-79967072D01*
X120970460Y-79911174D01*
X120951622Y-79842722D01*
X120972783Y-79774952D01*
X121020792Y-79732406D01*
X121152996Y-79665625D01*
X121296936Y-79553167D01*
X121303991Y-79547655D01*
X121308847Y-79543861D01*
X121417733Y-79417715D01*
X121434049Y-79398813D01*
X121434050Y-79398811D01*
X121438078Y-79394145D01*
X121535769Y-79222179D01*
X121598197Y-79034513D01*
X121622985Y-78838295D01*
X121623380Y-78810000D01*
X121604080Y-78613167D01*
X121601677Y-78605206D01*
X121559681Y-78466111D01*
X121546916Y-78423831D01*
X121454066Y-78249204D01*
X121371151Y-78147540D01*
X121332960Y-78100713D01*
X121332957Y-78100710D01*
X121329065Y-78095938D01*
X121319789Y-78088264D01*
X121181425Y-77973799D01*
X121181421Y-77973797D01*
X121176675Y-77969870D01*
X121002701Y-77875802D01*
X120996813Y-77873979D01*
X120991136Y-77871593D01*
X120991640Y-77870395D01*
X120938083Y-77834863D01*
X120909534Y-77769859D01*
X120908500Y-77753747D01*
X120908500Y-77674600D01*
X120907955Y-77669346D01*
X120898238Y-77575692D01*
X120898237Y-77575688D01*
X120897526Y-77568834D01*
X120863599Y-77467141D01*
X120843867Y-77407999D01*
X120841550Y-77401054D01*
X120748478Y-77250652D01*
X120741553Y-77243739D01*
X120695482Y-77197748D01*
X120661403Y-77135465D01*
X120658500Y-77108575D01*
X120658500Y-76487070D01*
X120659933Y-76468120D01*
X120662099Y-76453885D01*
X120662099Y-76453881D01*
X120663199Y-76446651D01*
X120658915Y-76393982D01*
X120658500Y-76383767D01*
X120658500Y-76375707D01*
X120655211Y-76347493D01*
X120654778Y-76343118D01*
X120649454Y-76277661D01*
X120649453Y-76277658D01*
X120648860Y-76270363D01*
X120646604Y-76263399D01*
X120645413Y-76257440D01*
X120644029Y-76251585D01*
X120643182Y-76244319D01*
X120618265Y-76175673D01*
X120616848Y-76171545D01*
X120596607Y-76109064D01*
X120596606Y-76109062D01*
X120594351Y-76102101D01*
X120590555Y-76095846D01*
X120588049Y-76090372D01*
X120585330Y-76084942D01*
X120582833Y-76078063D01*
X120571893Y-76061377D01*
X120542814Y-76017024D01*
X120540467Y-76013305D01*
X120539724Y-76012080D01*
X120502595Y-75950893D01*
X120495197Y-75942516D01*
X120495224Y-75942492D01*
X120492570Y-75939499D01*
X120489868Y-75936268D01*
X120485856Y-75930148D01*
X120480544Y-75925116D01*
X120475845Y-75919496D01*
X120477571Y-75918053D01*
X120449344Y-75871773D01*
X120443502Y-75851663D01*
X120438500Y-75816515D01*
X120438500Y-74103902D01*
X120458502Y-74035781D01*
X120512158Y-73989288D01*
X120582432Y-73979184D01*
X120647012Y-74008678D01*
G37*
G04 #@! TD.AperFunction*
G04 #@! TA.AperFunction,Conductor*
G36*
X94470051Y-63166142D02*
G01*
X94516544Y-63219798D01*
X94527930Y-63272140D01*
X94527930Y-64601224D01*
X94532405Y-64616463D01*
X94533795Y-64617668D01*
X94541478Y-64619339D01*
X94674199Y-64619339D01*
X94681020Y-64618969D01*
X94731882Y-64613445D01*
X94747134Y-64609819D01*
X94875992Y-64561512D01*
X94876955Y-64564080D01*
X94932479Y-64551930D01*
X94971561Y-64563406D01*
X94972105Y-64561955D01*
X95073074Y-64599807D01*
X95129838Y-64642449D01*
X95154538Y-64709011D01*
X95139330Y-64778359D01*
X95112603Y-64811761D01*
X95107159Y-64815503D01*
X95102101Y-64821180D01*
X95065705Y-64862030D01*
X95060724Y-64867306D01*
X94043467Y-65884563D01*
X93980569Y-65918715D01*
X93827712Y-65951206D01*
X93821682Y-65953891D01*
X93821681Y-65953891D01*
X93659278Y-66026197D01*
X93659276Y-66026198D01*
X93653248Y-66028882D01*
X93647907Y-66032762D01*
X93647906Y-66032763D01*
X93625766Y-66048849D01*
X93498747Y-66141134D01*
X93494326Y-66146044D01*
X93494325Y-66146045D01*
X93376217Y-66277218D01*
X93370960Y-66283056D01*
X93325035Y-66362600D01*
X93283069Y-66435288D01*
X93275473Y-66448444D01*
X93216458Y-66630072D01*
X93215768Y-66636633D01*
X93215768Y-66636635D01*
X93199939Y-66787237D01*
X93196496Y-66820000D01*
X93197186Y-66826565D01*
X93214962Y-66995691D01*
X93216458Y-67009928D01*
X93275473Y-67191556D01*
X93278776Y-67197278D01*
X93278777Y-67197279D01*
X93301887Y-67237306D01*
X93370960Y-67356944D01*
X93375378Y-67361851D01*
X93375379Y-67361852D01*
X93484061Y-67482556D01*
X93498747Y-67498866D01*
X93653248Y-67611118D01*
X93659276Y-67613802D01*
X93659278Y-67613803D01*
X93759169Y-67658277D01*
X93827712Y-67688794D01*
X93921112Y-67708647D01*
X94008056Y-67727128D01*
X94008061Y-67727128D01*
X94014513Y-67728500D01*
X94205487Y-67728500D01*
X94211939Y-67727128D01*
X94211944Y-67727128D01*
X94298888Y-67708647D01*
X94392288Y-67688794D01*
X94460831Y-67658277D01*
X94560722Y-67613803D01*
X94560724Y-67613802D01*
X94566752Y-67611118D01*
X94721253Y-67498866D01*
X94735939Y-67482556D01*
X94844621Y-67361852D01*
X94844622Y-67361851D01*
X94849040Y-67356944D01*
X94874062Y-67313605D01*
X94925444Y-67264613D01*
X94995158Y-67251178D01*
X95061069Y-67277565D01*
X95076811Y-67292291D01*
X95118747Y-67338866D01*
X95273248Y-67451118D01*
X95279276Y-67453802D01*
X95279278Y-67453803D01*
X95441681Y-67526109D01*
X95447712Y-67528794D01*
X95541113Y-67548647D01*
X95628056Y-67567128D01*
X95628061Y-67567128D01*
X95634513Y-67568500D01*
X95729850Y-67568500D01*
X95797971Y-67588502D01*
X95844464Y-67642158D01*
X95855850Y-67694500D01*
X95855850Y-68355554D01*
X95862605Y-68417736D01*
X95865379Y-68425135D01*
X95913735Y-68554125D01*
X95911256Y-68555054D01*
X95923469Y-68610920D01*
X95912168Y-68649408D01*
X95913735Y-68649995D01*
X95862605Y-68786384D01*
X95855850Y-68848566D01*
X95855850Y-69656034D01*
X95862605Y-69718216D01*
X95902000Y-69823303D01*
X95913735Y-69854605D01*
X95910481Y-69855825D01*
X95922081Y-69908834D01*
X95911582Y-69944588D01*
X95913735Y-69945395D01*
X95862605Y-70081784D01*
X95855850Y-70143966D01*
X95855850Y-70951434D01*
X95862605Y-71013616D01*
X95874642Y-71045725D01*
X95913735Y-71150005D01*
X95911256Y-71150934D01*
X95923469Y-71206800D01*
X95912168Y-71245288D01*
X95913735Y-71245875D01*
X95862605Y-71382264D01*
X95855850Y-71444446D01*
X95855850Y-72251914D01*
X95862605Y-72314096D01*
X95903738Y-72423817D01*
X95913735Y-72450485D01*
X95911256Y-72451414D01*
X95923469Y-72507280D01*
X95912168Y-72545768D01*
X95913735Y-72546355D01*
X95862605Y-72682744D01*
X95855850Y-72744926D01*
X95855850Y-73552394D01*
X95862605Y-73614576D01*
X95900631Y-73716011D01*
X95913735Y-73750965D01*
X95911413Y-73751835D01*
X95923760Y-73808262D01*
X95912542Y-73846465D01*
X95914178Y-73847078D01*
X95865872Y-73975934D01*
X95862245Y-73991189D01*
X95856719Y-74042054D01*
X95856350Y-74048868D01*
X95856350Y-74177025D01*
X95860825Y-74192264D01*
X95862215Y-74193469D01*
X95869898Y-74195140D01*
X98276634Y-74195140D01*
X98291873Y-74190665D01*
X98293078Y-74189275D01*
X98294749Y-74181592D01*
X98294749Y-74048871D01*
X98294379Y-74042050D01*
X98288855Y-73991188D01*
X98285229Y-73975936D01*
X98236922Y-73847078D01*
X98239490Y-73846115D01*
X98227340Y-73790591D01*
X98238816Y-73751509D01*
X98237365Y-73750965D01*
X98250469Y-73716011D01*
X98288495Y-73614576D01*
X98295250Y-73552394D01*
X98295250Y-72744926D01*
X98288495Y-72682744D01*
X98237365Y-72546355D01*
X98239844Y-72545426D01*
X98227631Y-72489560D01*
X98238932Y-72451072D01*
X98237365Y-72450485D01*
X98247362Y-72423817D01*
X98288495Y-72314096D01*
X98295250Y-72251914D01*
X98295250Y-71444446D01*
X98288495Y-71382264D01*
X98237365Y-71245875D01*
X98239844Y-71244946D01*
X98227631Y-71189080D01*
X98238932Y-71150592D01*
X98237365Y-71150005D01*
X98259639Y-71090590D01*
X98302281Y-71033826D01*
X98368843Y-71009126D01*
X98438191Y-71024334D01*
X98466716Y-71045725D01*
X98879595Y-71458604D01*
X98913621Y-71520916D01*
X98916500Y-71547699D01*
X98916500Y-72698134D01*
X98923255Y-72760316D01*
X98974385Y-72896705D01*
X99061739Y-73013261D01*
X99178295Y-73100615D01*
X99314684Y-73151745D01*
X99376866Y-73158500D01*
X101173134Y-73158500D01*
X101235316Y-73151745D01*
X101371705Y-73100615D01*
X101488261Y-73013261D01*
X101575615Y-72896705D01*
X101590430Y-72857186D01*
X101619598Y-72779382D01*
X101662240Y-72722618D01*
X101728802Y-72697918D01*
X101798150Y-72713126D01*
X101832817Y-72741114D01*
X101861250Y-72773938D01*
X102033126Y-72916632D01*
X102226000Y-73029338D01*
X102434692Y-73109030D01*
X102439760Y-73110061D01*
X102439763Y-73110062D01*
X102530114Y-73128444D01*
X102653597Y-73153567D01*
X102658772Y-73153757D01*
X102658774Y-73153757D01*
X102871673Y-73161564D01*
X102871677Y-73161564D01*
X102876837Y-73161753D01*
X102881957Y-73161097D01*
X102881959Y-73161097D01*
X103093288Y-73134025D01*
X103093289Y-73134025D01*
X103098416Y-73133368D01*
X103103366Y-73131883D01*
X103307429Y-73070661D01*
X103307434Y-73070659D01*
X103312384Y-73069174D01*
X103512994Y-72970896D01*
X103694860Y-72841173D01*
X103730509Y-72805649D01*
X103791147Y-72745222D01*
X103853096Y-72683489D01*
X103875595Y-72652179D01*
X103983453Y-72502077D01*
X103984776Y-72503028D01*
X104031645Y-72459857D01*
X104101580Y-72447625D01*
X104167026Y-72475144D01*
X104194875Y-72506994D01*
X104254987Y-72605088D01*
X104401250Y-72773938D01*
X104573126Y-72916632D01*
X104766000Y-73029338D01*
X104974692Y-73109030D01*
X104979760Y-73110061D01*
X104979763Y-73110062D01*
X105070114Y-73128444D01*
X105193597Y-73153567D01*
X105198772Y-73153757D01*
X105198774Y-73153757D01*
X105411673Y-73161564D01*
X105411677Y-73161564D01*
X105416837Y-73161753D01*
X105421957Y-73161097D01*
X105421959Y-73161097D01*
X105633288Y-73134025D01*
X105633289Y-73134025D01*
X105638416Y-73133368D01*
X105643366Y-73131883D01*
X105847429Y-73070661D01*
X105847434Y-73070659D01*
X105852384Y-73069174D01*
X106052994Y-72970896D01*
X106234860Y-72841173D01*
X106270509Y-72805649D01*
X106331147Y-72745222D01*
X106393096Y-72683489D01*
X106415595Y-72652179D01*
X106523453Y-72502077D01*
X106524776Y-72503028D01*
X106571645Y-72459857D01*
X106641580Y-72447625D01*
X106707026Y-72475144D01*
X106734875Y-72506994D01*
X106794987Y-72605088D01*
X106941250Y-72773938D01*
X107113126Y-72916632D01*
X107306000Y-73029338D01*
X107514692Y-73109030D01*
X107519760Y-73110061D01*
X107519763Y-73110062D01*
X107610114Y-73128444D01*
X107733597Y-73153567D01*
X107738772Y-73153757D01*
X107738774Y-73153757D01*
X107951673Y-73161564D01*
X107951677Y-73161564D01*
X107956837Y-73161753D01*
X107961957Y-73161097D01*
X107961959Y-73161097D01*
X108173288Y-73134025D01*
X108173289Y-73134025D01*
X108178416Y-73133368D01*
X108183366Y-73131883D01*
X108387429Y-73070661D01*
X108387434Y-73070659D01*
X108392384Y-73069174D01*
X108592994Y-72970896D01*
X108774860Y-72841173D01*
X108810509Y-72805649D01*
X108871147Y-72745222D01*
X108933096Y-72683489D01*
X108955595Y-72652179D01*
X109063453Y-72502077D01*
X109064640Y-72502930D01*
X109111960Y-72459362D01*
X109181897Y-72447145D01*
X109247338Y-72474678D01*
X109275166Y-72506511D01*
X109332694Y-72600388D01*
X109338777Y-72608699D01*
X109478213Y-72769667D01*
X109485580Y-72776883D01*
X109649434Y-72912916D01*
X109657881Y-72918831D01*
X109841756Y-73026279D01*
X109851042Y-73030729D01*
X110050001Y-73106703D01*
X110059906Y-73109581D01*
X110080622Y-73113796D01*
X110143387Y-73146978D01*
X110178248Y-73208826D01*
X110181500Y-73237266D01*
X110181500Y-73936643D01*
X110176497Y-73971796D01*
X110174351Y-73979184D01*
X110164371Y-74013534D01*
X110163867Y-74019941D01*
X110163866Y-74019945D01*
X110162126Y-74042054D01*
X110161500Y-74050011D01*
X110161501Y-74549988D01*
X110164371Y-74586466D01*
X110177411Y-74631351D01*
X110205411Y-74727725D01*
X110209731Y-74742596D01*
X110210264Y-74743498D01*
X110218586Y-74810920D01*
X110187809Y-74874899D01*
X110127328Y-74912081D01*
X110094252Y-74916500D01*
X109684759Y-74916501D01*
X109668366Y-74916501D01*
X109665508Y-74916764D01*
X109665499Y-74916764D01*
X109629996Y-74920026D01*
X109594938Y-74923247D01*
X109588560Y-74925246D01*
X109588559Y-74925246D01*
X109438550Y-74972256D01*
X109438548Y-74972257D01*
X109431301Y-74974528D01*
X109284619Y-75063361D01*
X109243385Y-75104595D01*
X109181073Y-75138621D01*
X109154290Y-75141500D01*
X108859491Y-75141500D01*
X108791370Y-75121498D01*
X108744877Y-75067842D01*
X108734773Y-74997568D01*
X108748445Y-74955961D01*
X108752292Y-74948788D01*
X108753760Y-74946129D01*
X108792721Y-74877545D01*
X108792722Y-74877543D01*
X108795769Y-74872179D01*
X108797716Y-74866324D01*
X108800219Y-74860703D01*
X108800505Y-74860830D01*
X108800569Y-74860681D01*
X108800280Y-74860561D01*
X108802649Y-74854870D01*
X108805562Y-74849437D01*
X108830419Y-74768133D01*
X108831347Y-74765226D01*
X108833585Y-74758500D01*
X108858197Y-74684513D01*
X108858970Y-74678398D01*
X108860335Y-74672390D01*
X108860638Y-74672459D01*
X108860674Y-74672292D01*
X108860368Y-74672230D01*
X108861584Y-74666200D01*
X108863387Y-74660302D01*
X108864898Y-74645424D01*
X108871978Y-74575732D01*
X108872326Y-74572675D01*
X108882545Y-74491776D01*
X108882985Y-74488295D01*
X108883324Y-74464033D01*
X108883374Y-74463538D01*
X108883336Y-74463138D01*
X108883380Y-74460000D01*
X108874623Y-74370689D01*
X108873920Y-74363517D01*
X108873878Y-74363080D01*
X108865318Y-74272526D01*
X108865317Y-74272522D01*
X108864761Y-74266638D01*
X108864253Y-74264935D01*
X108864080Y-74263167D01*
X108862375Y-74257521D01*
X108862374Y-74257514D01*
X108836154Y-74170669D01*
X108836027Y-74170249D01*
X108809937Y-74082732D01*
X108809936Y-74082730D01*
X108808259Y-74077104D01*
X108807429Y-74075529D01*
X108806916Y-74073831D01*
X108761323Y-73988083D01*
X108716018Y-73902154D01*
X108714901Y-73900775D01*
X108714066Y-73899204D01*
X108652587Y-73823823D01*
X108639986Y-73808262D01*
X108595253Y-73753021D01*
X108595248Y-73753016D01*
X108591553Y-73748453D01*
X108590190Y-73747317D01*
X108589065Y-73745938D01*
X108514080Y-73683905D01*
X108439604Y-73621854D01*
X108438047Y-73621005D01*
X108436675Y-73619870D01*
X108351160Y-73573632D01*
X108312208Y-73552394D01*
X108271104Y-73529983D01*
X108271102Y-73529982D01*
X108265959Y-73527178D01*
X108264263Y-73526646D01*
X108262701Y-73525802D01*
X108205808Y-73508191D01*
X108170163Y-73497157D01*
X108169743Y-73497026D01*
X108111283Y-73478706D01*
X108077232Y-73468035D01*
X108075464Y-73467843D01*
X108073768Y-73467318D01*
X108067917Y-73466703D01*
X108067912Y-73466702D01*
X108000971Y-73459667D01*
X107977219Y-73457170D01*
X107977056Y-73457152D01*
X107880611Y-73446676D01*
X107878842Y-73446831D01*
X107877075Y-73446645D01*
X107871196Y-73447180D01*
X107780824Y-73455404D01*
X107780387Y-73455444D01*
X107689448Y-73463400D01*
X107689446Y-73463400D01*
X107683587Y-73463913D01*
X107681879Y-73464409D01*
X107680112Y-73464570D01*
X107674479Y-73466228D01*
X107674478Y-73466228D01*
X107604366Y-73486863D01*
X107568791Y-73491989D01*
X101673861Y-73491989D01*
X101660253Y-73491252D01*
X101628748Y-73487829D01*
X101628744Y-73487829D01*
X101622623Y-73487164D01*
X101616484Y-73487701D01*
X101616480Y-73487701D01*
X101572600Y-73491540D01*
X101567763Y-73491870D01*
X101565325Y-73491989D01*
X101562242Y-73491989D01*
X101559185Y-73492289D01*
X101559180Y-73492289D01*
X101519591Y-73496171D01*
X101518276Y-73496293D01*
X101431734Y-73503864D01*
X101431732Y-73503864D01*
X101425598Y-73504401D01*
X101420474Y-73505890D01*
X101415178Y-73506409D01*
X101326183Y-73533278D01*
X101325096Y-73533600D01*
X101235675Y-73559580D01*
X101230943Y-73562033D01*
X101225842Y-73563573D01*
X101220411Y-73566461D01*
X101220403Y-73566464D01*
X101143691Y-73607252D01*
X101142525Y-73607864D01*
X101117174Y-73621005D01*
X101060086Y-73650597D01*
X101055925Y-73653919D01*
X101051215Y-73656423D01*
X100981603Y-73713198D01*
X100979170Y-73715182D01*
X100978142Y-73716011D01*
X100951598Y-73737201D01*
X100939039Y-73747227D01*
X100936543Y-73749723D01*
X100935825Y-73750365D01*
X100931473Y-73754082D01*
X100897949Y-73781424D01*
X100894026Y-73786166D01*
X100894024Y-73786168D01*
X100868714Y-73816762D01*
X100860724Y-73825542D01*
X99731671Y-74954595D01*
X99669359Y-74988621D01*
X99642576Y-74991500D01*
X99599600Y-74991500D01*
X99596354Y-74991837D01*
X99596350Y-74991837D01*
X99500692Y-75001762D01*
X99500688Y-75001763D01*
X99493834Y-75002474D01*
X99487298Y-75004655D01*
X99487296Y-75004655D01*
X99386708Y-75038214D01*
X99326054Y-75058450D01*
X99175652Y-75151522D01*
X99170479Y-75156704D01*
X99088862Y-75238463D01*
X99026579Y-75272542D01*
X98955759Y-75267539D01*
X98910671Y-75238618D01*
X98828171Y-75156261D01*
X98816760Y-75147249D01*
X98678757Y-75062184D01*
X98665576Y-75056037D01*
X98511290Y-75004862D01*
X98497914Y-75001995D01*
X98407072Y-74992687D01*
X98341345Y-74965846D01*
X98300563Y-74907730D01*
X98295292Y-74859682D01*
X98294197Y-74859623D01*
X98294750Y-74849412D01*
X98294750Y-74721255D01*
X98290275Y-74706016D01*
X98288885Y-74704811D01*
X98281202Y-74703140D01*
X97347665Y-74703140D01*
X97332426Y-74707615D01*
X97331221Y-74709005D01*
X97329550Y-74716688D01*
X97329550Y-75226740D01*
X97309548Y-75294861D01*
X97255892Y-75341354D01*
X97203550Y-75352740D01*
X97197524Y-75352740D01*
X97178249Y-75358400D01*
X97171987Y-75364781D01*
X97137184Y-75421243D01*
X97131037Y-75434424D01*
X97079862Y-75588710D01*
X97076995Y-75602086D01*
X97067328Y-75696438D01*
X97067000Y-75702855D01*
X97067000Y-75927885D01*
X97071475Y-75943124D01*
X97072865Y-75944329D01*
X97080548Y-75946000D01*
X98215500Y-75946000D01*
X98283621Y-75966002D01*
X98330114Y-76019658D01*
X98341500Y-76072000D01*
X98341500Y-77389884D01*
X98345975Y-77405123D01*
X98347365Y-77406328D01*
X98355048Y-77407999D01*
X98397095Y-77407999D01*
X98403614Y-77407662D01*
X98499206Y-77397743D01*
X98512600Y-77394851D01*
X98666784Y-77343412D01*
X98679962Y-77337239D01*
X98817807Y-77251937D01*
X98829208Y-77242901D01*
X98910430Y-77161538D01*
X98972713Y-77127459D01*
X99043533Y-77132462D01*
X99088620Y-77161383D01*
X99171512Y-77244130D01*
X99171517Y-77244134D01*
X99176697Y-77249305D01*
X99182927Y-77253145D01*
X99182928Y-77253146D01*
X99320288Y-77337816D01*
X99327262Y-77342115D01*
X99374446Y-77357765D01*
X99488611Y-77395632D01*
X99488613Y-77395632D01*
X99495139Y-77397797D01*
X99501975Y-77398497D01*
X99501978Y-77398498D01*
X99545031Y-77402909D01*
X99599600Y-77408500D01*
X100198000Y-77408500D01*
X100266121Y-77428502D01*
X100312614Y-77482158D01*
X100324000Y-77534500D01*
X100324000Y-78124769D01*
X100324300Y-78127825D01*
X100324300Y-78127832D01*
X100324737Y-78132285D01*
X100338420Y-78271833D01*
X100340202Y-78277734D01*
X100340202Y-78277736D01*
X100343623Y-78289066D01*
X100349001Y-78325484D01*
X100349001Y-78331634D01*
X100349264Y-78334492D01*
X100349264Y-78334501D01*
X100349871Y-78341109D01*
X100355747Y-78405062D01*
X100357746Y-78411440D01*
X100357746Y-78411441D01*
X100379908Y-78482158D01*
X100407028Y-78568699D01*
X100495861Y-78715381D01*
X100591385Y-78810905D01*
X100625411Y-78873217D01*
X100620346Y-78944032D01*
X100591385Y-78989095D01*
X100495861Y-79084619D01*
X100407028Y-79231301D01*
X100404757Y-79238548D01*
X100404756Y-79238550D01*
X100391781Y-79279953D01*
X100355747Y-79394938D01*
X100349000Y-79468365D01*
X100349000Y-80567530D01*
X100328998Y-80635651D01*
X100312172Y-80656549D01*
X100306883Y-80661847D01*
X100214839Y-80811171D01*
X100212534Y-80818119D01*
X100212534Y-80818120D01*
X100164707Y-80962314D01*
X100159615Y-80977665D01*
X100149000Y-81081269D01*
X100149001Y-81668730D01*
X100159884Y-81773629D01*
X100162063Y-81780160D01*
X100162064Y-81780165D01*
X100199698Y-81892966D01*
X100215398Y-81940026D01*
X100229456Y-81962744D01*
X100282955Y-82049197D01*
X100301793Y-82117649D01*
X100280632Y-82185419D01*
X100226191Y-82230990D01*
X100175811Y-82241500D01*
X98709873Y-82241500D01*
X98696703Y-82240810D01*
X98686703Y-82239759D01*
X98621046Y-82212746D01*
X98610778Y-82203544D01*
X98169405Y-81762171D01*
X98135379Y-81699859D01*
X98132500Y-81673076D01*
X98132500Y-80894866D01*
X98125745Y-80832684D01*
X98074615Y-80696295D01*
X97987261Y-80579739D01*
X97870705Y-80492385D01*
X97751687Y-80447767D01*
X97694923Y-80405125D01*
X97670223Y-80338564D01*
X97685430Y-80269215D01*
X97706977Y-80240535D01*
X97808052Y-80139812D01*
X97814730Y-80131965D01*
X97939003Y-79959020D01*
X97944313Y-79950183D01*
X98038670Y-79759267D01*
X98042469Y-79749672D01*
X98104377Y-79545910D01*
X98106555Y-79535837D01*
X98107986Y-79524962D01*
X98105775Y-79510778D01*
X98092617Y-79507000D01*
X95457225Y-79507000D01*
X95443694Y-79510973D01*
X95442257Y-79520966D01*
X95472565Y-79655446D01*
X95475645Y-79665275D01*
X95555770Y-79862603D01*
X95560413Y-79871794D01*
X95671694Y-80053388D01*
X95677777Y-80061699D01*
X95817213Y-80222667D01*
X95824577Y-80229879D01*
X95829522Y-80233985D01*
X95869156Y-80292889D01*
X95870653Y-80363870D01*
X95833537Y-80424392D01*
X95793264Y-80448910D01*
X95685705Y-80489232D01*
X95685704Y-80489233D01*
X95677295Y-80492385D01*
X95560739Y-80579739D01*
X95473385Y-80696295D01*
X95422255Y-80832684D01*
X95415500Y-80894866D01*
X95415500Y-82691134D01*
X95422255Y-82753316D01*
X95473385Y-82889705D01*
X95560739Y-83006261D01*
X95677295Y-83093615D01*
X95813684Y-83144745D01*
X95875866Y-83151500D01*
X96654074Y-83151500D01*
X96722195Y-83171502D01*
X96743169Y-83188404D01*
X97474149Y-83919383D01*
X97483251Y-83929527D01*
X97506968Y-83959025D01*
X97528062Y-83976725D01*
X97545421Y-83991291D01*
X97549069Y-83994472D01*
X97550881Y-83996115D01*
X97553075Y-83998309D01*
X97586349Y-84025642D01*
X97587147Y-84026304D01*
X97658474Y-84086154D01*
X97663144Y-84088722D01*
X97667261Y-84092103D01*
X97720828Y-84120825D01*
X97749086Y-84135977D01*
X97750245Y-84136606D01*
X97826381Y-84178462D01*
X97826389Y-84178465D01*
X97831787Y-84181433D01*
X97836869Y-84183045D01*
X97841563Y-84185562D01*
X97930531Y-84212762D01*
X97931559Y-84213082D01*
X98020306Y-84241235D01*
X98025602Y-84241829D01*
X98029271Y-84242951D01*
X98029394Y-84243017D01*
X98030006Y-84243175D01*
X98030698Y-84243387D01*
X98030699Y-84243387D01*
X98030738Y-84243399D01*
X98030648Y-84243694D01*
X98090451Y-84275969D01*
X98124781Y-84338114D01*
X98120063Y-84408954D01*
X98077795Y-84465997D01*
X98011397Y-84491133D01*
X98001793Y-84491500D01*
X89165821Y-84491500D01*
X89097700Y-84471498D01*
X89051207Y-84417842D01*
X89041103Y-84347568D01*
X89070597Y-84282988D01*
X89121592Y-84247518D01*
X89238295Y-84203768D01*
X89238296Y-84203767D01*
X89246705Y-84200615D01*
X89363261Y-84113261D01*
X89450615Y-83996705D01*
X89501745Y-83860316D01*
X89508500Y-83798134D01*
X89508500Y-83509595D01*
X91692001Y-83509595D01*
X91692338Y-83516114D01*
X91702257Y-83611706D01*
X91705149Y-83625100D01*
X91756588Y-83779284D01*
X91762761Y-83792462D01*
X91848063Y-83930307D01*
X91857099Y-83941708D01*
X91971829Y-84056239D01*
X91983240Y-84065251D01*
X92121243Y-84150316D01*
X92134424Y-84156463D01*
X92288710Y-84207638D01*
X92302086Y-84210505D01*
X92396438Y-84220172D01*
X92402854Y-84220500D01*
X92627885Y-84220500D01*
X92643124Y-84216025D01*
X92644329Y-84214635D01*
X92646000Y-84206952D01*
X92646000Y-84202384D01*
X93154000Y-84202384D01*
X93158475Y-84217623D01*
X93159865Y-84218828D01*
X93167548Y-84220499D01*
X93397095Y-84220499D01*
X93403614Y-84220162D01*
X93499206Y-84210243D01*
X93512600Y-84207351D01*
X93666784Y-84155912D01*
X93679962Y-84149739D01*
X93817807Y-84064437D01*
X93829208Y-84055401D01*
X93943739Y-83940671D01*
X93952751Y-83929260D01*
X94037816Y-83791257D01*
X94043963Y-83778076D01*
X94095138Y-83623790D01*
X94098005Y-83610414D01*
X94107672Y-83516062D01*
X94108000Y-83509646D01*
X94108000Y-83472115D01*
X94103525Y-83456876D01*
X94102135Y-83455671D01*
X94094452Y-83454000D01*
X93172115Y-83454000D01*
X93156876Y-83458475D01*
X93155671Y-83459865D01*
X93154000Y-83467548D01*
X93154000Y-84202384D01*
X92646000Y-84202384D01*
X92646000Y-83472115D01*
X92641525Y-83456876D01*
X92640135Y-83455671D01*
X92632452Y-83454000D01*
X91710116Y-83454000D01*
X91694877Y-83458475D01*
X91693672Y-83459865D01*
X91692001Y-83467548D01*
X91692001Y-83509595D01*
X89508500Y-83509595D01*
X89508500Y-82651866D01*
X89501745Y-82589684D01*
X89450615Y-82453295D01*
X89363261Y-82336739D01*
X89246705Y-82249385D01*
X89110316Y-82198255D01*
X89048134Y-82191500D01*
X88091371Y-82191500D01*
X88023250Y-82171498D01*
X88002276Y-82154595D01*
X87671765Y-81824084D01*
X87637739Y-81761772D01*
X87642804Y-81690957D01*
X87685351Y-81634121D01*
X87751871Y-81609310D01*
X87760860Y-81608989D01*
X89869941Y-81608989D01*
X89888891Y-81610422D01*
X89903126Y-81612588D01*
X89903130Y-81612588D01*
X89910360Y-81613688D01*
X89917652Y-81613095D01*
X89917655Y-81613095D01*
X89963029Y-81609404D01*
X89973244Y-81608989D01*
X89981304Y-81608989D01*
X89994594Y-81607440D01*
X90009518Y-81605700D01*
X90013893Y-81605267D01*
X90079350Y-81599943D01*
X90079353Y-81599942D01*
X90086648Y-81599349D01*
X90093612Y-81597093D01*
X90099571Y-81595902D01*
X90105426Y-81594518D01*
X90112692Y-81593671D01*
X90181338Y-81568754D01*
X90185466Y-81567337D01*
X90247947Y-81547096D01*
X90247949Y-81547095D01*
X90254910Y-81544840D01*
X90261165Y-81541044D01*
X90266639Y-81538538D01*
X90272069Y-81535819D01*
X90278948Y-81533322D01*
X90291972Y-81524783D01*
X90339987Y-81493303D01*
X90343691Y-81490966D01*
X90406118Y-81453084D01*
X90414495Y-81445686D01*
X90414519Y-81445713D01*
X90417511Y-81443060D01*
X90420744Y-81440357D01*
X90426863Y-81436345D01*
X90480139Y-81380106D01*
X90482517Y-81377664D01*
X91564776Y-80295405D01*
X91627088Y-80261379D01*
X91653871Y-80258500D01*
X91945511Y-80258500D01*
X92013632Y-80278502D01*
X92060125Y-80332158D01*
X92070229Y-80402432D01*
X92040735Y-80467012D01*
X92011817Y-80491642D01*
X91975652Y-80514022D01*
X91850695Y-80639197D01*
X91846855Y-80645427D01*
X91846854Y-80645428D01*
X91767560Y-80774067D01*
X91757885Y-80789762D01*
X91742770Y-80835333D01*
X91706484Y-80944733D01*
X91702203Y-80957639D01*
X91701503Y-80964475D01*
X91701502Y-80964478D01*
X91701352Y-80965946D01*
X91691500Y-81062100D01*
X91691500Y-81687900D01*
X91691837Y-81691146D01*
X91691837Y-81691150D01*
X91701606Y-81785296D01*
X91702474Y-81793666D01*
X91704655Y-81800202D01*
X91704655Y-81800204D01*
X91743738Y-81917350D01*
X91758450Y-81961446D01*
X91851522Y-82111848D01*
X91856704Y-82117021D01*
X91938463Y-82198638D01*
X91972542Y-82260921D01*
X91967539Y-82331741D01*
X91938618Y-82376829D01*
X91856261Y-82459329D01*
X91847249Y-82470740D01*
X91762184Y-82608743D01*
X91756037Y-82621924D01*
X91704862Y-82776210D01*
X91701995Y-82789586D01*
X91692328Y-82883938D01*
X91692000Y-82890355D01*
X91692000Y-82927885D01*
X91696475Y-82943124D01*
X91697865Y-82944329D01*
X91705548Y-82946000D01*
X94089884Y-82946000D01*
X94105123Y-82941525D01*
X94106328Y-82940135D01*
X94107999Y-82932452D01*
X94107999Y-82890405D01*
X94107662Y-82883886D01*
X94097743Y-82788294D01*
X94094851Y-82774900D01*
X94043412Y-82620716D01*
X94037239Y-82607538D01*
X93951937Y-82469693D01*
X93942901Y-82458292D01*
X93861538Y-82377070D01*
X93827459Y-82314787D01*
X93832462Y-82243967D01*
X93861383Y-82198880D01*
X93944130Y-82115988D01*
X93944134Y-82115983D01*
X93949305Y-82110803D01*
X93975568Y-82068197D01*
X94038275Y-81966468D01*
X94038276Y-81966466D01*
X94042115Y-81960238D01*
X94080774Y-81843683D01*
X94095632Y-81798889D01*
X94095632Y-81798887D01*
X94097797Y-81792361D01*
X94098562Y-81784901D01*
X94104456Y-81727369D01*
X94108500Y-81687900D01*
X94108500Y-81288715D01*
X94128502Y-81220594D01*
X94135683Y-81210541D01*
X94147779Y-81195251D01*
X94150572Y-81191845D01*
X94193091Y-81141797D01*
X94193092Y-81141795D01*
X94197833Y-81136215D01*
X94201161Y-81129699D01*
X94204520Y-81124662D01*
X94207694Y-81119523D01*
X94212234Y-81113784D01*
X94243136Y-81047663D01*
X94245069Y-81043709D01*
X94249049Y-81035915D01*
X94278269Y-80978692D01*
X94280010Y-80971576D01*
X94282104Y-80965946D01*
X94284023Y-80960179D01*
X94287121Y-80953550D01*
X94289845Y-80940457D01*
X94301982Y-80882104D01*
X94302953Y-80877815D01*
X94311425Y-80843193D01*
X94320308Y-80806890D01*
X94321000Y-80795736D01*
X94321036Y-80795738D01*
X94321275Y-80791748D01*
X94321650Y-80787550D01*
X94323140Y-80780385D01*
X94321046Y-80702979D01*
X94321000Y-80699572D01*
X94321000Y-80128915D01*
X94341002Y-80060794D01*
X94357827Y-80039897D01*
X94419134Y-79978483D01*
X94424305Y-79973303D01*
X94428146Y-79967072D01*
X94513275Y-79828968D01*
X94513276Y-79828966D01*
X94517115Y-79822738D01*
X94555622Y-79706643D01*
X94570632Y-79661389D01*
X94570632Y-79661387D01*
X94572797Y-79654861D01*
X94573550Y-79647519D01*
X94579289Y-79591500D01*
X94583500Y-79550400D01*
X94583500Y-79153871D01*
X94603502Y-79085750D01*
X94620405Y-79064776D01*
X94697998Y-78987183D01*
X95438389Y-78987183D01*
X95439912Y-78995607D01*
X95452292Y-78999000D01*
X96501885Y-78999000D01*
X96517124Y-78994525D01*
X96518329Y-78993135D01*
X96520000Y-78985452D01*
X96520000Y-78980885D01*
X97028000Y-78980885D01*
X97032475Y-78996124D01*
X97033865Y-78997329D01*
X97041548Y-78999000D01*
X98092344Y-78999000D01*
X98105875Y-78995027D01*
X98107180Y-78985947D01*
X98065214Y-78818875D01*
X98061894Y-78809124D01*
X97976972Y-78613814D01*
X97972105Y-78604739D01*
X97856426Y-78425926D01*
X97850136Y-78417757D01*
X97706806Y-78260240D01*
X97699273Y-78253215D01*
X97532139Y-78121222D01*
X97523552Y-78115517D01*
X97337117Y-78012599D01*
X97327705Y-78008369D01*
X97126959Y-77937280D01*
X97116988Y-77934646D01*
X97045837Y-77921972D01*
X97032540Y-77923432D01*
X97028000Y-77937989D01*
X97028000Y-78980885D01*
X96520000Y-78980885D01*
X96520000Y-77936102D01*
X96516082Y-77922758D01*
X96501806Y-77920771D01*
X96463324Y-77926660D01*
X96453288Y-77929051D01*
X96250868Y-77995212D01*
X96241359Y-77999209D01*
X96052463Y-78097542D01*
X96043738Y-78103036D01*
X95873433Y-78230905D01*
X95865726Y-78237748D01*
X95718590Y-78391717D01*
X95712104Y-78399727D01*
X95592098Y-78575649D01*
X95587000Y-78584623D01*
X95497338Y-78777783D01*
X95493775Y-78787470D01*
X95438389Y-78987183D01*
X94697998Y-78987183D01*
X96063321Y-77621860D01*
X96077732Y-77609475D01*
X96093263Y-77598045D01*
X96123718Y-77581543D01*
X96168305Y-77564828D01*
X96168306Y-77564827D01*
X96176715Y-77561675D01*
X96293271Y-77474321D01*
X96380625Y-77357765D01*
X96431755Y-77221376D01*
X96438510Y-77159194D01*
X96438510Y-76697095D01*
X97067001Y-76697095D01*
X97067338Y-76703614D01*
X97077257Y-76799206D01*
X97080149Y-76812600D01*
X97131588Y-76966784D01*
X97137761Y-76979962D01*
X97223063Y-77117807D01*
X97232099Y-77129208D01*
X97346829Y-77243739D01*
X97358240Y-77252751D01*
X97496243Y-77337816D01*
X97509424Y-77343963D01*
X97663710Y-77395138D01*
X97677086Y-77398005D01*
X97771438Y-77407672D01*
X97777854Y-77408000D01*
X97815385Y-77408000D01*
X97830624Y-77403525D01*
X97831829Y-77402135D01*
X97833500Y-77394452D01*
X97833500Y-76472115D01*
X97829025Y-76456876D01*
X97827635Y-76455671D01*
X97819952Y-76454000D01*
X97085116Y-76454000D01*
X97069877Y-76458475D01*
X97068672Y-76459865D01*
X97067001Y-76467548D01*
X97067001Y-76697095D01*
X96438510Y-76697095D01*
X96438510Y-75640526D01*
X96431755Y-75578344D01*
X96428983Y-75570948D01*
X96428981Y-75570942D01*
X96396001Y-75482969D01*
X96390818Y-75412162D01*
X96424739Y-75349793D01*
X96486994Y-75315664D01*
X96513983Y-75312740D01*
X96803435Y-75312739D01*
X96818674Y-75308264D01*
X96819879Y-75306874D01*
X96821550Y-75299191D01*
X96821550Y-74721255D01*
X96817075Y-74706016D01*
X96815685Y-74704811D01*
X96808002Y-74703140D01*
X95874466Y-74703140D01*
X95859227Y-74707615D01*
X95858022Y-74709005D01*
X95856351Y-74716688D01*
X95856351Y-74849409D01*
X95856721Y-74856230D01*
X95862245Y-74907092D01*
X95865871Y-74922343D01*
X95898706Y-75009930D01*
X95903889Y-75080737D01*
X95869968Y-75143106D01*
X95807713Y-75177236D01*
X95780724Y-75180160D01*
X95170676Y-75180160D01*
X95108494Y-75186915D01*
X94972105Y-75238045D01*
X94971176Y-75235566D01*
X94915310Y-75247779D01*
X94876822Y-75236478D01*
X94876235Y-75238045D01*
X94739846Y-75186915D01*
X94677664Y-75180160D01*
X93870196Y-75180160D01*
X93808014Y-75186915D01*
X93671625Y-75238045D01*
X93670551Y-75235180D01*
X93616106Y-75247085D01*
X93578992Y-75236187D01*
X93578295Y-75238045D01*
X93441906Y-75186915D01*
X93379724Y-75180160D01*
X92572256Y-75180160D01*
X92510074Y-75186915D01*
X92373685Y-75238045D01*
X92372756Y-75235566D01*
X92316890Y-75247779D01*
X92278402Y-75236478D01*
X92277815Y-75238045D01*
X92141426Y-75186915D01*
X92079244Y-75180160D01*
X91271776Y-75180160D01*
X91209594Y-75186915D01*
X91073205Y-75238045D01*
X91072276Y-75235566D01*
X91016410Y-75247779D01*
X90977922Y-75236478D01*
X90977335Y-75238045D01*
X90840946Y-75186915D01*
X90778764Y-75180160D01*
X89971296Y-75180160D01*
X89909114Y-75186915D01*
X89772725Y-75238045D01*
X89771796Y-75235566D01*
X89715930Y-75247779D01*
X89677442Y-75236478D01*
X89676855Y-75238045D01*
X89540466Y-75186915D01*
X89478284Y-75180160D01*
X88670816Y-75180160D01*
X88608634Y-75186915D01*
X88472245Y-75238045D01*
X88471316Y-75235566D01*
X88415450Y-75247779D01*
X88376962Y-75236478D01*
X88376375Y-75238045D01*
X88239986Y-75186915D01*
X88177804Y-75180160D01*
X87370336Y-75180160D01*
X87308154Y-75186915D01*
X87171765Y-75238045D01*
X87170691Y-75235180D01*
X87116246Y-75247085D01*
X87079132Y-75236187D01*
X87078435Y-75238045D01*
X86942046Y-75186915D01*
X86879864Y-75180160D01*
X86072396Y-75180160D01*
X86010214Y-75186915D01*
X85873825Y-75238045D01*
X85872896Y-75235566D01*
X85817030Y-75247779D01*
X85778542Y-75236478D01*
X85777955Y-75238045D01*
X85641566Y-75186915D01*
X85579384Y-75180160D01*
X84771916Y-75180160D01*
X84709734Y-75186915D01*
X84573345Y-75238045D01*
X84572416Y-75235566D01*
X84516550Y-75247779D01*
X84478062Y-75236478D01*
X84477475Y-75238045D01*
X84341086Y-75186915D01*
X84278904Y-75180160D01*
X83471436Y-75180160D01*
X83409254Y-75186915D01*
X83272865Y-75238045D01*
X83271791Y-75235180D01*
X83217346Y-75247085D01*
X83180232Y-75236187D01*
X83179535Y-75238045D01*
X83043146Y-75186915D01*
X82980964Y-75180160D01*
X82173496Y-75180160D01*
X82111314Y-75186915D01*
X81974925Y-75238045D01*
X81973996Y-75235566D01*
X81918130Y-75247779D01*
X81879642Y-75236478D01*
X81879055Y-75238045D01*
X81742666Y-75186915D01*
X81680484Y-75180160D01*
X81023996Y-75180160D01*
X80955875Y-75160158D01*
X80909382Y-75106502D01*
X80898686Y-75040990D01*
X80912814Y-74906565D01*
X80913504Y-74900000D01*
X80907111Y-74839174D01*
X80894232Y-74716635D01*
X80894232Y-74716633D01*
X80893542Y-74710072D01*
X80849146Y-74573436D01*
X80847118Y-74502469D01*
X80883781Y-74441671D01*
X80947493Y-74410345D01*
X80968979Y-74408500D01*
X80995487Y-74408500D01*
X81001939Y-74407128D01*
X81001944Y-74407128D01*
X81088887Y-74388647D01*
X81182288Y-74368794D01*
X81188319Y-74366109D01*
X81350722Y-74293803D01*
X81350724Y-74293802D01*
X81356752Y-74291118D01*
X81511253Y-74178866D01*
X81546208Y-74140045D01*
X81634621Y-74041852D01*
X81634622Y-74041851D01*
X81639040Y-74036944D01*
X81717700Y-73900702D01*
X81731223Y-73877279D01*
X81731224Y-73877278D01*
X81734527Y-73871556D01*
X81793542Y-73689928D01*
X81797064Y-73656423D01*
X81812814Y-73506565D01*
X81813504Y-73500000D01*
X81809954Y-73466228D01*
X81794232Y-73316635D01*
X81794232Y-73316633D01*
X81793542Y-73310072D01*
X81734527Y-73128444D01*
X81723637Y-73109581D01*
X81668026Y-73013261D01*
X81639040Y-72963056D01*
X81630701Y-72953794D01*
X81515675Y-72826045D01*
X81515674Y-72826044D01*
X81511253Y-72821134D01*
X81401117Y-72741115D01*
X81362094Y-72712763D01*
X81362093Y-72712762D01*
X81356752Y-72708882D01*
X81350724Y-72706198D01*
X81350722Y-72706197D01*
X81188319Y-72633891D01*
X81188318Y-72633891D01*
X81182288Y-72631206D01*
X81077771Y-72608990D01*
X81001944Y-72592872D01*
X81001939Y-72592872D01*
X80995487Y-72591500D01*
X80804513Y-72591500D01*
X80798061Y-72592872D01*
X80798056Y-72592872D01*
X80722229Y-72608990D01*
X80617712Y-72631206D01*
X80611682Y-72633891D01*
X80611681Y-72633891D01*
X80449278Y-72706197D01*
X80449276Y-72706198D01*
X80443248Y-72708882D01*
X80437909Y-72712761D01*
X80437902Y-72712765D01*
X80431472Y-72717437D01*
X80357413Y-72741500D01*
X79463619Y-72741500D01*
X79444669Y-72740067D01*
X79430434Y-72737901D01*
X79430430Y-72737901D01*
X79423200Y-72736801D01*
X79415908Y-72737394D01*
X79415905Y-72737394D01*
X79370531Y-72741085D01*
X79360316Y-72741500D01*
X79352256Y-72741500D01*
X79338966Y-72743049D01*
X79324042Y-72744789D01*
X79319667Y-72745222D01*
X79254210Y-72750546D01*
X79254207Y-72750547D01*
X79246912Y-72751140D01*
X79239948Y-72753396D01*
X79233989Y-72754587D01*
X79228134Y-72755971D01*
X79220868Y-72756818D01*
X79152222Y-72781735D01*
X79148094Y-72783152D01*
X79085613Y-72803393D01*
X79085611Y-72803394D01*
X79078650Y-72805649D01*
X79072395Y-72809445D01*
X79066921Y-72811951D01*
X79061491Y-72814670D01*
X79054612Y-72817167D01*
X79048492Y-72821180D01*
X79048491Y-72821180D01*
X78993573Y-72857186D01*
X78989869Y-72859523D01*
X78927442Y-72897405D01*
X78919065Y-72904803D01*
X78919041Y-72904776D01*
X78916049Y-72907429D01*
X78912816Y-72910132D01*
X78906697Y-72914144D01*
X78869136Y-72953794D01*
X78853421Y-72970383D01*
X78851043Y-72972825D01*
X78515159Y-73308709D01*
X78452847Y-73342735D01*
X78382032Y-73337670D01*
X78325196Y-73295123D01*
X78300385Y-73228603D01*
X78300085Y-73217323D01*
X78300240Y-73208826D01*
X78329220Y-71614918D01*
X78454154Y-64743549D01*
X78475391Y-64675804D01*
X78529883Y-64630294D01*
X78580133Y-64619840D01*
X79082064Y-64619840D01*
X79144246Y-64613085D01*
X79151642Y-64610313D01*
X79151648Y-64610311D01*
X79180112Y-64599640D01*
X79250919Y-64594457D01*
X79313288Y-64628378D01*
X79329713Y-64648537D01*
X79333456Y-64654246D01*
X79335793Y-64657950D01*
X79373675Y-64720377D01*
X79377391Y-64724585D01*
X79377392Y-64724586D01*
X79381073Y-64728754D01*
X79381046Y-64728778D01*
X79383699Y-64731770D01*
X79386402Y-64735003D01*
X79390414Y-64741122D01*
X79395726Y-64746154D01*
X79446653Y-64794398D01*
X79449095Y-64796776D01*
X86241230Y-71588911D01*
X86253616Y-71603323D01*
X86262149Y-71614918D01*
X86262154Y-71614923D01*
X86266492Y-71620818D01*
X86272070Y-71625557D01*
X86272073Y-71625560D01*
X86306768Y-71655035D01*
X86314284Y-71661965D01*
X86319979Y-71667660D01*
X86322861Y-71669940D01*
X86342251Y-71685281D01*
X86345655Y-71688072D01*
X86395703Y-71730591D01*
X86401285Y-71735333D01*
X86407801Y-71738661D01*
X86412850Y-71742028D01*
X86417979Y-71745195D01*
X86423716Y-71749734D01*
X86489875Y-71780655D01*
X86493769Y-71782558D01*
X86558808Y-71815769D01*
X86565917Y-71817508D01*
X86571551Y-71819604D01*
X86577321Y-71821523D01*
X86583950Y-71824622D01*
X86591113Y-71826112D01*
X86591116Y-71826113D01*
X86641830Y-71836661D01*
X86655435Y-71839491D01*
X86659701Y-71840457D01*
X86730610Y-71857808D01*
X86736212Y-71858156D01*
X86736215Y-71858156D01*
X86741764Y-71858500D01*
X86741762Y-71858535D01*
X86745734Y-71858775D01*
X86749955Y-71859152D01*
X86757115Y-71860641D01*
X86834542Y-71858546D01*
X86837950Y-71858500D01*
X92707413Y-71858500D01*
X92781472Y-71882563D01*
X92787902Y-71887235D01*
X92787909Y-71887239D01*
X92793248Y-71891118D01*
X92799276Y-71893802D01*
X92799278Y-71893803D01*
X92961681Y-71966109D01*
X92967712Y-71968794D01*
X93061112Y-71988647D01*
X93148056Y-72007128D01*
X93148061Y-72007128D01*
X93154513Y-72008500D01*
X93290989Y-72008500D01*
X93359110Y-72028502D01*
X93405603Y-72082158D01*
X93416989Y-72134500D01*
X93416989Y-72858419D01*
X93415556Y-72877369D01*
X93413894Y-72888297D01*
X93412290Y-72898838D01*
X93412883Y-72906130D01*
X93412883Y-72906133D01*
X93416574Y-72951507D01*
X93416989Y-72961722D01*
X93416989Y-72969782D01*
X93417414Y-72973426D01*
X93420278Y-72997996D01*
X93420711Y-73002371D01*
X93424549Y-73049551D01*
X93426629Y-73075126D01*
X93428885Y-73082090D01*
X93430076Y-73088049D01*
X93431460Y-73093904D01*
X93432307Y-73101170D01*
X93457224Y-73169816D01*
X93458641Y-73173944D01*
X93478678Y-73235793D01*
X93481138Y-73243388D01*
X93484934Y-73249644D01*
X93487436Y-73255108D01*
X93489980Y-73260189D01*
X93491062Y-73263889D01*
X93492342Y-73266561D01*
X93492656Y-73267426D01*
X93492659Y-73267433D01*
X93492152Y-73267617D01*
X93502621Y-73303424D01*
X93503793Y-73314570D01*
X93506458Y-73339928D01*
X93565473Y-73521556D01*
X93568776Y-73527278D01*
X93568777Y-73527279D01*
X93583277Y-73552394D01*
X93660960Y-73686944D01*
X93665378Y-73691851D01*
X93665379Y-73691852D01*
X93778004Y-73816935D01*
X93788747Y-73828866D01*
X93879262Y-73894629D01*
X93937089Y-73936643D01*
X93943248Y-73941118D01*
X93949276Y-73943802D01*
X93949278Y-73943803D01*
X94111681Y-74016109D01*
X94117712Y-74018794D01*
X94197629Y-74035781D01*
X94298056Y-74057128D01*
X94298061Y-74057128D01*
X94304513Y-74058500D01*
X94495487Y-74058500D01*
X94501939Y-74057128D01*
X94501944Y-74057128D01*
X94602371Y-74035781D01*
X94682288Y-74018794D01*
X94688319Y-74016109D01*
X94850722Y-73943803D01*
X94850724Y-73943802D01*
X94856752Y-73941118D01*
X94862912Y-73936643D01*
X94920738Y-73894629D01*
X95011253Y-73828866D01*
X95021996Y-73816935D01*
X95134621Y-73691852D01*
X95134622Y-73691851D01*
X95139040Y-73686944D01*
X95216723Y-73552394D01*
X95231223Y-73527279D01*
X95231224Y-73527278D01*
X95234527Y-73521556D01*
X95293542Y-73339928D01*
X95301162Y-73267433D01*
X95312814Y-73156565D01*
X95313504Y-73150000D01*
X95308372Y-73101170D01*
X95294232Y-72966635D01*
X95294232Y-72966633D01*
X95293542Y-72960072D01*
X95234527Y-72778444D01*
X95215244Y-72745044D01*
X95188035Y-72697918D01*
X95139040Y-72613056D01*
X95131308Y-72604468D01*
X95015675Y-72476045D01*
X95015674Y-72476044D01*
X95011253Y-72471134D01*
X94985926Y-72452733D01*
X94942574Y-72396511D01*
X94933989Y-72350798D01*
X94933989Y-70667559D01*
X94935422Y-70648609D01*
X94937588Y-70634374D01*
X94937588Y-70634370D01*
X94938688Y-70627140D01*
X94937943Y-70617973D01*
X94934404Y-70574471D01*
X94933989Y-70564256D01*
X94933989Y-70556196D01*
X94930700Y-70527982D01*
X94930267Y-70523607D01*
X94924943Y-70458150D01*
X94924942Y-70458147D01*
X94924349Y-70450852D01*
X94922093Y-70443888D01*
X94920902Y-70437929D01*
X94919518Y-70432074D01*
X94918671Y-70424808D01*
X94893754Y-70356162D01*
X94892337Y-70352034D01*
X94872096Y-70289553D01*
X94872095Y-70289551D01*
X94869840Y-70282590D01*
X94866044Y-70276335D01*
X94863538Y-70270861D01*
X94860819Y-70265431D01*
X94858322Y-70258552D01*
X94840528Y-70231412D01*
X94818303Y-70197513D01*
X94815956Y-70193794D01*
X94778084Y-70131382D01*
X94770686Y-70123005D01*
X94770713Y-70122981D01*
X94768060Y-70119989D01*
X94765357Y-70116756D01*
X94761345Y-70110637D01*
X94705106Y-70057361D01*
X94702664Y-70054983D01*
X94058770Y-69411089D01*
X94046384Y-69396677D01*
X94037851Y-69385082D01*
X94037846Y-69385077D01*
X94033508Y-69379182D01*
X94027930Y-69374443D01*
X94027927Y-69374440D01*
X93993232Y-69344965D01*
X93985716Y-69338035D01*
X93980021Y-69332340D01*
X93973880Y-69327482D01*
X93957749Y-69314719D01*
X93954345Y-69311928D01*
X93904297Y-69269409D01*
X93904295Y-69269408D01*
X93898715Y-69264667D01*
X93892199Y-69261339D01*
X93887150Y-69257972D01*
X93882021Y-69254805D01*
X93876284Y-69250266D01*
X93810125Y-69219345D01*
X93806225Y-69217439D01*
X93794244Y-69211321D01*
X93741192Y-69184231D01*
X93734084Y-69182492D01*
X93728441Y-69180393D01*
X93722678Y-69178476D01*
X93716050Y-69175378D01*
X93644583Y-69160513D01*
X93640299Y-69159543D01*
X93569390Y-69142192D01*
X93563788Y-69141844D01*
X93563785Y-69141844D01*
X93558236Y-69141500D01*
X93558238Y-69141464D01*
X93554245Y-69141225D01*
X93550053Y-69140851D01*
X93542885Y-69139360D01*
X93476675Y-69141151D01*
X93465479Y-69141454D01*
X93462072Y-69141500D01*
X87016371Y-69141500D01*
X86948250Y-69121498D01*
X86927276Y-69104595D01*
X84295297Y-66472616D01*
X84261271Y-66410304D01*
X84266336Y-66339489D01*
X84308883Y-66282653D01*
X84333143Y-66268414D01*
X84500722Y-66193803D01*
X84500724Y-66193802D01*
X84506752Y-66191118D01*
X84515644Y-66184658D01*
X84575549Y-66141134D01*
X84661253Y-66078866D01*
X84688113Y-66049035D01*
X84784621Y-65941852D01*
X84784622Y-65941851D01*
X84789040Y-65936944D01*
X84826522Y-65872023D01*
X84877904Y-65823030D01*
X84947618Y-65809594D01*
X84956709Y-65810868D01*
X84957408Y-65810912D01*
X84964875Y-65812296D01*
X84972455Y-65811859D01*
X84972456Y-65811859D01*
X85027086Y-65808709D01*
X85034339Y-65808500D01*
X85308595Y-65808500D01*
X85376716Y-65828502D01*
X85382656Y-65832564D01*
X85453651Y-65884145D01*
X85463248Y-65891118D01*
X85469276Y-65893802D01*
X85469278Y-65893803D01*
X85607125Y-65955176D01*
X85637712Y-65968794D01*
X85731112Y-65988647D01*
X85818056Y-66007128D01*
X85818061Y-66007128D01*
X85824513Y-66008500D01*
X86015487Y-66008500D01*
X86021939Y-66007128D01*
X86021944Y-66007128D01*
X86108888Y-65988647D01*
X86202288Y-65968794D01*
X86232875Y-65955176D01*
X86370722Y-65893803D01*
X86370724Y-65893802D01*
X86376752Y-65891118D01*
X86386350Y-65884145D01*
X86468891Y-65824175D01*
X86531253Y-65778866D01*
X86571228Y-65734469D01*
X86654621Y-65641852D01*
X86654622Y-65641851D01*
X86659040Y-65636944D01*
X86723952Y-65524513D01*
X86751223Y-65477279D01*
X86751224Y-65477278D01*
X86754527Y-65471556D01*
X86813542Y-65289928D01*
X86815083Y-65275271D01*
X86832814Y-65106565D01*
X86833504Y-65100000D01*
X86822100Y-64991500D01*
X86814232Y-64916635D01*
X86814232Y-64916633D01*
X86813542Y-64910072D01*
X86772609Y-64784094D01*
X86770581Y-64713128D01*
X86807244Y-64652330D01*
X86870956Y-64621005D01*
X86879881Y-64619993D01*
X86879864Y-64619840D01*
X86942046Y-64613085D01*
X86975705Y-64600467D01*
X87046511Y-64595284D01*
X87108880Y-64629205D01*
X87143010Y-64691460D01*
X87145244Y-64731619D01*
X87133211Y-64846109D01*
X87126496Y-64910000D01*
X87127186Y-64916565D01*
X87142945Y-65066500D01*
X87146458Y-65099928D01*
X87205473Y-65281556D01*
X87208776Y-65287278D01*
X87208777Y-65287279D01*
X87218146Y-65303506D01*
X87300960Y-65446944D01*
X87305378Y-65451851D01*
X87305379Y-65451852D01*
X87400043Y-65556987D01*
X87428747Y-65588866D01*
X87495796Y-65637580D01*
X87568045Y-65690072D01*
X87583248Y-65701118D01*
X87589276Y-65703802D01*
X87589278Y-65703803D01*
X87710987Y-65757991D01*
X87757712Y-65778794D01*
X87851113Y-65798647D01*
X87938056Y-65817128D01*
X87938061Y-65817128D01*
X87944513Y-65818500D01*
X88135487Y-65818500D01*
X88141944Y-65817128D01*
X88148515Y-65816437D01*
X88148706Y-65818257D01*
X88210611Y-65822979D01*
X88267245Y-65865794D01*
X88291741Y-65932431D01*
X88291331Y-65953995D01*
X88287312Y-65992240D01*
X88286496Y-66000000D01*
X88287186Y-66006565D01*
X88302853Y-66155625D01*
X88306458Y-66189928D01*
X88365473Y-66371556D01*
X88368776Y-66377278D01*
X88368777Y-66377279D01*
X88372369Y-66383500D01*
X88460960Y-66536944D01*
X88465378Y-66541851D01*
X88465379Y-66541852D01*
X88571629Y-66659855D01*
X88588747Y-66678866D01*
X88743248Y-66791118D01*
X88749276Y-66793802D01*
X88749278Y-66793803D01*
X88878938Y-66851531D01*
X88917712Y-66868794D01*
X89007203Y-66887816D01*
X89098056Y-66907128D01*
X89098061Y-66907128D01*
X89104513Y-66908500D01*
X89295487Y-66908500D01*
X89301939Y-66907128D01*
X89301944Y-66907128D01*
X89392797Y-66887816D01*
X89482288Y-66868794D01*
X89521062Y-66851531D01*
X89650722Y-66793803D01*
X89650724Y-66793802D01*
X89656752Y-66791118D01*
X89811253Y-66678866D01*
X89828371Y-66659855D01*
X89934621Y-66541852D01*
X89934622Y-66541851D01*
X89939040Y-66536944D01*
X90027631Y-66383500D01*
X90031223Y-66377279D01*
X90031224Y-66377278D01*
X90034527Y-66371556D01*
X90040139Y-66354284D01*
X90080212Y-66295678D01*
X90145609Y-66268041D01*
X90173142Y-66267910D01*
X90261705Y-66277218D01*
X90263454Y-66277414D01*
X90310770Y-66283056D01*
X90353807Y-66288188D01*
X90359802Y-66287727D01*
X90359950Y-66287728D01*
X90361698Y-66287752D01*
X90361987Y-66287758D01*
X90367955Y-66288385D01*
X90458542Y-66280141D01*
X90460178Y-66280003D01*
X90551002Y-66273014D01*
X90556790Y-66271398D01*
X90556979Y-66271362D01*
X90558715Y-66271043D01*
X90558930Y-66271005D01*
X90564918Y-66270460D01*
X90570824Y-66268722D01*
X90570828Y-66268721D01*
X90652201Y-66244772D01*
X90653891Y-66244288D01*
X90735551Y-66221488D01*
X90735560Y-66221485D01*
X90741493Y-66219828D01*
X90746849Y-66217123D01*
X90747093Y-66217024D01*
X90748729Y-66216376D01*
X90748875Y-66216320D01*
X90754649Y-66214620D01*
X90760114Y-66211763D01*
X90835281Y-66172467D01*
X90836845Y-66171663D01*
X90912533Y-66133430D01*
X90912535Y-66133429D01*
X90918026Y-66130655D01*
X90922751Y-66126964D01*
X90922951Y-66126833D01*
X90924428Y-66125881D01*
X90924601Y-66125771D01*
X90929920Y-66122990D01*
X90941748Y-66113480D01*
X91007370Y-66086383D01*
X91077225Y-66099066D01*
X91102362Y-66115721D01*
X91116960Y-66128145D01*
X91116963Y-66128147D01*
X91121650Y-66132136D01*
X91127022Y-66135139D01*
X91127815Y-66135690D01*
X91128232Y-66136005D01*
X91128329Y-66136070D01*
X91130128Y-66137297D01*
X91130256Y-66137386D01*
X91130720Y-66137670D01*
X91131496Y-66138190D01*
X91136261Y-66142103D01*
X91141690Y-66145014D01*
X91141696Y-66145018D01*
X91214673Y-66184148D01*
X91216602Y-66185204D01*
X91288907Y-66225614D01*
X91288913Y-66225617D01*
X91294294Y-66228624D01*
X91300163Y-66230531D01*
X91301030Y-66230910D01*
X91301509Y-66231143D01*
X91301562Y-66231165D01*
X91303574Y-66232022D01*
X91303752Y-66232100D01*
X91304272Y-66232292D01*
X91305129Y-66232649D01*
X91310563Y-66235562D01*
X91316457Y-66237364D01*
X91395624Y-66261568D01*
X91397719Y-66262229D01*
X91476528Y-66287835D01*
X91476531Y-66287836D01*
X91482392Y-66289740D01*
X91488512Y-66290470D01*
X91489419Y-66290669D01*
X91489931Y-66290803D01*
X91490058Y-66290829D01*
X91492252Y-66291291D01*
X91492376Y-66291318D01*
X91492891Y-66291401D01*
X91493807Y-66291586D01*
X91499698Y-66293387D01*
X91505827Y-66294010D01*
X91505829Y-66294010D01*
X91588213Y-66302379D01*
X91590397Y-66302620D01*
X91663106Y-66311289D01*
X91678777Y-66313158D01*
X91684913Y-66312686D01*
X91685868Y-66312706D01*
X91686388Y-66312738D01*
X91686495Y-66312738D01*
X91688708Y-66312765D01*
X91688856Y-66312768D01*
X91689401Y-66312748D01*
X91690329Y-66312751D01*
X91696462Y-66313374D01*
X91785063Y-66304999D01*
X91787225Y-66304813D01*
X91815728Y-66302620D01*
X91869827Y-66298457D01*
X91869828Y-66298457D01*
X91875972Y-66297984D01*
X91881911Y-66296326D01*
X91882836Y-66296163D01*
X91883386Y-66296089D01*
X91883503Y-66296066D01*
X91885638Y-66295670D01*
X91885771Y-66295646D01*
X91886302Y-66295521D01*
X91887226Y-66295341D01*
X91893362Y-66294761D01*
X91906639Y-66290803D01*
X91978685Y-66269326D01*
X91980796Y-66268717D01*
X92060525Y-66246456D01*
X92060526Y-66246456D01*
X92066463Y-66244798D01*
X92071964Y-66242019D01*
X92072839Y-66241680D01*
X92073350Y-66241505D01*
X92073477Y-66241453D01*
X92075528Y-66240637D01*
X92075641Y-66240593D01*
X92076118Y-66240376D01*
X92076994Y-66240019D01*
X92082896Y-66238259D01*
X92161607Y-66196759D01*
X92163554Y-66195754D01*
X92237505Y-66158399D01*
X92237507Y-66158398D01*
X92242996Y-66155625D01*
X92247845Y-66151837D01*
X92248655Y-66151323D01*
X92249112Y-66151058D01*
X92249220Y-66150987D01*
X92251029Y-66149817D01*
X92251161Y-66149733D01*
X92251607Y-66149413D01*
X92252402Y-66148889D01*
X92257846Y-66146018D01*
X92286283Y-66122990D01*
X92326980Y-66090034D01*
X92328702Y-66088664D01*
X92393991Y-66037655D01*
X92393992Y-66037654D01*
X92398847Y-66033861D01*
X92402874Y-66029196D01*
X92403552Y-66028550D01*
X92403956Y-66028195D01*
X92404035Y-66028117D01*
X92405617Y-66026583D01*
X92405723Y-66026482D01*
X92406092Y-66026088D01*
X92406759Y-66025430D01*
X92411547Y-66021553D01*
X92468494Y-65953202D01*
X92469908Y-65951535D01*
X92470192Y-65951206D01*
X92528078Y-65884145D01*
X92531118Y-65878793D01*
X92531676Y-65878003D01*
X92531988Y-65877596D01*
X92532052Y-65877502D01*
X92533272Y-65875741D01*
X92533384Y-65875582D01*
X92533681Y-65875105D01*
X92534203Y-65874336D01*
X92538146Y-65869604D01*
X92541092Y-65864202D01*
X92541096Y-65864195D01*
X92580756Y-65791453D01*
X92581780Y-65789613D01*
X92625769Y-65712179D01*
X92627715Y-65706330D01*
X92628094Y-65705478D01*
X92628338Y-65704985D01*
X92628395Y-65704850D01*
X92629263Y-65702854D01*
X92629310Y-65702748D01*
X92629504Y-65702235D01*
X92629869Y-65701376D01*
X92632822Y-65695959D01*
X92638711Y-65677169D01*
X92659426Y-65611066D01*
X92660101Y-65608974D01*
X92686255Y-65530352D01*
X92686256Y-65530349D01*
X92688197Y-65524513D01*
X92688968Y-65518408D01*
X92689180Y-65517477D01*
X92689312Y-65516988D01*
X92689336Y-65516872D01*
X92689814Y-65514682D01*
X92689841Y-65514562D01*
X92689930Y-65514033D01*
X92690122Y-65513113D01*
X92691965Y-65507232D01*
X92693144Y-65496386D01*
X92701577Y-65418750D01*
X92701834Y-65416566D01*
X92712543Y-65331797D01*
X92712543Y-65331790D01*
X92712985Y-65328295D01*
X92713218Y-65311584D01*
X92713324Y-65310611D01*
X92713245Y-65309703D01*
X92713380Y-65300000D01*
X92713008Y-65296206D01*
X92704310Y-65207496D01*
X92704188Y-65206183D01*
X92699985Y-65158148D01*
X92696087Y-65113587D01*
X92694600Y-65108468D01*
X92694080Y-65103167D01*
X92689388Y-65087625D01*
X92684010Y-65051209D01*
X92684010Y-64745840D01*
X92704012Y-64677719D01*
X92757668Y-64631226D01*
X92810010Y-64619840D01*
X93379724Y-64619840D01*
X93441906Y-64613085D01*
X93578295Y-64561955D01*
X93579309Y-64564661D01*
X93634338Y-64552627D01*
X93671147Y-64563435D01*
X93671868Y-64561512D01*
X93800724Y-64609818D01*
X93815979Y-64613445D01*
X93866844Y-64618971D01*
X93873658Y-64619340D01*
X94001815Y-64619340D01*
X94017054Y-64614865D01*
X94018259Y-64613475D01*
X94019930Y-64605792D01*
X94019930Y-63272140D01*
X94039932Y-63204019D01*
X94093588Y-63157526D01*
X94145930Y-63146140D01*
X94401930Y-63146140D01*
X94470051Y-63166142D01*
G37*
G04 #@! TD.AperFunction*
G04 #@! TA.AperFunction,Conductor*
G36*
X75670237Y-77619191D02*
G01*
X75670241Y-77619191D01*
X75673636Y-77619560D01*
X76412348Y-77619560D01*
X76480469Y-77639562D01*
X76526962Y-77693218D01*
X76537723Y-77736951D01*
X76537453Y-77741298D01*
X76538693Y-77748513D01*
X76538693Y-77748516D01*
X76541692Y-77765968D01*
X76543466Y-77783898D01*
X76543945Y-77801605D01*
X76544143Y-77808921D01*
X76546017Y-77815988D01*
X76546018Y-77815996D01*
X76556713Y-77856331D01*
X76559101Y-77867284D01*
X76567406Y-77915613D01*
X76564218Y-77916161D01*
X76564226Y-77972771D01*
X76554266Y-77996783D01*
X76549385Y-78003295D01*
X76498255Y-78139684D01*
X76491500Y-78201866D01*
X76491500Y-79348134D01*
X76498255Y-79410316D01*
X76549385Y-79546705D01*
X76636739Y-79663261D01*
X76753295Y-79750615D01*
X76889684Y-79801745D01*
X76951866Y-79808500D01*
X77908629Y-79808500D01*
X77976750Y-79828502D01*
X77997724Y-79845405D01*
X78151230Y-79998911D01*
X78163616Y-80013323D01*
X78172149Y-80024918D01*
X78172154Y-80024923D01*
X78176492Y-80030818D01*
X78182070Y-80035557D01*
X78182073Y-80035560D01*
X78216768Y-80065035D01*
X78224284Y-80071965D01*
X78229979Y-80077660D01*
X78232861Y-80079940D01*
X78252251Y-80095281D01*
X78255655Y-80098072D01*
X78295550Y-80131965D01*
X78311285Y-80145333D01*
X78317801Y-80148661D01*
X78322850Y-80152028D01*
X78327979Y-80155195D01*
X78333716Y-80159734D01*
X78399875Y-80190655D01*
X78403769Y-80192558D01*
X78468808Y-80225769D01*
X78475916Y-80227508D01*
X78481559Y-80229607D01*
X78487322Y-80231524D01*
X78493950Y-80234622D01*
X78555989Y-80247526D01*
X78565412Y-80249486D01*
X78569696Y-80250456D01*
X78640610Y-80267808D01*
X78646212Y-80268156D01*
X78646215Y-80268156D01*
X78651764Y-80268500D01*
X78651762Y-80268536D01*
X78655755Y-80268775D01*
X78659947Y-80269149D01*
X78667115Y-80270640D01*
X78744520Y-80268546D01*
X78747928Y-80268500D01*
X79836643Y-80268500D01*
X79871797Y-80273503D01*
X79913534Y-80285629D01*
X79919941Y-80286133D01*
X79919945Y-80286134D01*
X79947556Y-80288307D01*
X79947562Y-80288307D01*
X79950011Y-80288500D01*
X80199848Y-80288500D01*
X80449988Y-80288499D01*
X80486466Y-80285629D01*
X80607529Y-80250457D01*
X80634983Y-80242481D01*
X80634985Y-80242480D01*
X80642596Y-80240269D01*
X80661731Y-80228953D01*
X80775720Y-80161540D01*
X80782541Y-80157506D01*
X80897506Y-80042541D01*
X80911824Y-80018331D01*
X80976234Y-79909419D01*
X80976234Y-79909418D01*
X80980269Y-79902596D01*
X80986360Y-79881633D01*
X81017353Y-79774952D01*
X81025629Y-79746466D01*
X81026288Y-79738100D01*
X81028307Y-79712444D01*
X81028307Y-79712438D01*
X81028500Y-79709989D01*
X81028499Y-79310012D01*
X81025629Y-79273534D01*
X80997505Y-79176730D01*
X80982481Y-79125017D01*
X80982480Y-79125015D01*
X80980269Y-79117404D01*
X80976233Y-79110579D01*
X80976231Y-79110575D01*
X80948769Y-79064139D01*
X80931309Y-78995323D01*
X80948769Y-78935861D01*
X80976231Y-78889425D01*
X80976233Y-78889421D01*
X80980269Y-78882596D01*
X80994164Y-78834771D01*
X81023834Y-78732644D01*
X81025629Y-78726466D01*
X81026502Y-78715381D01*
X81028307Y-78692444D01*
X81028307Y-78692438D01*
X81028500Y-78689989D01*
X81028499Y-78290012D01*
X81025629Y-78253534D01*
X80994835Y-78147540D01*
X80982481Y-78105017D01*
X80982480Y-78105015D01*
X80980269Y-78097404D01*
X80921286Y-77997668D01*
X80901540Y-77964280D01*
X80897506Y-77957459D01*
X80782541Y-77842494D01*
X80781643Y-77841963D01*
X80741873Y-77786887D01*
X80738027Y-77715994D01*
X80773119Y-77654276D01*
X80836007Y-77621328D01*
X80867486Y-77619076D01*
X80869630Y-77619192D01*
X80873016Y-77619560D01*
X81615017Y-77619560D01*
X81683138Y-77639562D01*
X81729631Y-77693218D01*
X81739735Y-77763492D01*
X81710241Y-77828072D01*
X81690583Y-77846385D01*
X81636739Y-77886739D01*
X81549385Y-78003295D01*
X81498255Y-78139684D01*
X81491500Y-78201866D01*
X81491500Y-79348134D01*
X81498255Y-79410316D01*
X81549385Y-79546705D01*
X81636739Y-79663261D01*
X81753295Y-79750615D01*
X81889684Y-79801745D01*
X81951866Y-79808500D01*
X82583629Y-79808500D01*
X82651750Y-79828502D01*
X82672724Y-79845405D01*
X83516230Y-80688911D01*
X83528616Y-80703323D01*
X83537149Y-80714918D01*
X83537154Y-80714923D01*
X83541492Y-80720818D01*
X83547070Y-80725557D01*
X83547073Y-80725560D01*
X83581768Y-80755035D01*
X83589284Y-80761965D01*
X83594979Y-80767660D01*
X83597861Y-80769940D01*
X83617251Y-80785281D01*
X83620655Y-80788072D01*
X83670544Y-80830456D01*
X83676285Y-80835333D01*
X83682801Y-80838661D01*
X83687850Y-80842028D01*
X83692979Y-80845195D01*
X83698716Y-80849734D01*
X83764875Y-80880655D01*
X83768769Y-80882558D01*
X83833808Y-80915769D01*
X83840916Y-80917508D01*
X83846559Y-80919607D01*
X83852322Y-80921524D01*
X83858950Y-80924622D01*
X83866112Y-80926112D01*
X83866113Y-80926112D01*
X83930412Y-80939486D01*
X83934696Y-80940456D01*
X84005610Y-80957808D01*
X84011212Y-80958156D01*
X84011215Y-80958156D01*
X84016764Y-80958500D01*
X84016762Y-80958536D01*
X84020755Y-80958775D01*
X84024947Y-80959149D01*
X84032115Y-80960640D01*
X84109520Y-80958546D01*
X84112928Y-80958500D01*
X84352930Y-80958500D01*
X84371880Y-80959933D01*
X84386115Y-80962099D01*
X84386119Y-80962099D01*
X84393349Y-80963199D01*
X84400641Y-80962606D01*
X84400644Y-80962606D01*
X84446018Y-80958915D01*
X84456233Y-80958500D01*
X84464293Y-80958500D01*
X84481680Y-80956473D01*
X84492507Y-80955211D01*
X84496882Y-80954778D01*
X84562339Y-80949454D01*
X84562342Y-80949453D01*
X84569637Y-80948860D01*
X84576601Y-80946604D01*
X84582560Y-80945413D01*
X84588415Y-80944029D01*
X84595681Y-80943182D01*
X84664327Y-80918265D01*
X84668455Y-80916848D01*
X84730936Y-80896607D01*
X84730938Y-80896606D01*
X84737899Y-80894351D01*
X84744154Y-80890555D01*
X84749628Y-80888049D01*
X84755058Y-80885330D01*
X84761937Y-80882833D01*
X84777771Y-80872452D01*
X84822976Y-80842814D01*
X84826680Y-80840477D01*
X84889107Y-80802595D01*
X84897484Y-80795197D01*
X84897508Y-80795224D01*
X84900500Y-80792571D01*
X84903733Y-80789868D01*
X84909852Y-80785856D01*
X84963128Y-80729617D01*
X84965506Y-80727175D01*
X85478510Y-80214171D01*
X85532452Y-80182269D01*
X85630836Y-80153686D01*
X85701833Y-80153889D01*
X85761449Y-80192443D01*
X85790757Y-80257108D01*
X85791989Y-80274683D01*
X85791989Y-80822654D01*
X85791747Y-80830455D01*
X85787942Y-80891787D01*
X85789182Y-80899003D01*
X85790169Y-80904746D01*
X85791989Y-80926085D01*
X85791989Y-81708419D01*
X85790556Y-81727369D01*
X85787290Y-81748838D01*
X85787883Y-81756130D01*
X85787883Y-81756133D01*
X85791574Y-81801507D01*
X85791989Y-81811722D01*
X85791989Y-81819782D01*
X85792414Y-81823426D01*
X85795278Y-81847996D01*
X85795711Y-81852371D01*
X85800997Y-81917350D01*
X85801629Y-81925126D01*
X85803885Y-81932090D01*
X85805076Y-81938049D01*
X85806460Y-81943904D01*
X85807307Y-81951170D01*
X85832224Y-82019816D01*
X85833641Y-82023944D01*
X85841883Y-82049384D01*
X85856138Y-82093388D01*
X85859934Y-82099643D01*
X85862440Y-82105117D01*
X85865159Y-82110547D01*
X85867656Y-82117426D01*
X85871669Y-82123546D01*
X85871669Y-82123547D01*
X85907675Y-82178465D01*
X85910012Y-82182169D01*
X85947894Y-82244596D01*
X85951610Y-82248804D01*
X85951611Y-82248805D01*
X85955292Y-82252973D01*
X85955266Y-82252996D01*
X85957911Y-82255980D01*
X85960618Y-82259216D01*
X85961158Y-82260041D01*
X85989353Y-82324757D01*
X85978019Y-82394843D01*
X85930592Y-82447676D01*
X85864340Y-82466500D01*
X84523539Y-82466500D01*
X84455418Y-82446498D01*
X84422713Y-82416065D01*
X84368643Y-82343920D01*
X84368642Y-82343919D01*
X84363261Y-82336739D01*
X84246705Y-82249385D01*
X84110316Y-82198255D01*
X84048134Y-82191500D01*
X81951866Y-82191500D01*
X81889684Y-82198255D01*
X81753295Y-82249385D01*
X81636739Y-82336739D01*
X81631358Y-82343919D01*
X81631357Y-82343920D01*
X81577287Y-82416065D01*
X81520427Y-82458580D01*
X81476461Y-82466500D01*
X79523539Y-82466500D01*
X79455418Y-82446498D01*
X79422713Y-82416065D01*
X79368643Y-82343920D01*
X79368642Y-82343919D01*
X79363261Y-82336739D01*
X79246705Y-82249385D01*
X79110316Y-82198255D01*
X79048134Y-82191500D01*
X76951866Y-82191500D01*
X76889684Y-82198255D01*
X76753295Y-82249385D01*
X76636739Y-82336739D01*
X76549385Y-82453295D01*
X76498255Y-82589684D01*
X76491500Y-82651866D01*
X76491500Y-83798134D01*
X76498255Y-83860316D01*
X76549385Y-83996705D01*
X76636739Y-84113261D01*
X76753295Y-84200615D01*
X76761704Y-84203767D01*
X76761705Y-84203768D01*
X76827408Y-84228399D01*
X76884173Y-84271040D01*
X76908873Y-84337602D01*
X76893666Y-84406951D01*
X76843380Y-84457069D01*
X76773981Y-84472045D01*
X76756396Y-84469501D01*
X76588609Y-84433001D01*
X76571359Y-84427937D01*
X76388850Y-84359864D01*
X76372498Y-84352396D01*
X76201542Y-84259048D01*
X76186418Y-84249328D01*
X76030486Y-84132598D01*
X76016900Y-84120825D01*
X75879175Y-83983100D01*
X75867402Y-83969514D01*
X75750672Y-83813582D01*
X75740952Y-83798458D01*
X75647604Y-83627502D01*
X75640136Y-83611150D01*
X75572063Y-83428641D01*
X75566999Y-83411392D01*
X75543402Y-83302919D01*
X75525596Y-83221064D01*
X75523038Y-83203278D01*
X75521975Y-83188404D01*
X75511719Y-83045011D01*
X75512805Y-83022245D01*
X75512334Y-83022203D01*
X75512770Y-83017345D01*
X75513576Y-83012552D01*
X75513729Y-83000000D01*
X75509773Y-82972376D01*
X75508500Y-82954514D01*
X75508500Y-77742050D01*
X75528502Y-77673929D01*
X75582158Y-77627436D01*
X75648107Y-77616787D01*
X75670237Y-77619191D01*
G37*
G04 #@! TD.AperFunction*
G04 #@! TA.AperFunction,Conductor*
G36*
X98474186Y-65218085D02*
G01*
X98485852Y-65219621D01*
X98492363Y-65220652D01*
X98498279Y-65221748D01*
X98508715Y-65223683D01*
X98572050Y-65255762D01*
X98607988Y-65316990D01*
X98605554Y-65381824D01*
X98606304Y-65381985D01*
X98605388Y-65386260D01*
X98605351Y-65387234D01*
X98604864Y-65388703D01*
X98601995Y-65402086D01*
X98592328Y-65496438D01*
X98592000Y-65502855D01*
X98592000Y-65602885D01*
X98596475Y-65618124D01*
X98597865Y-65619329D01*
X98605548Y-65621000D01*
X101389884Y-65621000D01*
X101405123Y-65616525D01*
X101406328Y-65615135D01*
X101407999Y-65607452D01*
X101407999Y-65502905D01*
X101407662Y-65496386D01*
X101397743Y-65400792D01*
X101393490Y-65381095D01*
X101398663Y-65310287D01*
X101441297Y-65253516D01*
X101507855Y-65228807D01*
X101516651Y-65228500D01*
X103015500Y-65228500D01*
X103083621Y-65248502D01*
X103130114Y-65302158D01*
X103141500Y-65354500D01*
X103141500Y-65675400D01*
X103141837Y-65678646D01*
X103141837Y-65678650D01*
X103151726Y-65773955D01*
X103152474Y-65781166D01*
X103154655Y-65787702D01*
X103154655Y-65787704D01*
X103169622Y-65832564D01*
X103208450Y-65948946D01*
X103301522Y-66099348D01*
X103306704Y-66104521D01*
X103325205Y-66122990D01*
X103426697Y-66224305D01*
X103432927Y-66228145D01*
X103432928Y-66228146D01*
X103570843Y-66313158D01*
X103577262Y-66317115D01*
X103644061Y-66339271D01*
X103738611Y-66370632D01*
X103738613Y-66370632D01*
X103745139Y-66372797D01*
X103751975Y-66373497D01*
X103751978Y-66373498D01*
X103788883Y-66377279D01*
X103849600Y-66383500D01*
X105250400Y-66383500D01*
X105253646Y-66383163D01*
X105253650Y-66383163D01*
X105349308Y-66373238D01*
X105349312Y-66373237D01*
X105356166Y-66372526D01*
X105362702Y-66370345D01*
X105362704Y-66370345D01*
X105523946Y-66316550D01*
X105524837Y-66319221D01*
X105582226Y-66310403D01*
X105647088Y-66339271D01*
X105686047Y-66398623D01*
X105691500Y-66435288D01*
X105691500Y-66450400D01*
X105691837Y-66453646D01*
X105691837Y-66453650D01*
X105700989Y-66541852D01*
X105702474Y-66556166D01*
X105704655Y-66562702D01*
X105704655Y-66562704D01*
X105727131Y-66630072D01*
X105758450Y-66723946D01*
X105801679Y-66793803D01*
X105805017Y-66799197D01*
X105823855Y-66867649D01*
X105802694Y-66935418D01*
X105748253Y-66980990D01*
X105697873Y-66991500D01*
X104861840Y-66991500D01*
X104848232Y-66990763D01*
X104816736Y-66987341D01*
X104816732Y-66987341D01*
X104810611Y-66986676D01*
X104792611Y-66988251D01*
X104760609Y-66991050D01*
X104755784Y-66991379D01*
X104753313Y-66991500D01*
X104750231Y-66991500D01*
X104727763Y-66993703D01*
X104707489Y-66995691D01*
X104706174Y-66995813D01*
X104673913Y-66998636D01*
X104613587Y-67003913D01*
X104608468Y-67005400D01*
X104603167Y-67005920D01*
X104514194Y-67032782D01*
X104513054Y-67033120D01*
X104423663Y-67059091D01*
X104418929Y-67061545D01*
X104413831Y-67063084D01*
X104408387Y-67065978D01*
X104408386Y-67065979D01*
X104331831Y-67106684D01*
X104330663Y-67107298D01*
X104248074Y-67150108D01*
X104247260Y-67148538D01*
X104186613Y-67166500D01*
X103849600Y-67166500D01*
X103846354Y-67166837D01*
X103846350Y-67166837D01*
X103750692Y-67176762D01*
X103750688Y-67176763D01*
X103743834Y-67177474D01*
X103737298Y-67179655D01*
X103737296Y-67179655D01*
X103701625Y-67191556D01*
X103576054Y-67233450D01*
X103425652Y-67326522D01*
X103300695Y-67451697D01*
X103296855Y-67457927D01*
X103296854Y-67457928D01*
X103232675Y-67562046D01*
X103207885Y-67602262D01*
X103152203Y-67770139D01*
X103141500Y-67874600D01*
X103141500Y-68390020D01*
X103121498Y-68458141D01*
X103067842Y-68504634D01*
X103015500Y-68516020D01*
X99429963Y-68516020D01*
X99361842Y-68496018D01*
X99340868Y-68479115D01*
X98324662Y-67462909D01*
X98312276Y-67448497D01*
X98303743Y-67436902D01*
X98303738Y-67436897D01*
X98299400Y-67431002D01*
X98293822Y-67426263D01*
X98293819Y-67426260D01*
X98278122Y-67412925D01*
X98244950Y-67365728D01*
X98244827Y-67365795D01*
X98244225Y-67364696D01*
X98241719Y-67361130D01*
X98240150Y-67356944D01*
X98237365Y-67349516D01*
X98239845Y-67348586D01*
X98227629Y-67292731D01*
X98238936Y-67254234D01*
X98237365Y-67253645D01*
X98273033Y-67158500D01*
X98288495Y-67117256D01*
X98295250Y-67055074D01*
X98295250Y-66247606D01*
X98295194Y-66247095D01*
X98592001Y-66247095D01*
X98592338Y-66253614D01*
X98602257Y-66349206D01*
X98605149Y-66362600D01*
X98656588Y-66516784D01*
X98662761Y-66529962D01*
X98748063Y-66667807D01*
X98757099Y-66679208D01*
X98871829Y-66793739D01*
X98883240Y-66802751D01*
X99021243Y-66887816D01*
X99034424Y-66893963D01*
X99188710Y-66945138D01*
X99202086Y-66948005D01*
X99296438Y-66957672D01*
X99302854Y-66958000D01*
X99727885Y-66958000D01*
X99743124Y-66953525D01*
X99744329Y-66952135D01*
X99746000Y-66944452D01*
X99746000Y-66939884D01*
X100254000Y-66939884D01*
X100258475Y-66955123D01*
X100259865Y-66956328D01*
X100267548Y-66957999D01*
X100697095Y-66957999D01*
X100703614Y-66957662D01*
X100799206Y-66947743D01*
X100812600Y-66944851D01*
X100966784Y-66893412D01*
X100979962Y-66887239D01*
X101117807Y-66801937D01*
X101129208Y-66792901D01*
X101243739Y-66678171D01*
X101252751Y-66666760D01*
X101337816Y-66528757D01*
X101343963Y-66515576D01*
X101395138Y-66361290D01*
X101398005Y-66347914D01*
X101407672Y-66253562D01*
X101408000Y-66247146D01*
X101408000Y-66147115D01*
X101403525Y-66131876D01*
X101402135Y-66130671D01*
X101394452Y-66129000D01*
X100272115Y-66129000D01*
X100256876Y-66133475D01*
X100255671Y-66134865D01*
X100254000Y-66142548D01*
X100254000Y-66939884D01*
X99746000Y-66939884D01*
X99746000Y-66147115D01*
X99741525Y-66131876D01*
X99740135Y-66130671D01*
X99732452Y-66129000D01*
X98610116Y-66129000D01*
X98594877Y-66133475D01*
X98593672Y-66134865D01*
X98592001Y-66142548D01*
X98592001Y-66247095D01*
X98295194Y-66247095D01*
X98288495Y-66185424D01*
X98237365Y-66049035D01*
X98239844Y-66048106D01*
X98227631Y-65992240D01*
X98238932Y-65953752D01*
X98237365Y-65953165D01*
X98250280Y-65918715D01*
X98288495Y-65816776D01*
X98295250Y-65754594D01*
X98295250Y-65338203D01*
X98315252Y-65270082D01*
X98368908Y-65223589D01*
X98437695Y-65213281D01*
X98474186Y-65218085D01*
G37*
G04 #@! TD.AperFunction*
G04 #@! TA.AperFunction,Conductor*
G36*
X77120750Y-60528502D02*
G01*
X77167243Y-60582158D01*
X77177347Y-60652432D01*
X77147853Y-60717012D01*
X77141724Y-60723595D01*
X76888939Y-60976380D01*
X76874527Y-60988766D01*
X76862932Y-60997299D01*
X76862927Y-60997304D01*
X76857032Y-61001642D01*
X76852293Y-61007220D01*
X76852290Y-61007223D01*
X76822815Y-61041918D01*
X76815885Y-61049434D01*
X76810190Y-61055129D01*
X76807910Y-61058011D01*
X76792569Y-61077401D01*
X76789778Y-61080805D01*
X76751783Y-61125528D01*
X76742517Y-61136435D01*
X76739189Y-61142951D01*
X76735822Y-61148000D01*
X76732655Y-61153129D01*
X76728116Y-61158866D01*
X76697195Y-61225025D01*
X76695292Y-61228919D01*
X76662081Y-61293958D01*
X76660342Y-61301066D01*
X76658243Y-61306709D01*
X76656326Y-61312472D01*
X76653228Y-61319100D01*
X76651738Y-61326262D01*
X76651738Y-61326263D01*
X76638364Y-61390562D01*
X76637394Y-61394846D01*
X76620042Y-61465760D01*
X76619350Y-61476914D01*
X76619314Y-61476912D01*
X76619075Y-61480905D01*
X76618701Y-61485097D01*
X76617210Y-61492265D01*
X76617408Y-61499582D01*
X76619304Y-61569671D01*
X76619350Y-61573078D01*
X76619350Y-62055606D01*
X76599348Y-62123727D01*
X76545692Y-62170220D01*
X76486533Y-62181421D01*
X76477656Y-62180940D01*
X76349485Y-62180940D01*
X76334246Y-62185415D01*
X76333041Y-62186805D01*
X76331370Y-62194488D01*
X76331370Y-62992000D01*
X75823370Y-62992000D01*
X75823370Y-62199056D01*
X75818895Y-62183817D01*
X75817505Y-62182612D01*
X75809822Y-62180941D01*
X75677101Y-62180941D01*
X75670280Y-62181311D01*
X75648105Y-62183719D01*
X75578223Y-62171190D01*
X75526208Y-62122868D01*
X75508500Y-62058456D01*
X75508500Y-62053250D01*
X75510246Y-62032345D01*
X75512770Y-62017344D01*
X75512770Y-62017341D01*
X75513576Y-62012552D01*
X75513729Y-62000000D01*
X75513040Y-61995186D01*
X75513039Y-61995176D01*
X75512157Y-61989017D01*
X75511206Y-61962172D01*
X75521856Y-61813250D01*
X75523039Y-61796718D01*
X75525596Y-61778934D01*
X75566999Y-61588607D01*
X75572063Y-61571359D01*
X75640136Y-61388850D01*
X75647604Y-61372498D01*
X75740952Y-61201542D01*
X75750672Y-61186418D01*
X75867402Y-61030486D01*
X75879175Y-61016900D01*
X76016900Y-60879175D01*
X76030486Y-60867402D01*
X76186418Y-60750672D01*
X76201542Y-60740952D01*
X76372498Y-60647604D01*
X76388850Y-60640136D01*
X76571359Y-60572063D01*
X76588608Y-60566999D01*
X76778936Y-60525596D01*
X76796715Y-60523039D01*
X76958605Y-60511460D01*
X76976565Y-60512207D01*
X76984845Y-60512308D01*
X76993724Y-60513691D01*
X77025286Y-60509564D01*
X77041621Y-60508500D01*
X77052629Y-60508500D01*
X77120750Y-60528502D01*
G37*
G04 #@! TD.AperFunction*
M02*
