M48
; DRILL file {KiCad (6.0.4)} date Mo 02 Mai 2022 12:07:00
; FORMAT={3:3/ absolute / metric / suppress leading zeros}
; #@! TF.CreationDate,2022-05-02T12:07:00+02:00
; #@! TF.GenerationSoftware,Kicad,Pcbnew,(6.0.4)
; #@! TF.FileFunction,MixedPlating,1,2
FMAT,2
METRIC,TZ
; #@! TA.AperFunction,Plated,PTH,ViaDrill
T1C0.400
; #@! TA.AperFunction,Plated,PTH,ViaDrill
T2C0.600
; #@! TA.AperFunction,Plated,PTH,ComponentDrill
T3C1.000
%
G90
G05
T1
X79502Y-65278
X79502Y-67310
X79502Y-69342
X80000Y-74900
X80518Y-82296
X80900Y-73500
X81026Y-70612
X81534Y-67818
X83058Y-69342
X83566Y-71120
X84050Y-65400
X84328Y-72644
X84650Y-77850
X85344Y-82296
X85920Y-65100
X86360Y-72898
X87890Y-67580
X88040Y-64910
X89200Y-66000
X89700Y-77800
X90678Y-82042
X90678Y-83312
X93250Y-71100
X94110Y-66820
X94274Y-65474
X94400Y-73150
X95730Y-66660
X97970Y-63890
X105060Y-62270
X105170Y-63510
X105670Y-61360
X105950Y-80610
X106725Y-75600
X107320Y-78840
X108150Y-81400
X108500Y-77475
X108966Y-78994
X110236Y-67685
X110730Y-63140
X110744Y-78994
X111900Y-65700
X112546Y-80504
X112776Y-79248
X113030Y-60960
X115824Y-83566
X118110Y-83566
X120396Y-83566
X121666Y-76962
X122174Y-78232
X122936Y-83566
T2
X90375Y-65275
X91700Y-65300
X98650Y-83250
X100710Y-63470
X100850Y-67290
X101400Y-76900
X104600Y-76900
X107870Y-74460
X111420Y-68790
X117200Y-79000
X117310Y-72240
X120610Y-78810
T3
X96774Y-79253
X96774Y-81793
X100275Y-71800
X102815Y-71800
X105355Y-71800
X107895Y-71800
X110435Y-71800
X121950Y-65950
X121950Y-68490
X121950Y-71030
X121950Y-73570
T0
M30
