G04 #@! TF.GenerationSoftware,KiCad,Pcbnew,(6.0.4)*
G04 #@! TF.CreationDate,2022-05-02T12:08:19+02:00*
G04 #@! TF.ProjectId,Support-Board-for-TS3008,53757070-6f72-4742-9d42-6f6172642d66,rev?*
G04 #@! TF.SameCoordinates,Original*
G04 #@! TF.FileFunction,Soldermask,Top*
G04 #@! TF.FilePolarity,Negative*
%FSLAX46Y46*%
G04 Gerber Fmt 4.6, Leading zero omitted, Abs format (unit mm)*
G04 Created by KiCad (PCBNEW (6.0.4)) date 2022-05-02 12:08:19*
%MOMM*%
%LPD*%
G01*
G04 APERTURE LIST*
G04 Aperture macros list*
%AMRoundRect*
0 Rectangle with rounded corners*
0 $1 Rounding radius*
0 $2 $3 $4 $5 $6 $7 $8 $9 X,Y pos of 4 corners*
0 Add a 4 corners polygon primitive as box body*
4,1,4,$2,$3,$4,$5,$6,$7,$8,$9,$2,$3,0*
0 Add four circle primitives for the rounded corners*
1,1,$1+$1,$2,$3*
1,1,$1+$1,$4,$5*
1,1,$1+$1,$6,$7*
1,1,$1+$1,$8,$9*
0 Add four rect primitives between the rounded corners*
20,1,$1+$1,$2,$3,$4,$5,0*
20,1,$1+$1,$4,$5,$6,$7,0*
20,1,$1+$1,$6,$7,$8,$9,0*
20,1,$1+$1,$8,$9,$2,$3,0*%
G04 Aperture macros list end*
%ADD10RoundRect,0.140000X-0.170000X0.140000X-0.170000X-0.140000X0.170000X-0.140000X0.170000X0.140000X0*%
%ADD11RoundRect,0.140000X-0.140000X-0.170000X0.140000X-0.170000X0.140000X0.170000X-0.140000X0.170000X0*%
%ADD12RoundRect,0.140000X0.140000X0.170000X-0.140000X0.170000X-0.140000X-0.170000X0.140000X-0.170000X0*%
%ADD13RoundRect,0.250000X-0.250000X-0.475000X0.250000X-0.475000X0.250000X0.475000X-0.250000X0.475000X0*%
%ADD14RoundRect,0.150000X-0.150000X0.825000X-0.150000X-0.825000X0.150000X-0.825000X0.150000X0.825000X0*%
%ADD15R,0.711200X1.422400*%
%ADD16R,1.422400X0.711200*%
%ADD17R,2.000000X1.050000*%
%ADD18RoundRect,0.250000X0.262500X0.450000X-0.262500X0.450000X-0.262500X-0.450000X0.262500X-0.450000X0*%
%ADD19RoundRect,0.200000X-0.200000X-0.275000X0.200000X-0.275000X0.200000X0.275000X-0.200000X0.275000X0*%
%ADD20RoundRect,0.135000X-0.135000X-0.185000X0.135000X-0.185000X0.135000X0.185000X-0.135000X0.185000X0*%
%ADD21RoundRect,0.200000X0.200000X0.275000X-0.200000X0.275000X-0.200000X-0.275000X0.200000X-0.275000X0*%
%ADD22RoundRect,0.200000X-0.275000X0.200000X-0.275000X-0.200000X0.275000X-0.200000X0.275000X0.200000X0*%
%ADD23RoundRect,0.135000X0.135000X0.185000X-0.135000X0.185000X-0.135000X-0.185000X0.135000X-0.185000X0*%
%ADD24RoundRect,0.135000X0.185000X-0.135000X0.185000X0.135000X-0.185000X0.135000X-0.185000X-0.135000X0*%
%ADD25RoundRect,0.200000X0.275000X-0.200000X0.275000X0.200000X-0.275000X0.200000X-0.275000X-0.200000X0*%
%ADD26RoundRect,0.250000X0.450000X-0.262500X0.450000X0.262500X-0.450000X0.262500X-0.450000X-0.262500X0*%
%ADD27RoundRect,0.135000X-0.185000X0.135000X-0.185000X-0.135000X0.185000X-0.135000X0.185000X0.135000X0*%
%ADD28RoundRect,0.150000X0.587500X0.150000X-0.587500X0.150000X-0.587500X-0.150000X0.587500X-0.150000X0*%
%ADD29RoundRect,0.147500X-0.147500X-0.172500X0.147500X-0.172500X0.147500X0.172500X-0.147500X0.172500X0*%
%ADD30R,1.700000X1.700000*%
%ADD31O,1.700000X1.700000*%
%ADD32RoundRect,0.243750X-0.456250X0.243750X-0.456250X-0.243750X0.456250X-0.243750X0.456250X0.243750X0*%
%ADD33RoundRect,0.250000X-0.325000X-0.650000X0.325000X-0.650000X0.325000X0.650000X-0.325000X0.650000X0*%
%ADD34RoundRect,0.250000X-0.650000X0.325000X-0.650000X-0.325000X0.650000X-0.325000X0.650000X0.325000X0*%
%ADD35RoundRect,0.250000X0.650000X-0.325000X0.650000X0.325000X-0.650000X0.325000X-0.650000X-0.325000X0*%
G04 APERTURE END LIST*
D10*
X112025000Y-61595000D03*
X112025000Y-62555000D03*
D11*
X113848000Y-60960000D03*
X114808000Y-60960000D03*
D12*
X107855000Y-61375000D03*
X106895000Y-61375000D03*
X106855000Y-63600000D03*
X105895000Y-63600000D03*
D13*
X118000000Y-78200000D03*
X119900000Y-78200000D03*
D14*
X117355000Y-73275000D03*
X116085000Y-73275000D03*
X114815000Y-73275000D03*
X113545000Y-73275000D03*
X113545000Y-68325000D03*
X114815000Y-68325000D03*
X116085000Y-68325000D03*
X117355000Y-68325000D03*
D15*
X76077370Y-63400140D03*
X77377850Y-63400140D03*
X78678330Y-63400140D03*
X79976270Y-63400140D03*
X81276750Y-63400140D03*
X82577230Y-63400140D03*
X83875170Y-63400140D03*
X85175650Y-63400140D03*
X86476130Y-63400140D03*
X87774070Y-63400140D03*
X89074550Y-63400140D03*
X90375030Y-63400140D03*
X91675510Y-63400140D03*
X92975990Y-63400140D03*
X94273930Y-63400140D03*
X95574410Y-63400140D03*
D16*
X97075550Y-65350860D03*
X97075550Y-66651340D03*
X97075550Y-67951820D03*
X97075550Y-69252300D03*
X97075550Y-70547700D03*
X97075550Y-71848180D03*
X97075550Y-73148660D03*
X97075550Y-74449140D03*
D15*
X95574410Y-76399860D03*
X94273930Y-76399860D03*
X92975990Y-76399860D03*
X91675510Y-76399860D03*
X90375030Y-76399860D03*
X89074550Y-76399860D03*
X87774070Y-76399860D03*
X86476130Y-76399860D03*
X85175650Y-76399860D03*
X83875170Y-76399860D03*
X82577230Y-76399860D03*
X81276750Y-76399860D03*
X79976270Y-76399860D03*
X78678330Y-76399860D03*
X77377850Y-76399860D03*
X76077370Y-76399860D03*
D17*
X88000000Y-78775000D03*
X88000000Y-83225000D03*
X83000000Y-83225000D03*
X83000000Y-78775000D03*
X78000000Y-83225000D03*
X78000000Y-78775000D03*
D18*
X99912500Y-76200000D03*
X98087500Y-76200000D03*
D19*
X111575000Y-75900000D03*
X109925000Y-75900000D03*
X113175000Y-78000000D03*
X114825000Y-78000000D03*
X116400000Y-75825000D03*
X114750000Y-75825000D03*
D20*
X110940000Y-74300000D03*
X111960000Y-74300000D03*
D21*
X115150000Y-65175000D03*
X116800000Y-65175000D03*
D20*
X113500000Y-65825000D03*
X112480000Y-65825000D03*
D22*
X113325000Y-63975000D03*
X113325000Y-62325000D03*
X116078000Y-63626000D03*
X116078000Y-61976000D03*
D23*
X106640000Y-62425000D03*
X107660000Y-62425000D03*
X110060000Y-68875000D03*
X109040000Y-68875000D03*
D24*
X109050000Y-66665000D03*
X109050000Y-67685000D03*
D25*
X104632500Y-79725000D03*
X104632500Y-78075000D03*
D22*
X101332500Y-79725000D03*
X101332500Y-78075000D03*
D26*
X92900000Y-81375000D03*
X92900000Y-83200000D03*
D18*
X91737500Y-79050000D03*
X93562500Y-79050000D03*
D24*
X90200000Y-79410000D03*
X90200000Y-78390000D03*
X85200000Y-79420000D03*
X85200000Y-78400000D03*
X80200000Y-79510000D03*
X80200000Y-78490000D03*
X107582500Y-81400000D03*
X107582500Y-80380000D03*
D27*
X113182500Y-82160000D03*
X113182500Y-81140000D03*
D20*
X110042500Y-83750000D03*
X109022500Y-83750000D03*
D28*
X109245000Y-81400000D03*
X111120000Y-82350000D03*
X111120000Y-80450000D03*
D29*
X109250000Y-61375000D03*
X110220000Y-61375000D03*
D30*
X121950000Y-65950000D03*
D31*
X121950000Y-68490000D03*
X121950000Y-71030000D03*
X121950000Y-73570000D03*
D30*
X100275000Y-71800000D03*
D31*
X102815000Y-71800000D03*
X105355000Y-71800000D03*
X107895000Y-71800000D03*
X110435000Y-71800000D03*
X96774000Y-79253000D03*
D30*
X96774000Y-81793000D03*
D32*
X104632500Y-83250000D03*
X104632500Y-81375000D03*
X101357500Y-83250000D03*
X101357500Y-81375000D03*
D33*
X120025000Y-81000000D03*
X122975000Y-81000000D03*
D12*
X107520000Y-76050000D03*
X108480000Y-76050000D03*
X109352500Y-77650000D03*
X110312500Y-77650000D03*
D11*
X119680000Y-76200000D03*
X118720000Y-76200000D03*
D34*
X107100000Y-66075000D03*
X107100000Y-69025000D03*
D33*
X121314000Y-62484000D03*
X118364000Y-62484000D03*
D10*
X108950000Y-63635000D03*
X108950000Y-62675000D03*
D34*
X104550000Y-68250000D03*
X104550000Y-65300000D03*
D35*
X100000000Y-65875000D03*
X100000000Y-62925000D03*
D12*
X107592500Y-83200000D03*
X106632500Y-83200000D03*
M02*
