G04 #@! TF.GenerationSoftware,KiCad,Pcbnew,(6.0.4)*
G04 #@! TF.CreationDate,2022-05-02T12:08:19+02:00*
G04 #@! TF.ProjectId,Support-Board-for-TS3008,53757070-6f72-4742-9d42-6f6172642d66,rev?*
G04 #@! TF.SameCoordinates,Original*
G04 #@! TF.FileFunction,Legend,Top*
G04 #@! TF.FilePolarity,Positive*
%FSLAX46Y46*%
G04 Gerber Fmt 4.6, Leading zero omitted, Abs format (unit mm)*
G04 Created by KiCad (PCBNEW (6.0.4)) date 2022-05-02 12:08:19*
%MOMM*%
%LPD*%
G01*
G04 APERTURE LIST*
%ADD10C,0.150000*%
%ADD11C,0.120000*%
%ADD12C,0.304800*%
%ADD13C,0.066040*%
G04 APERTURE END LIST*
D10*
X100663523Y-74430000D02*
X100568285Y-74382380D01*
X100425428Y-74382380D01*
X100282571Y-74430000D01*
X100187333Y-74525238D01*
X100139714Y-74620476D01*
X100092095Y-74810952D01*
X100092095Y-74953809D01*
X100139714Y-75144285D01*
X100187333Y-75239523D01*
X100282571Y-75334761D01*
X100425428Y-75382380D01*
X100520666Y-75382380D01*
X100663523Y-75334761D01*
X100711142Y-75287142D01*
X100711142Y-74953809D01*
X100520666Y-74953809D01*
X101139714Y-75382380D02*
X101139714Y-74382380D01*
X101711142Y-75382380D01*
X101711142Y-74382380D01*
X102187333Y-75382380D02*
X102187333Y-74382380D01*
X102425428Y-74382380D01*
X102568285Y-74430000D01*
X102663523Y-74525238D01*
X102711142Y-74620476D01*
X102758761Y-74810952D01*
X102758761Y-74953809D01*
X102711142Y-75144285D01*
X102663523Y-75239523D01*
X102568285Y-75334761D01*
X102425428Y-75382380D01*
X102187333Y-75382380D01*
X103139714Y-75096666D02*
X103615904Y-75096666D01*
X103044476Y-75382380D02*
X103377809Y-74382380D01*
X103711142Y-75382380D01*
X98306000Y-80484904D02*
X98258380Y-80580142D01*
X98258380Y-80723000D01*
X98306000Y-80865857D01*
X98401238Y-80961095D01*
X98496476Y-81008714D01*
X98686952Y-81056333D01*
X98829809Y-81056333D01*
X99020285Y-81008714D01*
X99115523Y-80961095D01*
X99210761Y-80865857D01*
X99258380Y-80723000D01*
X99258380Y-80627761D01*
X99210761Y-80484904D01*
X99163142Y-80437285D01*
X98829809Y-80437285D01*
X98829809Y-80627761D01*
X99258380Y-80008714D02*
X98258380Y-80008714D01*
X99258380Y-79437285D01*
X98258380Y-79437285D01*
X99258380Y-78961095D02*
X98258380Y-78961095D01*
X98258380Y-78723000D01*
X98306000Y-78580142D01*
X98401238Y-78484904D01*
X98496476Y-78437285D01*
X98686952Y-78389666D01*
X98829809Y-78389666D01*
X99020285Y-78437285D01*
X99115523Y-78484904D01*
X99210761Y-78580142D01*
X99258380Y-78723000D01*
X99258380Y-78961095D01*
X99258380Y-77961095D02*
X98258380Y-77961095D01*
X98258380Y-77723000D01*
X98306000Y-77580142D01*
X98401238Y-77484904D01*
X98496476Y-77437285D01*
X98686952Y-77389666D01*
X98829809Y-77389666D01*
X99020285Y-77437285D01*
X99115523Y-77484904D01*
X99210761Y-77580142D01*
X99258380Y-77723000D01*
X99258380Y-77961095D01*
X94932666Y-83272380D02*
X95266000Y-84272380D01*
X95599333Y-83272380D01*
X95932666Y-84272380D02*
X95932666Y-83272380D01*
X96170761Y-83272380D01*
X96313619Y-83320000D01*
X96408857Y-83415238D01*
X96456476Y-83510476D01*
X96504095Y-83700952D01*
X96504095Y-83843809D01*
X96456476Y-84034285D01*
X96408857Y-84129523D01*
X96313619Y-84224761D01*
X96170761Y-84272380D01*
X95932666Y-84272380D01*
X96932666Y-84272380D02*
X96932666Y-83272380D01*
X97170761Y-83272380D01*
X97313619Y-83320000D01*
X97408857Y-83415238D01*
X97456476Y-83510476D01*
X97504095Y-83700952D01*
X97504095Y-83843809D01*
X97456476Y-84034285D01*
X97408857Y-84129523D01*
X97313619Y-84224761D01*
X97170761Y-84272380D01*
X96932666Y-84272380D01*
X80843428Y-80898952D02*
X80843428Y-80137047D01*
X85471047Y-80589428D02*
X86232952Y-80589428D01*
X85852000Y-80970380D02*
X85852000Y-80208476D01*
X76144380Y-82041809D02*
X75144380Y-82041809D01*
X75144380Y-81660857D01*
X75192000Y-81565619D01*
X75239619Y-81518000D01*
X75334857Y-81470380D01*
X75477714Y-81470380D01*
X75572952Y-81518000D01*
X75620571Y-81565619D01*
X75668190Y-81660857D01*
X75668190Y-82041809D01*
X76144380Y-80565619D02*
X76144380Y-81041809D01*
X75144380Y-81041809D01*
X75858666Y-80279904D02*
X75858666Y-79803714D01*
X76144380Y-80375142D02*
X75144380Y-80041809D01*
X76144380Y-79708476D01*
X75668190Y-79184666D02*
X76144380Y-79184666D01*
X75144380Y-79518000D02*
X75668190Y-79184666D01*
X75144380Y-78851333D01*
X83185333Y-69048380D02*
X83756761Y-69048380D01*
X83471047Y-70048380D02*
X83471047Y-69048380D01*
X84042476Y-70000761D02*
X84185333Y-70048380D01*
X84423428Y-70048380D01*
X84518666Y-70000761D01*
X84566285Y-69953142D01*
X84613904Y-69857904D01*
X84613904Y-69762666D01*
X84566285Y-69667428D01*
X84518666Y-69619809D01*
X84423428Y-69572190D01*
X84232952Y-69524571D01*
X84137714Y-69476952D01*
X84090095Y-69429333D01*
X84042476Y-69334095D01*
X84042476Y-69238857D01*
X84090095Y-69143619D01*
X84137714Y-69096000D01*
X84232952Y-69048380D01*
X84471047Y-69048380D01*
X84613904Y-69096000D01*
X84947238Y-69048380D02*
X85566285Y-69048380D01*
X85232952Y-69429333D01*
X85375809Y-69429333D01*
X85471047Y-69476952D01*
X85518666Y-69524571D01*
X85566285Y-69619809D01*
X85566285Y-69857904D01*
X85518666Y-69953142D01*
X85471047Y-70000761D01*
X85375809Y-70048380D01*
X85090095Y-70048380D01*
X84994857Y-70000761D01*
X84947238Y-69953142D01*
X86185333Y-69048380D02*
X86280571Y-69048380D01*
X86375809Y-69096000D01*
X86423428Y-69143619D01*
X86471047Y-69238857D01*
X86518666Y-69429333D01*
X86518666Y-69667428D01*
X86471047Y-69857904D01*
X86423428Y-69953142D01*
X86375809Y-70000761D01*
X86280571Y-70048380D01*
X86185333Y-70048380D01*
X86090095Y-70000761D01*
X86042476Y-69953142D01*
X85994857Y-69857904D01*
X85947238Y-69667428D01*
X85947238Y-69429333D01*
X85994857Y-69238857D01*
X86042476Y-69143619D01*
X86090095Y-69096000D01*
X86185333Y-69048380D01*
X87137714Y-69048380D02*
X87232952Y-69048380D01*
X87328190Y-69096000D01*
X87375809Y-69143619D01*
X87423428Y-69238857D01*
X87471047Y-69429333D01*
X87471047Y-69667428D01*
X87423428Y-69857904D01*
X87375809Y-69953142D01*
X87328190Y-70000761D01*
X87232952Y-70048380D01*
X87137714Y-70048380D01*
X87042476Y-70000761D01*
X86994857Y-69953142D01*
X86947238Y-69857904D01*
X86899619Y-69667428D01*
X86899619Y-69429333D01*
X86947238Y-69238857D01*
X86994857Y-69143619D01*
X87042476Y-69096000D01*
X87137714Y-69048380D01*
X88042476Y-69476952D02*
X87947238Y-69429333D01*
X87899619Y-69381714D01*
X87852000Y-69286476D01*
X87852000Y-69238857D01*
X87899619Y-69143619D01*
X87947238Y-69096000D01*
X88042476Y-69048380D01*
X88232952Y-69048380D01*
X88328190Y-69096000D01*
X88375809Y-69143619D01*
X88423428Y-69238857D01*
X88423428Y-69286476D01*
X88375809Y-69381714D01*
X88328190Y-69429333D01*
X88232952Y-69476952D01*
X88042476Y-69476952D01*
X87947238Y-69524571D01*
X87899619Y-69572190D01*
X87852000Y-69667428D01*
X87852000Y-69857904D01*
X87899619Y-69953142D01*
X87947238Y-70000761D01*
X88042476Y-70048380D01*
X88232952Y-70048380D01*
X88328190Y-70000761D01*
X88375809Y-69953142D01*
X88423428Y-69857904D01*
X88423428Y-69667428D01*
X88375809Y-69572190D01*
X88328190Y-69524571D01*
X88232952Y-69476952D01*
X119134000Y-72310476D02*
X119086380Y-72405714D01*
X119086380Y-72548571D01*
X119134000Y-72691428D01*
X119229238Y-72786666D01*
X119324476Y-72834285D01*
X119514952Y-72881904D01*
X119657809Y-72881904D01*
X119848285Y-72834285D01*
X119943523Y-72786666D01*
X120038761Y-72691428D01*
X120086380Y-72548571D01*
X120086380Y-72453333D01*
X120038761Y-72310476D01*
X119991142Y-72262857D01*
X119657809Y-72262857D01*
X119657809Y-72453333D01*
X120086380Y-71834285D02*
X119086380Y-71834285D01*
X120086380Y-71262857D01*
X119086380Y-71262857D01*
X120086380Y-70786666D02*
X119086380Y-70786666D01*
X119086380Y-70548571D01*
X119134000Y-70405714D01*
X119229238Y-70310476D01*
X119324476Y-70262857D01*
X119514952Y-70215238D01*
X119657809Y-70215238D01*
X119848285Y-70262857D01*
X119943523Y-70310476D01*
X120038761Y-70405714D01*
X120086380Y-70548571D01*
X120086380Y-70786666D01*
X119800666Y-69834285D02*
X119800666Y-69358095D01*
X120086380Y-69929523D02*
X119086380Y-69596190D01*
X120086380Y-69262857D01*
X120848571Y-76144380D02*
X120848571Y-75144380D01*
X121181904Y-75858666D01*
X121515238Y-75144380D01*
X121515238Y-76144380D01*
X121991428Y-76144380D02*
X121991428Y-75144380D01*
X123039047Y-76049142D02*
X122991428Y-76096761D01*
X122848571Y-76144380D01*
X122753333Y-76144380D01*
X122610476Y-76096761D01*
X122515238Y-76001523D01*
X122467619Y-75906285D01*
X122420000Y-75715809D01*
X122420000Y-75572952D01*
X122467619Y-75382476D01*
X122515238Y-75287238D01*
X122610476Y-75192000D01*
X122753333Y-75144380D01*
X122848571Y-75144380D01*
X122991428Y-75192000D01*
X123039047Y-75239619D01*
X124261523Y-69032380D02*
X123928190Y-68556190D01*
X123690095Y-69032380D02*
X123690095Y-68032380D01*
X124071047Y-68032380D01*
X124166285Y-68080000D01*
X124213904Y-68127619D01*
X124261523Y-68222857D01*
X124261523Y-68365714D01*
X124213904Y-68460952D01*
X124166285Y-68508571D01*
X124071047Y-68556190D01*
X123690095Y-68556190D01*
X123499523Y-63952380D02*
X123023333Y-63952380D01*
X123023333Y-62952380D01*
D11*
X111665000Y-61967164D02*
X111665000Y-62182836D01*
X112385000Y-61967164D02*
X112385000Y-62182836D01*
X114220164Y-61320000D02*
X114435836Y-61320000D01*
X114220164Y-60600000D02*
X114435836Y-60600000D01*
X107482836Y-61015000D02*
X107267164Y-61015000D01*
X107482836Y-61735000D02*
X107267164Y-61735000D01*
X106482836Y-63240000D02*
X106267164Y-63240000D01*
X106482836Y-63960000D02*
X106267164Y-63960000D01*
X118688748Y-78935000D02*
X119211252Y-78935000D01*
X118688748Y-77465000D02*
X119211252Y-77465000D01*
X112890000Y-70800000D02*
X112890000Y-68850000D01*
X118010000Y-70800000D02*
X118010000Y-67350000D01*
X112890000Y-70800000D02*
X112890000Y-72750000D01*
X118010000Y-70800000D02*
X118010000Y-72750000D01*
D12*
X76973990Y-73710000D02*
G75*
G03*
X76973990Y-73710000I-497840J0D01*
G01*
X70126150Y-72440000D02*
X70126150Y-74980000D01*
X73936150Y-72440000D02*
X70126150Y-72440000D01*
X73936150Y-71170000D02*
X73936150Y-72440000D01*
X70126150Y-71170000D02*
X73936150Y-71170000D01*
X70126150Y-69900000D02*
X70126150Y-71170000D01*
X73936150Y-69900000D02*
X70126150Y-69900000D01*
X73936150Y-68630000D02*
X73936150Y-69900000D01*
X70126150Y-68630000D02*
X73936150Y-68630000D01*
X70126150Y-67360000D02*
X70126150Y-68630000D01*
X73936150Y-67360000D02*
X70126150Y-67360000D01*
X73936150Y-66090000D02*
X73936150Y-67360000D01*
X70126150Y-66090000D02*
X73936150Y-66090000D01*
X70126150Y-64820000D02*
X70126150Y-66090000D01*
X75206150Y-64820000D02*
X70126150Y-64820000D01*
D13*
X77746150Y-74980000D02*
X77746150Y-64820000D01*
X77746150Y-64820000D02*
X95526150Y-64820000D01*
X95526150Y-74980000D02*
X95526150Y-64820000D01*
X77746150Y-74980000D02*
X95526150Y-74980000D01*
D11*
X89600000Y-78000000D02*
X86400000Y-78000000D01*
X89600000Y-84000000D02*
X86400000Y-84000000D01*
X89600000Y-84000000D02*
X89600000Y-78000000D01*
X86400000Y-78000000D02*
X86400000Y-84000000D01*
X81400000Y-78000000D02*
X81400000Y-84000000D01*
X84600000Y-84000000D02*
X84600000Y-78000000D01*
X84600000Y-84000000D02*
X81400000Y-84000000D01*
X84600000Y-78000000D02*
X81400000Y-78000000D01*
X76400000Y-78000000D02*
X76400000Y-84000000D01*
X79600000Y-84000000D02*
X79600000Y-78000000D01*
X79600000Y-84000000D02*
X76400000Y-84000000D01*
X79600000Y-78000000D02*
X76400000Y-78000000D01*
X99227064Y-76935000D02*
X98772936Y-76935000D01*
X99227064Y-75465000D02*
X98772936Y-75465000D01*
X110512742Y-75377500D02*
X110987258Y-75377500D01*
X110512742Y-76422500D02*
X110987258Y-76422500D01*
X113762742Y-78522500D02*
X114237258Y-78522500D01*
X113762742Y-77477500D02*
X114237258Y-77477500D01*
X115337742Y-75302500D02*
X115812258Y-75302500D01*
X115337742Y-76347500D02*
X115812258Y-76347500D01*
X111296359Y-73920000D02*
X111603641Y-73920000D01*
X111296359Y-74680000D02*
X111603641Y-74680000D01*
X116212258Y-65697500D02*
X115737742Y-65697500D01*
X116212258Y-64652500D02*
X115737742Y-64652500D01*
X112836359Y-66205000D02*
X113143641Y-66205000D01*
X112836359Y-65445000D02*
X113143641Y-65445000D01*
X113847500Y-62912742D02*
X113847500Y-63387258D01*
X112802500Y-62912742D02*
X112802500Y-63387258D01*
X116600500Y-62563742D02*
X116600500Y-63038258D01*
X115555500Y-62563742D02*
X115555500Y-63038258D01*
X107303641Y-62045000D02*
X106996359Y-62045000D01*
X107303641Y-62805000D02*
X106996359Y-62805000D01*
X109703641Y-69255000D02*
X109396359Y-69255000D01*
X109703641Y-68495000D02*
X109396359Y-68495000D01*
X109430000Y-67328641D02*
X109430000Y-67021359D01*
X108670000Y-67328641D02*
X108670000Y-67021359D01*
X105155000Y-79137258D02*
X105155000Y-78662742D01*
X104110000Y-79137258D02*
X104110000Y-78662742D01*
X101855000Y-78662742D02*
X101855000Y-79137258D01*
X100810000Y-78662742D02*
X100810000Y-79137258D01*
X93635000Y-82514564D02*
X93635000Y-82060436D01*
X92165000Y-82514564D02*
X92165000Y-82060436D01*
X92877064Y-78315000D02*
X92422936Y-78315000D01*
X92877064Y-79785000D02*
X92422936Y-79785000D01*
X89820000Y-79053641D02*
X89820000Y-78746359D01*
X90580000Y-79053641D02*
X90580000Y-78746359D01*
X84820000Y-79063641D02*
X84820000Y-78756359D01*
X85580000Y-79063641D02*
X85580000Y-78756359D01*
X79820000Y-79153641D02*
X79820000Y-78846359D01*
X80580000Y-79153641D02*
X80580000Y-78846359D01*
X107202500Y-81043641D02*
X107202500Y-80736359D01*
X107962500Y-81043641D02*
X107962500Y-80736359D01*
X112802500Y-81496359D02*
X112802500Y-81803641D01*
X113562500Y-81496359D02*
X113562500Y-81803641D01*
X109378859Y-84130000D02*
X109686141Y-84130000D01*
X109378859Y-83370000D02*
X109686141Y-83370000D01*
X110182500Y-79840000D02*
X111782500Y-79840000D01*
X110182500Y-79840000D02*
X109532500Y-79840000D01*
X110982500Y-82960000D02*
X109532500Y-82960000D01*
X123280000Y-67220000D02*
X123280000Y-74900000D01*
X120620000Y-65950000D02*
X120620000Y-64620000D01*
X120620000Y-74900000D02*
X123280000Y-74900000D01*
X120620000Y-67220000D02*
X123280000Y-67220000D01*
X120620000Y-64620000D02*
X121950000Y-64620000D01*
X120620000Y-67220000D02*
X120620000Y-74900000D01*
X101545000Y-70470000D02*
X111765000Y-70470000D01*
X98945000Y-73130000D02*
X98945000Y-71800000D01*
X101545000Y-73130000D02*
X111765000Y-73130000D01*
X111765000Y-73130000D02*
X111765000Y-70470000D01*
X101545000Y-73130000D02*
X101545000Y-70470000D01*
X100275000Y-73130000D02*
X98945000Y-73130000D01*
X95444000Y-80523000D02*
X95444000Y-77923000D01*
X98104000Y-83123000D02*
X96774000Y-83123000D01*
X98104000Y-80523000D02*
X95444000Y-80523000D01*
X98104000Y-80523000D02*
X98104000Y-77923000D01*
X98104000Y-77923000D02*
X95444000Y-77923000D01*
X98104000Y-81793000D02*
X98104000Y-83123000D01*
X105592500Y-83312500D02*
X105592500Y-80627500D01*
X105592500Y-80627500D02*
X103672500Y-80627500D01*
X103672500Y-80627500D02*
X103672500Y-83312500D01*
X102317500Y-83312500D02*
X102317500Y-80627500D01*
X102317500Y-80627500D02*
X100397500Y-80627500D01*
X100397500Y-80627500D02*
X100397500Y-83312500D01*
X120788748Y-80090000D02*
X122211252Y-80090000D01*
X120788748Y-81910000D02*
X122211252Y-81910000D01*
X108107836Y-76410000D02*
X107892164Y-76410000D01*
X108107836Y-75690000D02*
X107892164Y-75690000D01*
X109940336Y-78010000D02*
X109724664Y-78010000D01*
X109940336Y-77290000D02*
X109724664Y-77290000D01*
X119092164Y-75840000D02*
X119307836Y-75840000D01*
X119092164Y-76560000D02*
X119307836Y-76560000D01*
X108010000Y-66838748D02*
X108010000Y-68261252D01*
X106190000Y-66838748D02*
X106190000Y-68261252D01*
X119127748Y-63394000D02*
X120550252Y-63394000D01*
X119127748Y-61574000D02*
X120550252Y-61574000D01*
X109310000Y-63047164D02*
X109310000Y-63262836D01*
X108590000Y-63047164D02*
X108590000Y-63262836D01*
X103640000Y-66063748D02*
X103640000Y-67486252D01*
X105460000Y-66063748D02*
X105460000Y-67486252D01*
X99090000Y-65111252D02*
X99090000Y-63688748D01*
X100910000Y-65111252D02*
X100910000Y-63688748D01*
X107220336Y-82840000D02*
X107004664Y-82840000D01*
X107220336Y-83560000D02*
X107004664Y-83560000D01*
M02*
