G04 #@! TF.GenerationSoftware,KiCad,Pcbnew,(6.0.4)*
G04 #@! TF.CreationDate,2022-05-02T12:08:19+02:00*
G04 #@! TF.ProjectId,Support-Board-for-TS3008,53757070-6f72-4742-9d42-6f6172642d66,rev?*
G04 #@! TF.SameCoordinates,Original*
G04 #@! TF.FileFunction,Copper,L2,Bot*
G04 #@! TF.FilePolarity,Positive*
%FSLAX46Y46*%
G04 Gerber Fmt 4.6, Leading zero omitted, Abs format (unit mm)*
G04 Created by KiCad (PCBNEW (6.0.4)) date 2022-05-02 12:08:19*
%MOMM*%
%LPD*%
G01*
G04 APERTURE LIST*
G04 #@! TA.AperFunction,ComponentPad*
%ADD10R,1.700000X1.700000*%
G04 #@! TD*
G04 #@! TA.AperFunction,ComponentPad*
%ADD11O,1.700000X1.700000*%
G04 #@! TD*
G04 #@! TA.AperFunction,ViaPad*
%ADD12C,0.800000*%
G04 #@! TD*
G04 #@! TA.AperFunction,ViaPad*
%ADD13C,1.000000*%
G04 #@! TD*
G04 #@! TA.AperFunction,Conductor*
%ADD14C,0.400000*%
G04 #@! TD*
G04 #@! TA.AperFunction,Conductor*
%ADD15C,0.500000*%
G04 #@! TD*
G04 #@! TA.AperFunction,Conductor*
%ADD16C,1.000000*%
G04 #@! TD*
G04 APERTURE END LIST*
D10*
X121950000Y-65950000D03*
D11*
X121950000Y-68490000D03*
X121950000Y-71030000D03*
X121950000Y-73570000D03*
D10*
X100275000Y-71800000D03*
D11*
X102815000Y-71800000D03*
X105355000Y-71800000D03*
X107895000Y-71800000D03*
X110435000Y-71800000D03*
X96774000Y-79253000D03*
D10*
X96774000Y-81793000D03*
D12*
X112776000Y-79248000D03*
X108966000Y-78994000D03*
X110744000Y-78994000D03*
X122174000Y-78232000D03*
X121666000Y-76962000D03*
X122936000Y-83566000D03*
X120396000Y-83566000D03*
X118110000Y-83566000D03*
X115824000Y-83566000D03*
X83058000Y-69342000D03*
X81534000Y-67818000D03*
X86360000Y-72898000D03*
X84328000Y-72644000D03*
X83566000Y-71120000D03*
X81026000Y-70612000D03*
X79502000Y-69342000D03*
X79502000Y-67310000D03*
X90678000Y-83312000D03*
X90678000Y-82042000D03*
X80518000Y-82296000D03*
X85344000Y-82296000D03*
X105950000Y-80610000D03*
X107320000Y-78840000D03*
X87890000Y-67580000D03*
X94110000Y-66820000D03*
X95730000Y-66660000D03*
D13*
X111420000Y-68790000D03*
X117310000Y-72240000D03*
X100710000Y-63470000D03*
D12*
X110730000Y-63139500D03*
D13*
X120610000Y-78810000D03*
X107870000Y-74460000D03*
X100850000Y-67290000D03*
D12*
X105670000Y-61360000D03*
X105170000Y-63510000D03*
X97970000Y-63890000D03*
X88040000Y-64910000D03*
X84050000Y-65400000D03*
X85920000Y-65100000D03*
X113030000Y-60960000D03*
X105060332Y-62269668D03*
X79502000Y-65278000D03*
X94400000Y-73150000D03*
X93250000Y-71100000D03*
X108500000Y-77475000D03*
X106725000Y-75600000D03*
X110236000Y-67684989D03*
X111900000Y-65700000D03*
D13*
X98650000Y-83250000D03*
X117200000Y-79000000D03*
D12*
X94273930Y-65473930D03*
X89200000Y-66000000D03*
D13*
X91700000Y-65300000D03*
X90375030Y-65275030D03*
D12*
X80000000Y-74900000D03*
X89700000Y-77800000D03*
X80900000Y-73500000D03*
X84650000Y-77850000D03*
D13*
X104600000Y-76900000D03*
X101400000Y-76900000D03*
D12*
X108150000Y-81400000D03*
X112546250Y-80503750D03*
D14*
X113030000Y-60960000D02*
X113030000Y-61530000D01*
X105130664Y-62340000D02*
X105060332Y-62269668D01*
X113030000Y-61530000D02*
X112220000Y-62340000D01*
X112220000Y-62340000D02*
X105130664Y-62340000D01*
D15*
X110236000Y-67684989D02*
X110236000Y-67364000D01*
X110236000Y-67364000D02*
X111900000Y-65700000D01*
X93250000Y-71100000D02*
X93700000Y-71100000D01*
X93700000Y-71100000D02*
X96299031Y-73699031D01*
X96299031Y-73699031D02*
X104824031Y-73699031D01*
X104824031Y-73699031D02*
X106725000Y-75600000D01*
D16*
X112950000Y-83250000D02*
X117200000Y-79000000D01*
X98650000Y-83250000D02*
X112950000Y-83250000D01*
D14*
X94110000Y-66820000D02*
X94110000Y-68134022D01*
X94110000Y-68134022D02*
X99025489Y-73049511D01*
X99025489Y-73049511D02*
X101565489Y-73049511D01*
X101565489Y-73049511D02*
X102815000Y-71800000D01*
X95730000Y-66660000D02*
X99620489Y-70550489D01*
X99620489Y-70550489D02*
X104105489Y-70550489D01*
X104105489Y-70550489D02*
X105355000Y-71800000D01*
D16*
X107490489Y-70250489D02*
X112250489Y-70250489D01*
X112250489Y-70250489D02*
X115310489Y-70250489D01*
D14*
X111420000Y-68790000D02*
X111420000Y-69420000D01*
X111420000Y-69420000D02*
X112250489Y-70250489D01*
D16*
X115310489Y-70250489D02*
X116850000Y-71790000D01*
X100710000Y-63470000D02*
X107490489Y-70250489D01*
D14*
X97820000Y-63740000D02*
X89100000Y-63740000D01*
X97970000Y-63890000D02*
X97820000Y-63740000D01*
X89100000Y-63740000D02*
X88574490Y-64265510D01*
X88574490Y-64265510D02*
X88574490Y-64375510D01*
X110730000Y-63139500D02*
X111519500Y-63139500D01*
X111519500Y-63139500D02*
X121950000Y-73570000D01*
D16*
X107870000Y-74460000D02*
X116260000Y-74460000D01*
X116260000Y-74460000D02*
X120610000Y-78810000D01*
D14*
X84050000Y-65400000D02*
X88819511Y-60630489D01*
X88819511Y-60630489D02*
X104940489Y-60630489D01*
X104940489Y-60630489D02*
X105670000Y-61360000D01*
X105170000Y-63510000D02*
X104200000Y-62540000D01*
X104200000Y-62540000D02*
X88480000Y-62540000D01*
X88480000Y-62540000D02*
X85920000Y-65100000D01*
X88574490Y-64375510D02*
X88040000Y-64910000D01*
D15*
X108500000Y-77475000D02*
X106517824Y-77475000D01*
X106517824Y-77475000D02*
X103469264Y-74426440D01*
X97291535Y-74451440D02*
X95701440Y-74451440D01*
X103469264Y-74426440D02*
X97316535Y-74426440D01*
X95701440Y-74451440D02*
X94400000Y-73150000D01*
X97316535Y-74426440D02*
X97291535Y-74451440D01*
D16*
X101400000Y-76900000D02*
X99875959Y-75375960D01*
X91700000Y-72100000D02*
X91700000Y-65300000D01*
X99875959Y-75375960D02*
X97709839Y-75375960D01*
X97709839Y-75375960D02*
X97684839Y-75400960D01*
X97684839Y-75400960D02*
X95000960Y-75400960D01*
X95000960Y-75400960D02*
X91700000Y-72100000D01*
X104600000Y-76900000D02*
X103400480Y-78099520D01*
X99379102Y-76575480D02*
X98206696Y-76575480D01*
X103400480Y-78099520D02*
X100903142Y-78099520D01*
X100903142Y-78099520D02*
X99379102Y-76575480D01*
X98206696Y-76575480D02*
X98181696Y-76600480D01*
X98181696Y-76600480D02*
X94504102Y-76600480D01*
X94504102Y-76600480D02*
X90375030Y-72471408D01*
X90375030Y-72471408D02*
X90375030Y-65275030D01*
D15*
X108150000Y-81400000D02*
X105799040Y-79049040D01*
X98925000Y-77525000D02*
X98600000Y-77525000D01*
X105799040Y-79049040D02*
X100449040Y-79049040D01*
X100449040Y-79049040D02*
X98925000Y-77525000D01*
X98600000Y-77525000D02*
X98575000Y-77550000D01*
X94110798Y-77550000D02*
X89200000Y-72639202D01*
X98575000Y-77550000D02*
X94110798Y-77550000D01*
X89200000Y-72639202D02*
X89200000Y-66000000D01*
X82600000Y-74500000D02*
X82700000Y-74600000D01*
X89700000Y-75000000D02*
X89700000Y-77800000D01*
X82500000Y-72600000D02*
X82600000Y-72700000D01*
X82600000Y-72700000D02*
X82600000Y-74500000D01*
X82700000Y-74600000D02*
X89300000Y-74600000D01*
X79400000Y-72600000D02*
X82500000Y-72600000D01*
X79400000Y-74300000D02*
X79400000Y-72600000D01*
X89300000Y-74600000D02*
X89700000Y-75000000D01*
X80900000Y-73500000D02*
X81105954Y-73705954D01*
X83150000Y-77850000D02*
X84650000Y-77850000D01*
X81105954Y-73705954D02*
X81105954Y-75805954D01*
X81105954Y-75805954D02*
X83150000Y-77850000D01*
X79400000Y-74300000D02*
X80000000Y-74900000D01*
G04 #@! TA.AperFunction,Conductor*
G36*
X122970018Y-60510000D02*
G01*
X122984851Y-60512310D01*
X122984855Y-60512310D01*
X122993724Y-60513691D01*
X123008981Y-60511696D01*
X123034302Y-60510953D01*
X123203285Y-60523039D01*
X123221064Y-60525596D01*
X123411392Y-60566999D01*
X123428641Y-60572063D01*
X123611150Y-60640136D01*
X123627502Y-60647604D01*
X123798458Y-60740952D01*
X123813582Y-60750672D01*
X123969514Y-60867402D01*
X123983100Y-60879175D01*
X124120825Y-61016900D01*
X124132598Y-61030486D01*
X124249328Y-61186418D01*
X124259048Y-61201542D01*
X124352396Y-61372498D01*
X124359864Y-61388850D01*
X124427937Y-61571359D01*
X124433001Y-61588607D01*
X124474404Y-61778936D01*
X124476961Y-61796715D01*
X124488540Y-61958601D01*
X124487793Y-61976565D01*
X124487692Y-61984845D01*
X124486309Y-61993724D01*
X124488136Y-62007693D01*
X124490436Y-62025283D01*
X124491500Y-62041621D01*
X124491500Y-82950633D01*
X124490000Y-82970018D01*
X124487690Y-82984851D01*
X124487690Y-82984855D01*
X124486309Y-82993724D01*
X124488136Y-83007693D01*
X124488304Y-83008976D01*
X124489047Y-83034302D01*
X124479235Y-83171502D01*
X124476962Y-83203279D01*
X124474404Y-83221064D01*
X124448912Y-83338250D01*
X124433001Y-83411392D01*
X124427937Y-83428641D01*
X124359864Y-83611150D01*
X124352396Y-83627502D01*
X124259048Y-83798458D01*
X124249328Y-83813582D01*
X124132598Y-83969514D01*
X124120825Y-83983100D01*
X123983100Y-84120825D01*
X123969514Y-84132598D01*
X123813582Y-84249328D01*
X123798458Y-84259048D01*
X123627502Y-84352396D01*
X123611150Y-84359864D01*
X123428641Y-84427937D01*
X123411393Y-84433001D01*
X123221064Y-84474404D01*
X123203285Y-84476961D01*
X123041395Y-84488540D01*
X123023435Y-84487793D01*
X123015155Y-84487692D01*
X123006276Y-84486309D01*
X122974714Y-84490436D01*
X122958379Y-84491500D01*
X113179221Y-84491500D01*
X113111100Y-84471498D01*
X113064607Y-84417842D01*
X113054503Y-84347568D01*
X113083997Y-84282988D01*
X113143723Y-84244604D01*
X113145209Y-84244239D01*
X113146833Y-84244080D01*
X113235834Y-84217209D01*
X113236967Y-84216874D01*
X113320414Y-84192630D01*
X113320418Y-84192628D01*
X113326336Y-84190909D01*
X113331068Y-84188456D01*
X113336169Y-84186916D01*
X113346481Y-84181433D01*
X113418260Y-84143269D01*
X113419426Y-84142657D01*
X113496453Y-84102729D01*
X113501926Y-84099892D01*
X113506089Y-84096569D01*
X113510796Y-84094066D01*
X113582918Y-84035245D01*
X113583774Y-84034554D01*
X113622973Y-84003262D01*
X113625477Y-84000758D01*
X113626195Y-84000116D01*
X113630528Y-83996415D01*
X113664062Y-83969065D01*
X113669094Y-83962983D01*
X113693287Y-83933738D01*
X113701277Y-83924958D01*
X117863797Y-79762437D01*
X117875309Y-79752251D01*
X117898847Y-79733861D01*
X117936687Y-79690023D01*
X117942959Y-79683275D01*
X117948309Y-79677925D01*
X117970559Y-79650838D01*
X117972477Y-79648559D01*
X118028078Y-79584145D01*
X118031124Y-79578783D01*
X118034674Y-79573751D01*
X118034930Y-79573932D01*
X118035023Y-79573796D01*
X118034763Y-79573622D01*
X118038190Y-79568503D01*
X118042103Y-79563739D01*
X118082280Y-79488808D01*
X118083765Y-79486119D01*
X118122725Y-79417537D01*
X118125769Y-79412179D01*
X118127714Y-79406331D01*
X118130220Y-79400704D01*
X118130505Y-79400831D01*
X118130571Y-79400678D01*
X118130283Y-79400558D01*
X118132653Y-79394865D01*
X118135563Y-79389437D01*
X118137365Y-79383544D01*
X118160421Y-79308133D01*
X118161356Y-79305202D01*
X118186252Y-79230361D01*
X118186253Y-79230358D01*
X118188197Y-79224513D01*
X118188970Y-79218396D01*
X118190333Y-79212394D01*
X118190638Y-79212463D01*
X118190673Y-79212299D01*
X118190368Y-79212237D01*
X118191587Y-79206194D01*
X118193388Y-79200302D01*
X118201983Y-79115680D01*
X118202332Y-79112620D01*
X118203654Y-79102158D01*
X118212985Y-79028295D01*
X118213324Y-79004032D01*
X118213374Y-79003537D01*
X118213336Y-79003137D01*
X118213380Y-79000000D01*
X118203919Y-78903506D01*
X118200811Y-78870626D01*
X118195317Y-78812505D01*
X118195316Y-78812501D01*
X118194762Y-78806638D01*
X118194253Y-78804930D01*
X118194080Y-78803167D01*
X118167817Y-78716179D01*
X118166209Y-78710854D01*
X118166082Y-78710432D01*
X118139954Y-78622785D01*
X118139952Y-78622781D01*
X118138260Y-78617104D01*
X118137427Y-78615525D01*
X118136916Y-78613831D01*
X118134082Y-78608500D01*
X118093181Y-78531577D01*
X118091397Y-78528222D01*
X118078067Y-78502940D01*
X118048760Y-78447353D01*
X118048758Y-78447350D01*
X118046018Y-78442153D01*
X118044900Y-78440772D01*
X118044066Y-78439204D01*
X117982701Y-78363963D01*
X117974085Y-78353323D01*
X117925271Y-78293042D01*
X117925265Y-78293036D01*
X117921553Y-78288452D01*
X117920187Y-78287314D01*
X117919065Y-78285938D01*
X117907188Y-78276112D01*
X117844382Y-78224154D01*
X117844045Y-78223874D01*
X117774110Y-78165607D01*
X117774109Y-78165606D01*
X117769604Y-78161853D01*
X117768044Y-78161002D01*
X117766675Y-78159870D01*
X117761515Y-78157080D01*
X117761512Y-78157078D01*
X117681330Y-78113724D01*
X117680943Y-78113513D01*
X117678100Y-78111963D01*
X117595960Y-78067178D01*
X117594261Y-78066646D01*
X117592701Y-78065802D01*
X117500041Y-78037119D01*
X117407232Y-78008035D01*
X117405464Y-78007843D01*
X117403768Y-78007318D01*
X117397917Y-78006703D01*
X117397912Y-78006702D01*
X117307475Y-77997197D01*
X117307038Y-77997150D01*
X117216459Y-77987310D01*
X117216457Y-77987310D01*
X117210612Y-77986675D01*
X117208838Y-77986830D01*
X117207075Y-77986645D01*
X117134248Y-77993273D01*
X117110954Y-77995393D01*
X117110515Y-77995433D01*
X117013587Y-78003913D01*
X117011879Y-78004409D01*
X117010112Y-78004570D01*
X117004473Y-78006230D01*
X117004471Y-78006230D01*
X116916943Y-78031991D01*
X116916796Y-78032034D01*
X116823664Y-78059091D01*
X116822089Y-78059907D01*
X116820381Y-78060410D01*
X116815174Y-78063132D01*
X116815172Y-78063133D01*
X116734386Y-78105367D01*
X116734092Y-78105520D01*
X116648074Y-78150108D01*
X116646686Y-78151216D01*
X116645110Y-78152040D01*
X116569356Y-78212948D01*
X116529773Y-78244546D01*
X116529767Y-78244552D01*
X116527028Y-78246738D01*
X116526113Y-78247653D01*
X116524691Y-78248859D01*
X116495783Y-78272102D01*
X116490975Y-78275968D01*
X116463166Y-78309109D01*
X116458928Y-78314160D01*
X116451502Y-78322264D01*
X112569171Y-82204595D01*
X112506859Y-82238621D01*
X112480076Y-82241500D01*
X108897817Y-82241500D01*
X108829696Y-82221498D01*
X108783203Y-82167842D01*
X108773099Y-82097568D01*
X108804181Y-82031190D01*
X108884621Y-81941852D01*
X108884622Y-81941851D01*
X108889040Y-81936944D01*
X108984527Y-81771556D01*
X109043542Y-81589928D01*
X109063504Y-81400000D01*
X109043542Y-81210072D01*
X108984527Y-81028444D01*
X108889040Y-80863056D01*
X108761253Y-80721134D01*
X108606752Y-80608882D01*
X108600724Y-80606198D01*
X108600722Y-80606197D01*
X108438319Y-80533891D01*
X108438318Y-80533891D01*
X108432288Y-80531206D01*
X108425833Y-80529834D01*
X108425824Y-80529831D01*
X108369228Y-80517801D01*
X108306331Y-80483650D01*
X106382810Y-78560129D01*
X106370424Y-78545717D01*
X106361891Y-78534122D01*
X106361886Y-78534117D01*
X106357548Y-78528222D01*
X106351970Y-78523483D01*
X106351967Y-78523480D01*
X106317272Y-78494005D01*
X106309756Y-78487075D01*
X106304061Y-78481380D01*
X106294676Y-78473955D01*
X106281789Y-78463759D01*
X106278386Y-78460969D01*
X106248712Y-78435759D01*
X106209747Y-78376410D01*
X106209054Y-78305417D01*
X106246853Y-78245319D01*
X106311143Y-78215197D01*
X106360238Y-78217345D01*
X106417976Y-78231473D01*
X106417982Y-78231474D01*
X106423434Y-78232808D01*
X106429036Y-78233156D01*
X106429039Y-78233156D01*
X106434588Y-78233500D01*
X106434586Y-78233536D01*
X106438579Y-78233775D01*
X106442771Y-78234149D01*
X106449939Y-78235640D01*
X106527344Y-78233546D01*
X106530752Y-78233500D01*
X107957413Y-78233500D01*
X108031472Y-78257563D01*
X108037902Y-78262235D01*
X108037909Y-78262239D01*
X108043248Y-78266118D01*
X108049276Y-78268802D01*
X108049278Y-78268803D01*
X108211681Y-78341109D01*
X108217712Y-78343794D01*
X108311112Y-78363647D01*
X108398056Y-78382128D01*
X108398061Y-78382128D01*
X108404513Y-78383500D01*
X108595487Y-78383500D01*
X108601939Y-78382128D01*
X108601944Y-78382128D01*
X108688888Y-78363647D01*
X108782288Y-78343794D01*
X108788319Y-78341109D01*
X108950722Y-78268803D01*
X108950724Y-78268802D01*
X108956752Y-78266118D01*
X108962097Y-78262235D01*
X109026838Y-78215197D01*
X109111253Y-78153866D01*
X109117788Y-78146608D01*
X109234621Y-78016852D01*
X109234622Y-78016851D01*
X109239040Y-78011944D01*
X109334527Y-77846556D01*
X109393542Y-77664928D01*
X109399968Y-77603794D01*
X109412814Y-77481565D01*
X109413504Y-77475000D01*
X109396483Y-77313056D01*
X109394232Y-77291635D01*
X109394232Y-77291633D01*
X109393542Y-77285072D01*
X109334527Y-77103444D01*
X109325611Y-77088000D01*
X109263953Y-76981206D01*
X109239040Y-76938056D01*
X109215215Y-76911595D01*
X109115675Y-76801045D01*
X109115674Y-76801044D01*
X109111253Y-76796134D01*
X108983611Y-76703396D01*
X108962094Y-76687763D01*
X108962093Y-76687762D01*
X108956752Y-76683882D01*
X108950724Y-76681198D01*
X108950722Y-76681197D01*
X108788319Y-76608891D01*
X108788318Y-76608891D01*
X108782288Y-76606206D01*
X108688888Y-76586353D01*
X108601944Y-76567872D01*
X108601939Y-76567872D01*
X108595487Y-76566500D01*
X108404513Y-76566500D01*
X108398061Y-76567872D01*
X108398056Y-76567872D01*
X108311112Y-76586353D01*
X108217712Y-76606206D01*
X108211682Y-76608891D01*
X108211681Y-76608891D01*
X108049278Y-76681197D01*
X108049276Y-76681198D01*
X108043248Y-76683882D01*
X108037909Y-76687761D01*
X108037902Y-76687765D01*
X108031472Y-76692437D01*
X107957413Y-76716500D01*
X107038228Y-76716500D01*
X106970107Y-76696498D01*
X106923614Y-76642842D01*
X106913510Y-76572568D01*
X106943004Y-76507988D01*
X106999291Y-76470667D01*
X107000832Y-76470166D01*
X107007288Y-76468794D01*
X107013319Y-76466109D01*
X107175722Y-76393803D01*
X107175724Y-76393802D01*
X107181752Y-76391118D01*
X107336253Y-76278866D01*
X107346806Y-76267146D01*
X107459621Y-76141852D01*
X107459622Y-76141851D01*
X107464040Y-76136944D01*
X107559527Y-75971556D01*
X107618542Y-75789928D01*
X107621046Y-75766109D01*
X107637814Y-75606565D01*
X107638504Y-75600000D01*
X107637814Y-75593435D01*
X107637814Y-75589919D01*
X107657816Y-75521798D01*
X107711472Y-75475305D01*
X107778734Y-75464806D01*
X107842657Y-75472429D01*
X107842665Y-75472429D01*
X107848777Y-75473158D01*
X107854912Y-75472686D01*
X107854914Y-75472686D01*
X107904489Y-75468871D01*
X107914156Y-75468500D01*
X115790075Y-75468500D01*
X115858196Y-75488502D01*
X115879170Y-75505405D01*
X119850352Y-79476586D01*
X119860003Y-79487417D01*
X119881035Y-79513953D01*
X119885728Y-79517947D01*
X119885729Y-79517948D01*
X119922066Y-79548873D01*
X119929498Y-79555732D01*
X119932075Y-79558309D01*
X119951908Y-79574600D01*
X119962186Y-79583043D01*
X119963872Y-79584453D01*
X120031650Y-79642136D01*
X120037022Y-79645139D01*
X120037815Y-79645690D01*
X120038232Y-79646005D01*
X120038329Y-79646070D01*
X120040128Y-79647297D01*
X120040256Y-79647386D01*
X120040720Y-79647670D01*
X120041496Y-79648190D01*
X120046261Y-79652103D01*
X120051690Y-79655014D01*
X120051696Y-79655018D01*
X120124673Y-79694148D01*
X120126602Y-79695204D01*
X120198907Y-79735614D01*
X120198913Y-79735617D01*
X120204294Y-79738624D01*
X120210163Y-79740531D01*
X120211030Y-79740910D01*
X120211509Y-79741143D01*
X120211562Y-79741165D01*
X120213574Y-79742022D01*
X120213752Y-79742100D01*
X120214272Y-79742292D01*
X120215129Y-79742649D01*
X120220563Y-79745562D01*
X120226457Y-79747364D01*
X120305624Y-79771568D01*
X120307719Y-79772229D01*
X120386528Y-79797835D01*
X120386531Y-79797836D01*
X120392392Y-79799740D01*
X120398512Y-79800470D01*
X120399419Y-79800669D01*
X120399931Y-79800803D01*
X120400058Y-79800829D01*
X120402252Y-79801291D01*
X120402376Y-79801318D01*
X120402891Y-79801401D01*
X120403807Y-79801586D01*
X120409698Y-79803387D01*
X120415827Y-79804010D01*
X120415829Y-79804010D01*
X120498213Y-79812379D01*
X120500397Y-79812620D01*
X120573106Y-79821289D01*
X120588777Y-79823158D01*
X120594913Y-79822686D01*
X120595868Y-79822706D01*
X120596388Y-79822738D01*
X120596495Y-79822738D01*
X120598708Y-79822765D01*
X120598856Y-79822768D01*
X120599401Y-79822748D01*
X120600329Y-79822751D01*
X120606462Y-79823374D01*
X120695063Y-79814999D01*
X120697225Y-79814813D01*
X120725728Y-79812620D01*
X120779827Y-79808457D01*
X120779828Y-79808457D01*
X120785972Y-79807984D01*
X120791911Y-79806326D01*
X120792836Y-79806163D01*
X120793386Y-79806089D01*
X120793503Y-79806066D01*
X120795638Y-79805670D01*
X120795771Y-79805646D01*
X120796302Y-79805521D01*
X120797226Y-79805341D01*
X120803362Y-79804761D01*
X120816639Y-79800803D01*
X120888685Y-79779326D01*
X120890796Y-79778717D01*
X120970525Y-79756456D01*
X120970526Y-79756456D01*
X120976463Y-79754798D01*
X120981964Y-79752019D01*
X120982839Y-79751680D01*
X120983350Y-79751505D01*
X120983477Y-79751453D01*
X120985528Y-79750637D01*
X120985641Y-79750593D01*
X120986118Y-79750376D01*
X120986994Y-79750019D01*
X120992896Y-79748259D01*
X121071607Y-79706759D01*
X121073554Y-79705754D01*
X121147505Y-79668399D01*
X121147507Y-79668398D01*
X121152996Y-79665625D01*
X121157845Y-79661837D01*
X121158655Y-79661323D01*
X121159112Y-79661058D01*
X121159220Y-79660987D01*
X121161029Y-79659817D01*
X121161161Y-79659733D01*
X121161607Y-79659413D01*
X121162402Y-79658889D01*
X121167846Y-79656018D01*
X121223432Y-79611005D01*
X121236980Y-79600034D01*
X121238702Y-79598664D01*
X121303991Y-79547655D01*
X121303992Y-79547654D01*
X121308847Y-79543861D01*
X121312874Y-79539196D01*
X121313552Y-79538550D01*
X121313956Y-79538195D01*
X121314035Y-79538117D01*
X121315617Y-79536583D01*
X121315723Y-79536482D01*
X121316092Y-79536088D01*
X121316759Y-79535430D01*
X121321547Y-79531553D01*
X121378494Y-79463202D01*
X121379908Y-79461535D01*
X121438078Y-79394145D01*
X121441118Y-79388793D01*
X121441676Y-79388003D01*
X121441988Y-79387596D01*
X121442052Y-79387502D01*
X121443272Y-79385741D01*
X121443384Y-79385582D01*
X121443681Y-79385105D01*
X121444203Y-79384336D01*
X121448146Y-79379604D01*
X121451092Y-79374202D01*
X121451096Y-79374195D01*
X121490756Y-79301453D01*
X121491780Y-79299613D01*
X121535769Y-79222179D01*
X121537715Y-79216330D01*
X121538094Y-79215478D01*
X121538338Y-79214985D01*
X121538395Y-79214850D01*
X121539263Y-79212854D01*
X121539310Y-79212748D01*
X121539504Y-79212235D01*
X121539869Y-79211376D01*
X121542822Y-79205959D01*
X121569426Y-79121066D01*
X121570101Y-79118974D01*
X121596255Y-79040352D01*
X121596256Y-79040349D01*
X121598197Y-79034513D01*
X121598968Y-79028408D01*
X121599180Y-79027477D01*
X121599317Y-79026969D01*
X121599339Y-79026863D01*
X121599811Y-79024695D01*
X121599842Y-79024558D01*
X121599930Y-79024034D01*
X121600123Y-79023112D01*
X121601965Y-79017232D01*
X121611579Y-78928729D01*
X121611833Y-78926568D01*
X121622543Y-78841794D01*
X121622543Y-78841793D01*
X121622985Y-78838295D01*
X121623218Y-78821585D01*
X121623324Y-78820612D01*
X121623245Y-78819704D01*
X121623380Y-78810000D01*
X121620221Y-78777783D01*
X121614310Y-78717492D01*
X121614189Y-78716179D01*
X121606625Y-78629728D01*
X121606624Y-78629721D01*
X121606087Y-78623587D01*
X121604600Y-78618468D01*
X121604080Y-78613167D01*
X121577209Y-78524166D01*
X121576874Y-78523033D01*
X121552630Y-78439586D01*
X121552628Y-78439582D01*
X121550909Y-78433664D01*
X121548456Y-78428932D01*
X121546916Y-78423831D01*
X121529913Y-78391852D01*
X121503269Y-78341740D01*
X121502657Y-78340574D01*
X121462729Y-78263547D01*
X121459892Y-78258074D01*
X121456569Y-78253911D01*
X121454066Y-78249204D01*
X121395245Y-78177082D01*
X121394554Y-78176226D01*
X121363262Y-78137027D01*
X121360758Y-78134523D01*
X121360116Y-78133805D01*
X121356415Y-78129472D01*
X121329065Y-78095938D01*
X121319810Y-78088281D01*
X121293738Y-78066713D01*
X121284958Y-78058723D01*
X117016855Y-73790621D01*
X117007753Y-73780478D01*
X116987897Y-73755782D01*
X116984032Y-73750975D01*
X116945578Y-73718708D01*
X116941931Y-73715528D01*
X116940119Y-73713885D01*
X116937925Y-73711691D01*
X116904651Y-73684358D01*
X116903853Y-73683696D01*
X116832526Y-73623846D01*
X116827856Y-73621278D01*
X116823739Y-73617897D01*
X116741914Y-73574023D01*
X116740755Y-73573394D01*
X116664619Y-73531538D01*
X116664611Y-73531535D01*
X116659213Y-73528567D01*
X116654131Y-73526955D01*
X116649437Y-73524438D01*
X116560469Y-73497238D01*
X116559441Y-73496918D01*
X116470694Y-73468765D01*
X116465398Y-73468171D01*
X116460302Y-73466613D01*
X116367743Y-73457210D01*
X116366607Y-73457089D01*
X116332992Y-73453319D01*
X116320270Y-73451892D01*
X116320266Y-73451892D01*
X116316773Y-73451500D01*
X116313246Y-73451500D01*
X116312261Y-73451445D01*
X116306581Y-73450998D01*
X116277175Y-73448011D01*
X116269663Y-73447248D01*
X116269661Y-73447248D01*
X116263538Y-73446626D01*
X116221259Y-73450623D01*
X116217891Y-73450941D01*
X116206033Y-73451500D01*
X107929873Y-73451500D01*
X107916703Y-73450810D01*
X107883204Y-73447289D01*
X107883202Y-73447289D01*
X107877075Y-73446645D01*
X107826827Y-73451218D01*
X107822793Y-73451500D01*
X107820231Y-73451500D01*
X107817173Y-73451800D01*
X107817169Y-73451800D01*
X107775404Y-73455895D01*
X107774529Y-73455977D01*
X107762432Y-73457078D01*
X107680112Y-73464570D01*
X107676703Y-73465573D01*
X107673167Y-73465920D01*
X107582279Y-73493361D01*
X107581610Y-73493561D01*
X107490381Y-73520410D01*
X107487228Y-73522058D01*
X107483831Y-73523084D01*
X107478401Y-73525971D01*
X107478399Y-73525972D01*
X107472650Y-73529029D01*
X107399899Y-73567711D01*
X107399319Y-73568016D01*
X107315110Y-73612040D01*
X107312342Y-73614265D01*
X107309204Y-73615934D01*
X107304426Y-73619831D01*
X107235628Y-73675941D01*
X107234944Y-73676494D01*
X107165782Y-73732102D01*
X107165776Y-73732108D01*
X107160975Y-73735968D01*
X107158692Y-73738689D01*
X107155938Y-73740935D01*
X107152011Y-73745682D01*
X107152009Y-73745684D01*
X107095441Y-73814064D01*
X107094935Y-73814671D01*
X107033846Y-73887474D01*
X107032134Y-73890589D01*
X107029870Y-73893325D01*
X107026939Y-73898746D01*
X106984700Y-73976865D01*
X106984298Y-73977603D01*
X106938567Y-74060787D01*
X106937494Y-74064170D01*
X106935802Y-74067299D01*
X106907725Y-74158002D01*
X106907462Y-74158842D01*
X106880937Y-74242460D01*
X106878765Y-74249306D01*
X106878369Y-74252837D01*
X106877318Y-74256232D01*
X106872565Y-74301456D01*
X106867397Y-74350625D01*
X106867302Y-74351496D01*
X106864402Y-74377357D01*
X106836933Y-74442825D01*
X106778431Y-74483049D01*
X106707469Y-74485258D01*
X106650092Y-74452411D01*
X105547418Y-73349737D01*
X105513392Y-73287425D01*
X105518457Y-73216610D01*
X105561004Y-73159774D01*
X105620501Y-73135664D01*
X105633279Y-73134027D01*
X105633290Y-73134025D01*
X105638416Y-73133368D01*
X105643366Y-73131883D01*
X105847429Y-73070661D01*
X105847434Y-73070659D01*
X105852384Y-73069174D01*
X106052994Y-72970896D01*
X106234860Y-72841173D01*
X106257328Y-72818784D01*
X106341812Y-72734594D01*
X106393096Y-72683489D01*
X106398884Y-72675435D01*
X106523453Y-72502077D01*
X106524776Y-72503028D01*
X106571645Y-72459857D01*
X106641580Y-72447625D01*
X106707026Y-72475144D01*
X106734875Y-72506994D01*
X106794987Y-72605088D01*
X106941250Y-72773938D01*
X107113126Y-72916632D01*
X107306000Y-73029338D01*
X107310825Y-73031180D01*
X107310826Y-73031181D01*
X107383612Y-73058975D01*
X107514692Y-73109030D01*
X107519760Y-73110061D01*
X107519763Y-73110062D01*
X107613112Y-73129054D01*
X107733597Y-73153567D01*
X107738772Y-73153757D01*
X107738774Y-73153757D01*
X107951673Y-73161564D01*
X107951677Y-73161564D01*
X107956837Y-73161753D01*
X107961957Y-73161097D01*
X107961959Y-73161097D01*
X108173288Y-73134025D01*
X108173289Y-73134025D01*
X108178416Y-73133368D01*
X108183366Y-73131883D01*
X108387429Y-73070661D01*
X108387434Y-73070659D01*
X108392384Y-73069174D01*
X108592994Y-72970896D01*
X108774860Y-72841173D01*
X108797328Y-72818784D01*
X108881812Y-72734594D01*
X108933096Y-72683489D01*
X108938884Y-72675435D01*
X109063453Y-72502077D01*
X109064640Y-72502930D01*
X109111960Y-72459362D01*
X109181897Y-72447145D01*
X109247338Y-72474678D01*
X109275166Y-72506511D01*
X109332694Y-72600388D01*
X109338777Y-72608699D01*
X109478213Y-72769667D01*
X109485580Y-72776883D01*
X109649434Y-72912916D01*
X109657881Y-72918831D01*
X109841756Y-73026279D01*
X109851042Y-73030729D01*
X110050001Y-73106703D01*
X110059899Y-73109579D01*
X110163250Y-73130606D01*
X110177299Y-73129410D01*
X110181000Y-73119065D01*
X110181000Y-73118517D01*
X110689000Y-73118517D01*
X110693064Y-73132359D01*
X110706478Y-73134393D01*
X110713184Y-73133534D01*
X110723262Y-73131392D01*
X110927255Y-73070191D01*
X110936842Y-73066433D01*
X111128095Y-72972739D01*
X111136945Y-72967464D01*
X111310328Y-72843792D01*
X111318200Y-72837139D01*
X111469052Y-72686812D01*
X111475730Y-72678965D01*
X111600003Y-72506020D01*
X111605313Y-72497183D01*
X111699670Y-72306267D01*
X111703469Y-72296672D01*
X111765377Y-72092910D01*
X111767555Y-72082837D01*
X111768986Y-72071962D01*
X111766775Y-72057778D01*
X111753617Y-72054000D01*
X110707115Y-72054000D01*
X110691876Y-72058475D01*
X110690671Y-72059865D01*
X110689000Y-72067548D01*
X110689000Y-73118517D01*
X110181000Y-73118517D01*
X110181000Y-71672000D01*
X110201002Y-71603879D01*
X110254658Y-71557386D01*
X110307000Y-71546000D01*
X111753344Y-71546000D01*
X111766875Y-71542027D01*
X111768180Y-71532947D01*
X111738726Y-71415685D01*
X111741530Y-71344743D01*
X111782243Y-71286580D01*
X111847938Y-71259661D01*
X111860930Y-71258989D01*
X114840564Y-71258989D01*
X114908685Y-71278991D01*
X114929659Y-71295894D01*
X115550903Y-71917137D01*
X116172075Y-72538309D01*
X116286261Y-72632102D01*
X116357541Y-72670322D01*
X116377724Y-72681144D01*
X116430247Y-72734591D01*
X116458187Y-72788956D01*
X116581035Y-72943953D01*
X116585728Y-72947947D01*
X116585729Y-72947948D01*
X116698607Y-73044014D01*
X116731650Y-73072136D01*
X116904294Y-73168624D01*
X117092392Y-73229740D01*
X117288777Y-73253158D01*
X117294912Y-73252686D01*
X117294914Y-73252686D01*
X117479830Y-73238457D01*
X117479834Y-73238456D01*
X117485972Y-73237984D01*
X117676463Y-73184798D01*
X117681967Y-73182018D01*
X117681969Y-73182017D01*
X117847495Y-73098404D01*
X117847497Y-73098403D01*
X117852996Y-73095625D01*
X118008847Y-72973861D01*
X118123380Y-72841173D01*
X118134049Y-72828813D01*
X118134050Y-72828811D01*
X118138078Y-72824145D01*
X118235769Y-72652179D01*
X118298197Y-72464513D01*
X118322985Y-72268295D01*
X118323380Y-72240000D01*
X118304080Y-72043167D01*
X118302266Y-72037157D01*
X118270798Y-71932933D01*
X118246916Y-71853831D01*
X118154066Y-71679204D01*
X118071005Y-71577361D01*
X118032960Y-71530713D01*
X118032957Y-71530710D01*
X118029065Y-71525938D01*
X118024316Y-71522009D01*
X117881425Y-71403799D01*
X117881421Y-71403797D01*
X117876675Y-71399870D01*
X117871250Y-71396937D01*
X117871246Y-71396934D01*
X117781673Y-71348501D01*
X117729737Y-71295651D01*
X117721101Y-71278991D01*
X117699892Y-71238074D01*
X117634246Y-71155840D01*
X117605458Y-71119777D01*
X117605451Y-71119770D01*
X117603262Y-71117027D01*
X116067344Y-69581110D01*
X116058242Y-69570967D01*
X116038386Y-69546271D01*
X116034521Y-69541464D01*
X115996067Y-69509197D01*
X115992420Y-69506017D01*
X115990608Y-69504374D01*
X115988414Y-69502180D01*
X115955140Y-69474847D01*
X115954342Y-69474185D01*
X115883015Y-69414335D01*
X115878345Y-69411767D01*
X115874228Y-69408386D01*
X115809145Y-69373489D01*
X115792403Y-69364512D01*
X115791244Y-69363883D01*
X115715108Y-69322027D01*
X115715100Y-69322024D01*
X115709702Y-69319056D01*
X115704620Y-69317444D01*
X115699926Y-69314927D01*
X115610958Y-69287727D01*
X115609930Y-69287407D01*
X115521183Y-69259254D01*
X115515887Y-69258660D01*
X115510791Y-69257102D01*
X115418232Y-69247699D01*
X115417096Y-69247578D01*
X115383481Y-69243808D01*
X115370759Y-69242381D01*
X115370755Y-69242381D01*
X115367262Y-69241989D01*
X115363735Y-69241989D01*
X115362750Y-69241934D01*
X115357070Y-69241487D01*
X115327664Y-69238500D01*
X115320152Y-69237737D01*
X115320150Y-69237737D01*
X115314027Y-69237115D01*
X115274855Y-69240818D01*
X115268380Y-69241430D01*
X115256522Y-69241989D01*
X112507229Y-69241989D01*
X112439108Y-69221987D01*
X112392615Y-69168331D01*
X112382511Y-69098057D01*
X112387671Y-69076218D01*
X112406249Y-69020369D01*
X112408197Y-69014513D01*
X112432985Y-68818295D01*
X112433380Y-68790000D01*
X112414080Y-68593167D01*
X112404039Y-68559908D01*
X112373141Y-68457570D01*
X112356916Y-68403831D01*
X112264066Y-68229204D01*
X112166354Y-68109397D01*
X112142960Y-68080713D01*
X112142957Y-68080710D01*
X112139065Y-68075938D01*
X112076642Y-68024297D01*
X111991425Y-67953799D01*
X111991421Y-67953797D01*
X111986675Y-67949870D01*
X111812701Y-67855802D01*
X111623768Y-67797318D01*
X111617643Y-67796674D01*
X111617642Y-67796674D01*
X111433204Y-67777289D01*
X111433202Y-67777289D01*
X111427075Y-67776645D01*
X111285417Y-67789537D01*
X111215765Y-67775792D01*
X111164600Y-67726571D01*
X111148688Y-67677225D01*
X111140397Y-67598333D01*
X111153170Y-67528495D01*
X111176612Y-67496069D01*
X112056331Y-66616350D01*
X112119228Y-66582199D01*
X112175824Y-66570169D01*
X112175833Y-66570166D01*
X112182288Y-66568794D01*
X112188319Y-66566109D01*
X112350722Y-66493803D01*
X112350724Y-66493802D01*
X112356752Y-66491118D01*
X112376684Y-66476637D01*
X112423364Y-66442721D01*
X112511253Y-66378866D01*
X112523494Y-66365271D01*
X112634621Y-66241852D01*
X112634622Y-66241851D01*
X112639040Y-66236944D01*
X112734527Y-66071556D01*
X112793542Y-65889928D01*
X112801050Y-65818500D01*
X112811050Y-65723349D01*
X112838063Y-65657693D01*
X112896285Y-65617063D01*
X112967230Y-65614360D01*
X113025455Y-65647425D01*
X120577252Y-73199222D01*
X120611278Y-73261534D01*
X120611914Y-73311235D01*
X120610989Y-73314570D01*
X120587251Y-73536695D01*
X120587548Y-73541848D01*
X120587548Y-73541851D01*
X120595724Y-73683652D01*
X120600110Y-73759715D01*
X120601247Y-73764761D01*
X120601248Y-73764767D01*
X120618299Y-73840424D01*
X120649222Y-73977639D01*
X120733266Y-74184616D01*
X120735965Y-74189020D01*
X120835279Y-74351086D01*
X120849987Y-74375088D01*
X120996250Y-74543938D01*
X121168126Y-74686632D01*
X121361000Y-74799338D01*
X121569692Y-74879030D01*
X121574760Y-74880061D01*
X121574763Y-74880062D01*
X121682017Y-74901883D01*
X121788597Y-74923567D01*
X121793772Y-74923757D01*
X121793774Y-74923757D01*
X122006673Y-74931564D01*
X122006677Y-74931564D01*
X122011837Y-74931753D01*
X122016957Y-74931097D01*
X122016959Y-74931097D01*
X122228288Y-74904025D01*
X122228289Y-74904025D01*
X122233416Y-74903368D01*
X122238366Y-74901883D01*
X122442429Y-74840661D01*
X122442434Y-74840659D01*
X122447384Y-74839174D01*
X122647994Y-74740896D01*
X122829860Y-74611173D01*
X122988096Y-74453489D01*
X122993585Y-74445851D01*
X123115435Y-74276277D01*
X123118453Y-74272077D01*
X123123809Y-74261241D01*
X123215136Y-74076453D01*
X123215137Y-74076451D01*
X123217430Y-74071811D01*
X123271658Y-73893325D01*
X123280865Y-73863023D01*
X123280865Y-73863021D01*
X123282370Y-73858069D01*
X123311529Y-73636590D01*
X123311831Y-73624221D01*
X123313074Y-73573365D01*
X123313074Y-73573361D01*
X123313156Y-73570000D01*
X123294852Y-73347361D01*
X123240431Y-73130702D01*
X123151354Y-72925840D01*
X123098275Y-72843792D01*
X123032822Y-72742617D01*
X123032820Y-72742614D01*
X123030014Y-72738277D01*
X122879670Y-72573051D01*
X122875619Y-72569852D01*
X122875615Y-72569848D01*
X122708414Y-72437800D01*
X122708410Y-72437798D01*
X122704359Y-72434598D01*
X122663053Y-72411796D01*
X122613084Y-72361364D01*
X122598312Y-72291921D01*
X122623428Y-72225516D01*
X122650780Y-72198909D01*
X122711327Y-72155721D01*
X122829860Y-72071173D01*
X122842603Y-72058475D01*
X122982193Y-71919371D01*
X122988096Y-71913489D01*
X123015482Y-71875378D01*
X123115435Y-71736277D01*
X123118453Y-71732077D01*
X123122714Y-71723457D01*
X123215136Y-71536453D01*
X123215137Y-71536451D01*
X123217430Y-71531811D01*
X123282370Y-71318069D01*
X123311529Y-71096590D01*
X123313156Y-71030000D01*
X123294852Y-70807361D01*
X123240431Y-70590702D01*
X123151354Y-70385840D01*
X123081028Y-70277132D01*
X123032822Y-70202617D01*
X123032820Y-70202614D01*
X123030014Y-70198277D01*
X122879670Y-70033051D01*
X122875619Y-70029852D01*
X122875615Y-70029848D01*
X122708414Y-69897800D01*
X122708410Y-69897798D01*
X122704359Y-69894598D01*
X122663053Y-69871796D01*
X122613084Y-69821364D01*
X122598312Y-69751921D01*
X122623428Y-69685516D01*
X122650780Y-69658909D01*
X122694603Y-69627650D01*
X122829860Y-69531173D01*
X122858955Y-69502180D01*
X122984435Y-69377137D01*
X122988096Y-69373489D01*
X123047594Y-69290689D01*
X123115435Y-69196277D01*
X123118453Y-69192077D01*
X123164921Y-69098057D01*
X123215136Y-68996453D01*
X123215137Y-68996451D01*
X123217430Y-68991811D01*
X123282370Y-68778069D01*
X123311529Y-68556590D01*
X123313156Y-68490000D01*
X123294852Y-68267361D01*
X123240431Y-68050702D01*
X123151354Y-67845840D01*
X123106038Y-67775792D01*
X123032822Y-67662617D01*
X123032820Y-67662614D01*
X123030014Y-67658277D01*
X123026532Y-67654450D01*
X122882798Y-67496488D01*
X122851746Y-67432642D01*
X122860141Y-67362143D01*
X122905317Y-67307375D01*
X122931761Y-67293706D01*
X123038297Y-67253767D01*
X123046705Y-67250615D01*
X123163261Y-67163261D01*
X123250615Y-67046705D01*
X123301745Y-66910316D01*
X123308500Y-66848134D01*
X123308500Y-65051866D01*
X123301745Y-64989684D01*
X123250615Y-64853295D01*
X123163261Y-64736739D01*
X123046705Y-64649385D01*
X122910316Y-64598255D01*
X122848134Y-64591500D01*
X121051866Y-64591500D01*
X120989684Y-64598255D01*
X120853295Y-64649385D01*
X120736739Y-64736739D01*
X120649385Y-64853295D01*
X120598255Y-64989684D01*
X120591500Y-65051866D01*
X120591500Y-66848134D01*
X120598255Y-66910316D01*
X120649385Y-67046705D01*
X120736739Y-67163261D01*
X120853295Y-67250615D01*
X120861704Y-67253767D01*
X120861705Y-67253768D01*
X120970451Y-67294535D01*
X121027216Y-67337176D01*
X121051916Y-67403738D01*
X121036709Y-67473087D01*
X121017316Y-67499568D01*
X120890629Y-67632138D01*
X120764743Y-67816680D01*
X120734796Y-67881195D01*
X120702919Y-67949870D01*
X120670688Y-68019305D01*
X120610989Y-68234570D01*
X120587251Y-68456695D01*
X120587548Y-68461848D01*
X120587548Y-68461851D01*
X120594779Y-68587264D01*
X120600110Y-68679715D01*
X120601247Y-68684761D01*
X120601248Y-68684767D01*
X120621119Y-68772939D01*
X120649222Y-68897639D01*
X120687461Y-68991811D01*
X120730603Y-69098057D01*
X120733266Y-69104616D01*
X120784019Y-69187438D01*
X120845379Y-69287568D01*
X120849987Y-69295088D01*
X120996250Y-69463938D01*
X121168126Y-69606632D01*
X121238595Y-69647811D01*
X121241445Y-69649476D01*
X121290169Y-69701114D01*
X121303240Y-69770897D01*
X121276509Y-69836669D01*
X121236055Y-69870027D01*
X121223607Y-69876507D01*
X121219474Y-69879610D01*
X121219471Y-69879612D01*
X121049100Y-70007530D01*
X121044965Y-70010635D01*
X121035916Y-70020104D01*
X120909309Y-70152591D01*
X120890629Y-70172138D01*
X120887715Y-70176410D01*
X120887714Y-70176411D01*
X120825442Y-70267698D01*
X120764743Y-70356680D01*
X120725627Y-70440948D01*
X120682000Y-70534936D01*
X120670688Y-70559305D01*
X120610989Y-70774570D01*
X120610440Y-70779707D01*
X120595120Y-70923061D01*
X120567992Y-70988671D01*
X120509700Y-71029199D01*
X120438750Y-71031778D01*
X120380738Y-70998767D01*
X112542005Y-63160035D01*
X112507979Y-63097723D01*
X112513044Y-63026908D01*
X112555591Y-62970072D01*
X112570050Y-62961638D01*
X112569812Y-62961236D01*
X112576354Y-62957366D01*
X112583305Y-62954315D01*
X112634002Y-62915413D01*
X112639332Y-62911541D01*
X112685720Y-62879661D01*
X112685725Y-62879656D01*
X112691981Y-62875357D01*
X112733436Y-62828829D01*
X112738416Y-62823554D01*
X113510520Y-62051450D01*
X113516785Y-62045596D01*
X113540070Y-62025283D01*
X113560385Y-62007561D01*
X113597129Y-61955280D01*
X113601061Y-61949986D01*
X113635791Y-61905693D01*
X113640476Y-61899718D01*
X113643599Y-61892802D01*
X113644983Y-61890516D01*
X113653357Y-61875835D01*
X113654622Y-61873475D01*
X113658990Y-61867261D01*
X113682203Y-61807723D01*
X113684759Y-61801642D01*
X113700159Y-61767537D01*
X113711045Y-61743427D01*
X113712429Y-61735960D01*
X113713230Y-61733405D01*
X113717859Y-61717152D01*
X113718522Y-61714572D01*
X113721282Y-61707491D01*
X113722653Y-61697081D01*
X113729621Y-61644148D01*
X113730653Y-61637632D01*
X113738423Y-61595713D01*
X113742296Y-61574814D01*
X113741859Y-61567234D01*
X113741906Y-61566486D01*
X113765545Y-61500826D01*
X113769040Y-61496944D01*
X113836322Y-61380409D01*
X113861223Y-61337279D01*
X113861224Y-61337278D01*
X113864527Y-61331556D01*
X113923542Y-61149928D01*
X113943504Y-60960000D01*
X113933772Y-60867402D01*
X113924232Y-60776635D01*
X113924232Y-60776633D01*
X113923542Y-60770072D01*
X113892143Y-60673436D01*
X113890115Y-60602469D01*
X113926778Y-60541671D01*
X113990490Y-60510345D01*
X114011976Y-60508500D01*
X122950633Y-60508500D01*
X122970018Y-60510000D01*
G37*
G04 #@! TD.AperFunction*
G04 #@! TA.AperFunction,Conductor*
G36*
X87703461Y-60528502D02*
G01*
X87749954Y-60582158D01*
X87760058Y-60652432D01*
X87730564Y-60717012D01*
X87724435Y-60723595D01*
X83983467Y-64464563D01*
X83920569Y-64498715D01*
X83767712Y-64531206D01*
X83761682Y-64533891D01*
X83761681Y-64533891D01*
X83599278Y-64606197D01*
X83599276Y-64606198D01*
X83593248Y-64608882D01*
X83438747Y-64721134D01*
X83434326Y-64726044D01*
X83434325Y-64726045D01*
X83315457Y-64858062D01*
X83310960Y-64863056D01*
X83215473Y-65028444D01*
X83156458Y-65210072D01*
X83136496Y-65400000D01*
X83137186Y-65406565D01*
X83154093Y-65567422D01*
X83156458Y-65589928D01*
X83215473Y-65771556D01*
X83310960Y-65936944D01*
X83315378Y-65941851D01*
X83315379Y-65941852D01*
X83350749Y-65981134D01*
X83438747Y-66078866D01*
X83593248Y-66191118D01*
X83599276Y-66193802D01*
X83599278Y-66193803D01*
X83683332Y-66231226D01*
X83767712Y-66268794D01*
X83860157Y-66288444D01*
X83948056Y-66307128D01*
X83948061Y-66307128D01*
X83954513Y-66308500D01*
X84145487Y-66308500D01*
X84151939Y-66307128D01*
X84151944Y-66307128D01*
X84239843Y-66288444D01*
X84332288Y-66268794D01*
X84416668Y-66231226D01*
X84500722Y-66193803D01*
X84500724Y-66193802D01*
X84506752Y-66191118D01*
X84661253Y-66078866D01*
X84749251Y-65981134D01*
X84784621Y-65941852D01*
X84784622Y-65941851D01*
X84789040Y-65936944D01*
X84884527Y-65771556D01*
X84931813Y-65626027D01*
X84971885Y-65567422D01*
X85037282Y-65539785D01*
X85107239Y-65551892D01*
X85160763Y-65601962D01*
X85180960Y-65636944D01*
X85185378Y-65641851D01*
X85185379Y-65641852D01*
X85285342Y-65752872D01*
X85308747Y-65778866D01*
X85369463Y-65822979D01*
X85437985Y-65872763D01*
X85463248Y-65891118D01*
X85469276Y-65893802D01*
X85469278Y-65893803D01*
X85631681Y-65966109D01*
X85637712Y-65968794D01*
X85718871Y-65986045D01*
X85818056Y-66007128D01*
X85818061Y-66007128D01*
X85824513Y-66008500D01*
X86015487Y-66008500D01*
X86021939Y-66007128D01*
X86021944Y-66007128D01*
X86121129Y-65986045D01*
X86202288Y-65968794D01*
X86208319Y-65966109D01*
X86370722Y-65893803D01*
X86370724Y-65893802D01*
X86376752Y-65891118D01*
X86402016Y-65872763D01*
X86470537Y-65822979D01*
X86531253Y-65778866D01*
X86554658Y-65752872D01*
X86654621Y-65641852D01*
X86654622Y-65641851D01*
X86659040Y-65636944D01*
X86754527Y-65471556D01*
X86809125Y-65303523D01*
X86811502Y-65296207D01*
X86811502Y-65296205D01*
X86813542Y-65289928D01*
X86818450Y-65243230D01*
X86845463Y-65177573D01*
X86854665Y-65167305D01*
X86946033Y-65075937D01*
X87008345Y-65041911D01*
X87079160Y-65046976D01*
X87135996Y-65089523D01*
X87154960Y-65126094D01*
X87205473Y-65281556D01*
X87208776Y-65287278D01*
X87208777Y-65287279D01*
X87242686Y-65346010D01*
X87300960Y-65446944D01*
X87305378Y-65451851D01*
X87305379Y-65451852D01*
X87395455Y-65551892D01*
X87428747Y-65588866D01*
X87583248Y-65701118D01*
X87589276Y-65703802D01*
X87589278Y-65703803D01*
X87741455Y-65771556D01*
X87757712Y-65778794D01*
X87851113Y-65798647D01*
X87938056Y-65817128D01*
X87938061Y-65817128D01*
X87944513Y-65818500D01*
X88135487Y-65818500D01*
X88141944Y-65817128D01*
X88148515Y-65816437D01*
X88148706Y-65818257D01*
X88210611Y-65822979D01*
X88267245Y-65865794D01*
X88291741Y-65932431D01*
X88291331Y-65953995D01*
X88288887Y-65977251D01*
X88286496Y-66000000D01*
X88287186Y-66006565D01*
X88303985Y-66166394D01*
X88306458Y-66189928D01*
X88365473Y-66371556D01*
X88368776Y-66377278D01*
X88368777Y-66377279D01*
X88424619Y-66473999D01*
X88441500Y-66536999D01*
X88441500Y-72572132D01*
X88440067Y-72591082D01*
X88438606Y-72600688D01*
X88436801Y-72612551D01*
X88437394Y-72619843D01*
X88437394Y-72619846D01*
X88441085Y-72665220D01*
X88441500Y-72675435D01*
X88441500Y-72683495D01*
X88441925Y-72687137D01*
X88441925Y-72687139D01*
X88444789Y-72711709D01*
X88445222Y-72716084D01*
X88450197Y-72777240D01*
X88451140Y-72788839D01*
X88453396Y-72795803D01*
X88454587Y-72801762D01*
X88455971Y-72807617D01*
X88456818Y-72814883D01*
X88481735Y-72883529D01*
X88483152Y-72887657D01*
X88501390Y-72943953D01*
X88505649Y-72957101D01*
X88509445Y-72963356D01*
X88511951Y-72968830D01*
X88514670Y-72974260D01*
X88517167Y-72981139D01*
X88521180Y-72987259D01*
X88521180Y-72987260D01*
X88557186Y-73042178D01*
X88559523Y-73045882D01*
X88597405Y-73108309D01*
X88601121Y-73112517D01*
X88601122Y-73112518D01*
X88604803Y-73116686D01*
X88604776Y-73116710D01*
X88607429Y-73119702D01*
X88610132Y-73122935D01*
X88614144Y-73129054D01*
X88619456Y-73134086D01*
X88670383Y-73182330D01*
X88672825Y-73184708D01*
X89114522Y-73626405D01*
X89148548Y-73688717D01*
X89143483Y-73759532D01*
X89100936Y-73816368D01*
X89034416Y-73841179D01*
X89025427Y-73841500D01*
X83484500Y-73841500D01*
X83416379Y-73821498D01*
X83369886Y-73767842D01*
X83358500Y-73715500D01*
X83358500Y-72767063D01*
X83359933Y-72748114D01*
X83361429Y-72738277D01*
X83363198Y-72726651D01*
X83362161Y-72713894D01*
X83358915Y-72673991D01*
X83358500Y-72663777D01*
X83358500Y-72655707D01*
X83358078Y-72652087D01*
X83358077Y-72652069D01*
X83355208Y-72627461D01*
X83354775Y-72623086D01*
X83354512Y-72619846D01*
X83350951Y-72576066D01*
X83349454Y-72557661D01*
X83349453Y-72557658D01*
X83348860Y-72550363D01*
X83346604Y-72543399D01*
X83345413Y-72537440D01*
X83344029Y-72531585D01*
X83343182Y-72524319D01*
X83318265Y-72455673D01*
X83316848Y-72451545D01*
X83296607Y-72389064D01*
X83296606Y-72389062D01*
X83294351Y-72382101D01*
X83290555Y-72375846D01*
X83288049Y-72370372D01*
X83285330Y-72364942D01*
X83282833Y-72358063D01*
X83242809Y-72297016D01*
X83240472Y-72293312D01*
X83205509Y-72235693D01*
X83205505Y-72235688D01*
X83202595Y-72230892D01*
X83195197Y-72222516D01*
X83195223Y-72222493D01*
X83192574Y-72219503D01*
X83189866Y-72216264D01*
X83185856Y-72210148D01*
X83180549Y-72205121D01*
X83180546Y-72205117D01*
X83129617Y-72156872D01*
X83127175Y-72154494D01*
X83083770Y-72111089D01*
X83071384Y-72096677D01*
X83062851Y-72085082D01*
X83062846Y-72085077D01*
X83058508Y-72079182D01*
X83052930Y-72074443D01*
X83052927Y-72074440D01*
X83018232Y-72044965D01*
X83010716Y-72038035D01*
X83005021Y-72032340D01*
X82990737Y-72021039D01*
X82982749Y-72014719D01*
X82979345Y-72011928D01*
X82929297Y-71969409D01*
X82929295Y-71969408D01*
X82923715Y-71964667D01*
X82917199Y-71961339D01*
X82912150Y-71957972D01*
X82907021Y-71954805D01*
X82901284Y-71950266D01*
X82835125Y-71919345D01*
X82831225Y-71917439D01*
X82766192Y-71884231D01*
X82759084Y-71882492D01*
X82753441Y-71880393D01*
X82747678Y-71878476D01*
X82741050Y-71875378D01*
X82716493Y-71870270D01*
X82669588Y-71860514D01*
X82665299Y-71859543D01*
X82650697Y-71855970D01*
X82594390Y-71842192D01*
X82588788Y-71841844D01*
X82588785Y-71841844D01*
X82583236Y-71841500D01*
X82583238Y-71841464D01*
X82579245Y-71841225D01*
X82575053Y-71840851D01*
X82567885Y-71839360D01*
X82501675Y-71841151D01*
X82490479Y-71841454D01*
X82487072Y-71841500D01*
X79427835Y-71841500D01*
X79420033Y-71841258D01*
X79419501Y-71841225D01*
X79358702Y-71837453D01*
X79351486Y-71838693D01*
X79351485Y-71838693D01*
X79346451Y-71839558D01*
X79295111Y-71848380D01*
X79288390Y-71849348D01*
X79267465Y-71851788D01*
X79231589Y-71855970D01*
X79231586Y-71855971D01*
X79224319Y-71856818D01*
X79215393Y-71860058D01*
X79193742Y-71865799D01*
X79184386Y-71867406D01*
X79125004Y-71892673D01*
X79118711Y-71895152D01*
X79058063Y-71917167D01*
X79051941Y-71921181D01*
X79050122Y-71922373D01*
X79030385Y-71932933D01*
X79028377Y-71933787D01*
X79028365Y-71933794D01*
X79021636Y-71936657D01*
X79015744Y-71940993D01*
X79015739Y-71940996D01*
X78969668Y-71974900D01*
X78964072Y-71978790D01*
X78910148Y-72014144D01*
X78905111Y-72019461D01*
X78903616Y-72021039D01*
X78886834Y-72035861D01*
X78879182Y-72041492D01*
X78874447Y-72047065D01*
X78874440Y-72047072D01*
X78837419Y-72090649D01*
X78832867Y-72095723D01*
X78818311Y-72111089D01*
X78788510Y-72142547D01*
X78784835Y-72148874D01*
X78784828Y-72148883D01*
X78783733Y-72150768D01*
X78770815Y-72169047D01*
X78769406Y-72170706D01*
X78764667Y-72176285D01*
X78761341Y-72182799D01*
X78761338Y-72182803D01*
X78735330Y-72233736D01*
X78732068Y-72239719D01*
X78713435Y-72271799D01*
X78699674Y-72295490D01*
X78697553Y-72302494D01*
X78697551Y-72302498D01*
X78696922Y-72304575D01*
X78688549Y-72325351D01*
X78684231Y-72333808D01*
X78668892Y-72396495D01*
X78667109Y-72403012D01*
X78648405Y-72464767D01*
X78647952Y-72472078D01*
X78647817Y-72474246D01*
X78644449Y-72496383D01*
X78643526Y-72500154D01*
X78643524Y-72500166D01*
X78642192Y-72505610D01*
X78641500Y-72516764D01*
X78641500Y-72572165D01*
X78641258Y-72579966D01*
X78637453Y-72641298D01*
X78638693Y-72648514D01*
X78639680Y-72654257D01*
X78641500Y-72675596D01*
X78641500Y-74232930D01*
X78640067Y-74251880D01*
X78636801Y-74273349D01*
X78637394Y-74280641D01*
X78637394Y-74280644D01*
X78641085Y-74326018D01*
X78641500Y-74336233D01*
X78641500Y-74344293D01*
X78641925Y-74347937D01*
X78644789Y-74372507D01*
X78645222Y-74376882D01*
X78645394Y-74378990D01*
X78651140Y-74449637D01*
X78653396Y-74456601D01*
X78654587Y-74462560D01*
X78655971Y-74468415D01*
X78656818Y-74475681D01*
X78681735Y-74544327D01*
X78683152Y-74548455D01*
X78702290Y-74607529D01*
X78705649Y-74617899D01*
X78709445Y-74624154D01*
X78711951Y-74629628D01*
X78714670Y-74635058D01*
X78717167Y-74641937D01*
X78721180Y-74648057D01*
X78721180Y-74648058D01*
X78757186Y-74702976D01*
X78759523Y-74706680D01*
X78797405Y-74769107D01*
X78801121Y-74773315D01*
X78801122Y-74773316D01*
X78804803Y-74777484D01*
X78804776Y-74777508D01*
X78807429Y-74780500D01*
X78810132Y-74783733D01*
X78814144Y-74789852D01*
X78819456Y-74794884D01*
X78870383Y-74843128D01*
X78872825Y-74845506D01*
X79079875Y-75052556D01*
X79110613Y-75102714D01*
X79165473Y-75271556D01*
X79168776Y-75277278D01*
X79168777Y-75277279D01*
X79171827Y-75282561D01*
X79260960Y-75436944D01*
X79265378Y-75441851D01*
X79265379Y-75441852D01*
X79384325Y-75573955D01*
X79388747Y-75578866D01*
X79543248Y-75691118D01*
X79549276Y-75693802D01*
X79549278Y-75693803D01*
X79711681Y-75766109D01*
X79717712Y-75768794D01*
X79811113Y-75788647D01*
X79898056Y-75807128D01*
X79898061Y-75807128D01*
X79904513Y-75808500D01*
X80095487Y-75808500D01*
X80101942Y-75807128D01*
X80101951Y-75807127D01*
X80200721Y-75786132D01*
X80271512Y-75791533D01*
X80328145Y-75834349D01*
X80352504Y-75899163D01*
X80357094Y-75955591D01*
X80359350Y-75962555D01*
X80360541Y-75968514D01*
X80361925Y-75974369D01*
X80362772Y-75981635D01*
X80387689Y-76050281D01*
X80389106Y-76054409D01*
X80411603Y-76123853D01*
X80415399Y-76130108D01*
X80417905Y-76135582D01*
X80420624Y-76141012D01*
X80423121Y-76147891D01*
X80427134Y-76154011D01*
X80427134Y-76154012D01*
X80463140Y-76208930D01*
X80465477Y-76212634D01*
X80503359Y-76275061D01*
X80507075Y-76279269D01*
X80507076Y-76279270D01*
X80510757Y-76283438D01*
X80510730Y-76283462D01*
X80513383Y-76286454D01*
X80516086Y-76289687D01*
X80520098Y-76295806D01*
X80525410Y-76300838D01*
X80576337Y-76349082D01*
X80578779Y-76351460D01*
X82566230Y-78338911D01*
X82578616Y-78353323D01*
X82587149Y-78364918D01*
X82587154Y-78364923D01*
X82591492Y-78370818D01*
X82597070Y-78375557D01*
X82597073Y-78375560D01*
X82631768Y-78405035D01*
X82639284Y-78411965D01*
X82644980Y-78417661D01*
X82647841Y-78419924D01*
X82647846Y-78419929D01*
X82667256Y-78435285D01*
X82670658Y-78438074D01*
X82699280Y-78462390D01*
X82726285Y-78485333D01*
X82732802Y-78488661D01*
X82737850Y-78492027D01*
X82742972Y-78495190D01*
X82748716Y-78499735D01*
X82814895Y-78530664D01*
X82818779Y-78532563D01*
X82883808Y-78565769D01*
X82890923Y-78567510D01*
X82896578Y-78569613D01*
X82902317Y-78571522D01*
X82908950Y-78574622D01*
X82980435Y-78589491D01*
X82984701Y-78590457D01*
X83055610Y-78607808D01*
X83061212Y-78608156D01*
X83061215Y-78608156D01*
X83066764Y-78608500D01*
X83066762Y-78608535D01*
X83070734Y-78608775D01*
X83074955Y-78609152D01*
X83082115Y-78610641D01*
X83159542Y-78608546D01*
X83162950Y-78608500D01*
X84107413Y-78608500D01*
X84181472Y-78632563D01*
X84187902Y-78637235D01*
X84187909Y-78637239D01*
X84193248Y-78641118D01*
X84199276Y-78643802D01*
X84199278Y-78643803D01*
X84349173Y-78710540D01*
X84367712Y-78718794D01*
X84461113Y-78738647D01*
X84548056Y-78757128D01*
X84548061Y-78757128D01*
X84554513Y-78758500D01*
X84745487Y-78758500D01*
X84751939Y-78757128D01*
X84751944Y-78757128D01*
X84838887Y-78738647D01*
X84932288Y-78718794D01*
X84950827Y-78710540D01*
X85100722Y-78643803D01*
X85100724Y-78643802D01*
X85106752Y-78641118D01*
X85112097Y-78637235D01*
X85177200Y-78589934D01*
X85261253Y-78528866D01*
X85284597Y-78502940D01*
X85384621Y-78391852D01*
X85384622Y-78391851D01*
X85389040Y-78386944D01*
X85395613Y-78375560D01*
X85481223Y-78227279D01*
X85481224Y-78227278D01*
X85484527Y-78221556D01*
X85543542Y-78039928D01*
X85545968Y-78016852D01*
X85562814Y-77856565D01*
X85563504Y-77850000D01*
X85543542Y-77660072D01*
X85484527Y-77478444D01*
X85389040Y-77313056D01*
X85369753Y-77291635D01*
X85265675Y-77176045D01*
X85265674Y-77176044D01*
X85261253Y-77171134D01*
X85146829Y-77088000D01*
X85112094Y-77062763D01*
X85112093Y-77062762D01*
X85106752Y-77058882D01*
X85100724Y-77056198D01*
X85100722Y-77056197D01*
X84938319Y-76983891D01*
X84938318Y-76983891D01*
X84932288Y-76981206D01*
X84838887Y-76961353D01*
X84751944Y-76942872D01*
X84751939Y-76942872D01*
X84745487Y-76941500D01*
X84554513Y-76941500D01*
X84548061Y-76942872D01*
X84548056Y-76942872D01*
X84461113Y-76961353D01*
X84367712Y-76981206D01*
X84361682Y-76983891D01*
X84361681Y-76983891D01*
X84199278Y-77056197D01*
X84199276Y-77056198D01*
X84193248Y-77058882D01*
X84187909Y-77062761D01*
X84187902Y-77062765D01*
X84181472Y-77067437D01*
X84107413Y-77091500D01*
X83516371Y-77091500D01*
X83448250Y-77071498D01*
X83427276Y-77054595D01*
X81901359Y-75528678D01*
X81867333Y-75466366D01*
X81864454Y-75439583D01*
X81864454Y-75141325D01*
X81884456Y-75073204D01*
X81938112Y-75026711D01*
X82008386Y-75016607D01*
X82072966Y-75046101D01*
X82079549Y-75052230D01*
X82116230Y-75088911D01*
X82128616Y-75103323D01*
X82137149Y-75114918D01*
X82137154Y-75114923D01*
X82141492Y-75120818D01*
X82147070Y-75125557D01*
X82147073Y-75125560D01*
X82181768Y-75155035D01*
X82189284Y-75161965D01*
X82194979Y-75167660D01*
X82197861Y-75169940D01*
X82217251Y-75185281D01*
X82220655Y-75188072D01*
X82270703Y-75230591D01*
X82276285Y-75235333D01*
X82282801Y-75238661D01*
X82287850Y-75242028D01*
X82292979Y-75245195D01*
X82298716Y-75249734D01*
X82364875Y-75280655D01*
X82368769Y-75282558D01*
X82433808Y-75315769D01*
X82440916Y-75317508D01*
X82446559Y-75319607D01*
X82452322Y-75321524D01*
X82458950Y-75324622D01*
X82466112Y-75326112D01*
X82466113Y-75326112D01*
X82530412Y-75339486D01*
X82534696Y-75340456D01*
X82605610Y-75357808D01*
X82611212Y-75358156D01*
X82611215Y-75358156D01*
X82616764Y-75358500D01*
X82616762Y-75358536D01*
X82620755Y-75358775D01*
X82624947Y-75359149D01*
X82632115Y-75360640D01*
X82709520Y-75358546D01*
X82712928Y-75358500D01*
X88815500Y-75358500D01*
X88883621Y-75378502D01*
X88930114Y-75432158D01*
X88941500Y-75484500D01*
X88941500Y-77263001D01*
X88924619Y-77326000D01*
X88865473Y-77428444D01*
X88806458Y-77610072D01*
X88805768Y-77616633D01*
X88805768Y-77616635D01*
X88787186Y-77793435D01*
X88786496Y-77800000D01*
X88787186Y-77806565D01*
X88803724Y-77963911D01*
X88806458Y-77989928D01*
X88865473Y-78171556D01*
X88868776Y-78177278D01*
X88868777Y-78177279D01*
X88897645Y-78227279D01*
X88960960Y-78336944D01*
X88965378Y-78341851D01*
X88965379Y-78341852D01*
X89084325Y-78473955D01*
X89088747Y-78478866D01*
X89161297Y-78531577D01*
X89212741Y-78568953D01*
X89243248Y-78591118D01*
X89249276Y-78593802D01*
X89249278Y-78593803D01*
X89336335Y-78632563D01*
X89417712Y-78668794D01*
X89511112Y-78688647D01*
X89598056Y-78707128D01*
X89598061Y-78707128D01*
X89604513Y-78708500D01*
X89795487Y-78708500D01*
X89801939Y-78707128D01*
X89801944Y-78707128D01*
X89888888Y-78688647D01*
X89982288Y-78668794D01*
X90063665Y-78632563D01*
X90150722Y-78593803D01*
X90150724Y-78593802D01*
X90156752Y-78591118D01*
X90187260Y-78568953D01*
X90238703Y-78531577D01*
X90311253Y-78478866D01*
X90315675Y-78473955D01*
X90434621Y-78341852D01*
X90434622Y-78341851D01*
X90439040Y-78336944D01*
X90502355Y-78227279D01*
X90531223Y-78177279D01*
X90531224Y-78177278D01*
X90534527Y-78171556D01*
X90593542Y-77989928D01*
X90596277Y-77963911D01*
X90612814Y-77806565D01*
X90613504Y-77800000D01*
X90612814Y-77793435D01*
X90594232Y-77616635D01*
X90594232Y-77616633D01*
X90593542Y-77610072D01*
X90534527Y-77428444D01*
X90475381Y-77326000D01*
X90458500Y-77263001D01*
X90458500Y-75274573D01*
X90478502Y-75206452D01*
X90532158Y-75159959D01*
X90602432Y-75149855D01*
X90667012Y-75179349D01*
X90673595Y-75185478D01*
X93527028Y-78038911D01*
X93539414Y-78053323D01*
X93547947Y-78064918D01*
X93547952Y-78064923D01*
X93552290Y-78070818D01*
X93587478Y-78100712D01*
X93592564Y-78105033D01*
X93600080Y-78111963D01*
X93605777Y-78117660D01*
X93608659Y-78119940D01*
X93628049Y-78135281D01*
X93631453Y-78138072D01*
X93677446Y-78177146D01*
X93687083Y-78185333D01*
X93693599Y-78188661D01*
X93698648Y-78192028D01*
X93703777Y-78195195D01*
X93709514Y-78199734D01*
X93775673Y-78230655D01*
X93779567Y-78232558D01*
X93844606Y-78265769D01*
X93851714Y-78267508D01*
X93857357Y-78269607D01*
X93863120Y-78271524D01*
X93869748Y-78274622D01*
X93876910Y-78276112D01*
X93876911Y-78276112D01*
X93898950Y-78280696D01*
X93936941Y-78288598D01*
X93941210Y-78289486D01*
X93945494Y-78290456D01*
X94016408Y-78307808D01*
X94022010Y-78308156D01*
X94022013Y-78308156D01*
X94027562Y-78308500D01*
X94027560Y-78308536D01*
X94031553Y-78308775D01*
X94035745Y-78309149D01*
X94042913Y-78310640D01*
X94120318Y-78308546D01*
X94123726Y-78308500D01*
X95535860Y-78308500D01*
X95603981Y-78328502D01*
X95650474Y-78382158D01*
X95660578Y-78452432D01*
X95639948Y-78505505D01*
X95592095Y-78575655D01*
X95587000Y-78584623D01*
X95497338Y-78777783D01*
X95493775Y-78787470D01*
X95438389Y-78987183D01*
X95439912Y-78995607D01*
X95452292Y-78999000D01*
X98092344Y-78999000D01*
X98105875Y-78995027D01*
X98107180Y-78985947D01*
X98065214Y-78818875D01*
X98061894Y-78809124D01*
X97976972Y-78613814D01*
X97972105Y-78604739D01*
X97906249Y-78502940D01*
X97886042Y-78434880D01*
X97905838Y-78366699D01*
X97959354Y-78320045D01*
X98012041Y-78308500D01*
X98507930Y-78308500D01*
X98526880Y-78309933D01*
X98541115Y-78312099D01*
X98541119Y-78312099D01*
X98548349Y-78313199D01*
X98555640Y-78312606D01*
X98555641Y-78312606D01*
X98559145Y-78312321D01*
X98575490Y-78310991D01*
X98645007Y-78325404D01*
X98674800Y-78347481D01*
X99865270Y-79537951D01*
X99877656Y-79552363D01*
X99886189Y-79563958D01*
X99886194Y-79563963D01*
X99890532Y-79569858D01*
X99896110Y-79574597D01*
X99896113Y-79574600D01*
X99930808Y-79604075D01*
X99938324Y-79611005D01*
X99944019Y-79616700D01*
X99946901Y-79618980D01*
X99966291Y-79634321D01*
X99969695Y-79637112D01*
X100014943Y-79675553D01*
X100025325Y-79684373D01*
X100031841Y-79687701D01*
X100036890Y-79691068D01*
X100042019Y-79694235D01*
X100047756Y-79698774D01*
X100113915Y-79729695D01*
X100117809Y-79731598D01*
X100182848Y-79764809D01*
X100189956Y-79766548D01*
X100195599Y-79768647D01*
X100201362Y-79770564D01*
X100207990Y-79773662D01*
X100215152Y-79775152D01*
X100215153Y-79775152D01*
X100279452Y-79788526D01*
X100283736Y-79789496D01*
X100354650Y-79806848D01*
X100360252Y-79807196D01*
X100360255Y-79807196D01*
X100365804Y-79807540D01*
X100365802Y-79807576D01*
X100369795Y-79807815D01*
X100373987Y-79808189D01*
X100381155Y-79809680D01*
X100458560Y-79807586D01*
X100461968Y-79807540D01*
X105432669Y-79807540D01*
X105500790Y-79827542D01*
X105521764Y-79844445D01*
X107229875Y-81552556D01*
X107260613Y-81602714D01*
X107315473Y-81771556D01*
X107410960Y-81936944D01*
X107415378Y-81941851D01*
X107415379Y-81941852D01*
X107495819Y-82031190D01*
X107526537Y-82095197D01*
X107517772Y-82165651D01*
X107472309Y-82220182D01*
X107402183Y-82241500D01*
X98709873Y-82241500D01*
X98696703Y-82240810D01*
X98663204Y-82237289D01*
X98663202Y-82237289D01*
X98657075Y-82236645D01*
X98606827Y-82241218D01*
X98602793Y-82241500D01*
X98600231Y-82241500D01*
X98597173Y-82241800D01*
X98597169Y-82241800D01*
X98555404Y-82245895D01*
X98554529Y-82245977D01*
X98532830Y-82247952D01*
X98460112Y-82254570D01*
X98456703Y-82255573D01*
X98453167Y-82255920D01*
X98362279Y-82283361D01*
X98361610Y-82283561D01*
X98294074Y-82303437D01*
X98223077Y-82303481D01*
X98163327Y-82265135D01*
X98133794Y-82200572D01*
X98132500Y-82182563D01*
X98132500Y-80894866D01*
X98125745Y-80832684D01*
X98074615Y-80696295D01*
X97987261Y-80579739D01*
X97870705Y-80492385D01*
X97751687Y-80447767D01*
X97694923Y-80405125D01*
X97670223Y-80338564D01*
X97685430Y-80269215D01*
X97706977Y-80240535D01*
X97808052Y-80139812D01*
X97814730Y-80131965D01*
X97939003Y-79959020D01*
X97944313Y-79950183D01*
X98038670Y-79759267D01*
X98042469Y-79749672D01*
X98104377Y-79545910D01*
X98106555Y-79535837D01*
X98107986Y-79524962D01*
X98105775Y-79510778D01*
X98092617Y-79507000D01*
X95457225Y-79507000D01*
X95443694Y-79510973D01*
X95442257Y-79520966D01*
X95472565Y-79655446D01*
X95475645Y-79665275D01*
X95555770Y-79862603D01*
X95560413Y-79871794D01*
X95671694Y-80053388D01*
X95677777Y-80061699D01*
X95817213Y-80222667D01*
X95824577Y-80229879D01*
X95829522Y-80233985D01*
X95869156Y-80292889D01*
X95870653Y-80363870D01*
X95833537Y-80424392D01*
X95793264Y-80448910D01*
X95685705Y-80489232D01*
X95685704Y-80489233D01*
X95677295Y-80492385D01*
X95560739Y-80579739D01*
X95473385Y-80696295D01*
X95422255Y-80832684D01*
X95415500Y-80894866D01*
X95415500Y-82691134D01*
X95422255Y-82753316D01*
X95473385Y-82889705D01*
X95560739Y-83006261D01*
X95677295Y-83093615D01*
X95813684Y-83144745D01*
X95875866Y-83151500D01*
X97513271Y-83151500D01*
X97581392Y-83171502D01*
X97627885Y-83225158D01*
X97638752Y-83266079D01*
X97645254Y-83337518D01*
X97645310Y-83338159D01*
X97653268Y-83432934D01*
X97654248Y-83436353D01*
X97654570Y-83439888D01*
X97656310Y-83445799D01*
X97681364Y-83530928D01*
X97681609Y-83531771D01*
X97704371Y-83611150D01*
X97707783Y-83623050D01*
X97709406Y-83626208D01*
X97710410Y-83629619D01*
X97743864Y-83693610D01*
X97754410Y-83713783D01*
X97754814Y-83714563D01*
X97795369Y-83793473D01*
X97798187Y-83798956D01*
X97800393Y-83801739D01*
X97802040Y-83804890D01*
X97809029Y-83813582D01*
X97861466Y-83878800D01*
X97862015Y-83879488D01*
X97871260Y-83891152D01*
X97921035Y-83953953D01*
X97923743Y-83956258D01*
X97925968Y-83959025D01*
X97998781Y-84020123D01*
X97999247Y-84020516D01*
X98071650Y-84082136D01*
X98074751Y-84083869D01*
X98077474Y-84086154D01*
X98082869Y-84089120D01*
X98082872Y-84089122D01*
X98160718Y-84131919D01*
X98161485Y-84132344D01*
X98179938Y-84142657D01*
X98244294Y-84178624D01*
X98247677Y-84179723D01*
X98250787Y-84181433D01*
X98256668Y-84183298D01*
X98256669Y-84183299D01*
X98341233Y-84210124D01*
X98342071Y-84210393D01*
X98362513Y-84217035D01*
X98432392Y-84239740D01*
X98435919Y-84240161D01*
X98439306Y-84241235D01*
X98445428Y-84241922D01*
X98446991Y-84242254D01*
X98509464Y-84275984D01*
X98543783Y-84338134D01*
X98539054Y-84408973D01*
X98496777Y-84466010D01*
X98430375Y-84491135D01*
X98420791Y-84491500D01*
X77049367Y-84491500D01*
X77029982Y-84490000D01*
X77015149Y-84487690D01*
X77015145Y-84487690D01*
X77006276Y-84486309D01*
X76991019Y-84488304D01*
X76965698Y-84489047D01*
X76796715Y-84476961D01*
X76778936Y-84474404D01*
X76588607Y-84433001D01*
X76571359Y-84427937D01*
X76388850Y-84359864D01*
X76372498Y-84352396D01*
X76201542Y-84259048D01*
X76186418Y-84249328D01*
X76030486Y-84132598D01*
X76016900Y-84120825D01*
X75879175Y-83983100D01*
X75867402Y-83969514D01*
X75750672Y-83813582D01*
X75740952Y-83798458D01*
X75647604Y-83627502D01*
X75640136Y-83611150D01*
X75572063Y-83428641D01*
X75566999Y-83411392D01*
X75551088Y-83338250D01*
X75525596Y-83221064D01*
X75523038Y-83203278D01*
X75520766Y-83171502D01*
X75511719Y-83045011D01*
X75512805Y-83022245D01*
X75512334Y-83022203D01*
X75512770Y-83017345D01*
X75513576Y-83012552D01*
X75513729Y-83000000D01*
X75509773Y-82972376D01*
X75508500Y-82954514D01*
X75508500Y-77088000D01*
X75528502Y-77019879D01*
X75582158Y-76973386D01*
X75634500Y-76962000D01*
X78232000Y-76962000D01*
X78232236Y-76949036D01*
X78485671Y-63010115D01*
X78485671Y-63010114D01*
X78486000Y-62992000D01*
X75634500Y-62992000D01*
X75566379Y-62971998D01*
X75519886Y-62918342D01*
X75508500Y-62866000D01*
X75508500Y-62053250D01*
X75510246Y-62032345D01*
X75512770Y-62017344D01*
X75512770Y-62017341D01*
X75513576Y-62012552D01*
X75513729Y-62000000D01*
X75513040Y-61995186D01*
X75513039Y-61995176D01*
X75512157Y-61989017D01*
X75511206Y-61962172D01*
X75520551Y-61831500D01*
X75523039Y-61796718D01*
X75525596Y-61778934D01*
X75566999Y-61588607D01*
X75572063Y-61571359D01*
X75640136Y-61388850D01*
X75647604Y-61372498D01*
X75740952Y-61201542D01*
X75750672Y-61186418D01*
X75867402Y-61030486D01*
X75879175Y-61016900D01*
X76016900Y-60879175D01*
X76030486Y-60867402D01*
X76186418Y-60750672D01*
X76201542Y-60740952D01*
X76372498Y-60647604D01*
X76388850Y-60640136D01*
X76571359Y-60572063D01*
X76588608Y-60566999D01*
X76778936Y-60525596D01*
X76796715Y-60523039D01*
X76958605Y-60511460D01*
X76976565Y-60512207D01*
X76984845Y-60512308D01*
X76993724Y-60513691D01*
X77025286Y-60509564D01*
X77041621Y-60508500D01*
X87635340Y-60508500D01*
X87703461Y-60528502D01*
G37*
G04 #@! TD.AperFunction*
G04 #@! TA.AperFunction,Conductor*
G36*
X99647175Y-63268502D02*
G01*
X99693668Y-63322158D01*
X99704269Y-63388545D01*
X99696719Y-63455851D01*
X99696868Y-63457623D01*
X99696676Y-63459388D01*
X99705134Y-63556071D01*
X99713268Y-63652934D01*
X99713758Y-63654644D01*
X99713913Y-63656413D01*
X99740996Y-63749634D01*
X99767783Y-63843050D01*
X99768596Y-63844632D01*
X99769091Y-63846336D01*
X99813788Y-63932565D01*
X99858187Y-64018956D01*
X99859290Y-64020347D01*
X99860108Y-64021926D01*
X99920726Y-64097861D01*
X99981035Y-64173953D01*
X99985728Y-64177947D01*
X99985729Y-64177948D01*
X100022060Y-64208868D01*
X100029492Y-64215727D01*
X106342374Y-70528609D01*
X106376400Y-70590921D01*
X106371335Y-70661736D01*
X106328788Y-70718572D01*
X106262268Y-70743383D01*
X106192894Y-70728292D01*
X106175187Y-70716586D01*
X106113414Y-70667800D01*
X106113410Y-70667798D01*
X106109359Y-70664598D01*
X106104175Y-70661736D01*
X106000210Y-70604345D01*
X105913789Y-70556638D01*
X105908920Y-70554914D01*
X105908916Y-70554912D01*
X105708087Y-70483795D01*
X105708083Y-70483794D01*
X105703212Y-70482069D01*
X105698119Y-70481162D01*
X105698116Y-70481161D01*
X105488373Y-70443800D01*
X105488367Y-70443799D01*
X105483284Y-70442894D01*
X105409452Y-70441992D01*
X105265081Y-70440228D01*
X105265079Y-70440228D01*
X105259911Y-70440165D01*
X105095059Y-70465391D01*
X105024698Y-70455923D01*
X104986906Y-70429936D01*
X104626939Y-70069969D01*
X104621085Y-70063704D01*
X104591550Y-70029848D01*
X104583050Y-70020104D01*
X104530769Y-69983360D01*
X104525475Y-69979428D01*
X104481182Y-69944698D01*
X104475207Y-69940013D01*
X104468291Y-69936890D01*
X104466005Y-69935506D01*
X104451324Y-69927132D01*
X104448964Y-69925867D01*
X104442750Y-69921499D01*
X104435671Y-69918739D01*
X104435669Y-69918738D01*
X104383214Y-69898287D01*
X104377145Y-69895736D01*
X104318916Y-69869444D01*
X104311449Y-69868060D01*
X104308894Y-69867259D01*
X104292641Y-69862630D01*
X104290061Y-69861967D01*
X104282980Y-69859207D01*
X104275449Y-69858216D01*
X104275447Y-69858215D01*
X104245828Y-69854316D01*
X104219628Y-69850867D01*
X104213130Y-69849837D01*
X104150303Y-69838193D01*
X104142723Y-69838630D01*
X104142722Y-69838630D01*
X104088097Y-69841780D01*
X104080843Y-69841989D01*
X99966149Y-69841989D01*
X99898028Y-69821987D01*
X99877054Y-69805084D01*
X96664665Y-66592695D01*
X96630639Y-66530383D01*
X96628450Y-66516770D01*
X96624232Y-66476637D01*
X96623542Y-66470072D01*
X96593392Y-66377279D01*
X96566569Y-66294729D01*
X96564527Y-66288444D01*
X96469040Y-66123056D01*
X96432748Y-66082749D01*
X96345675Y-65986045D01*
X96345674Y-65986044D01*
X96341253Y-65981134D01*
X96215719Y-65889928D01*
X96192094Y-65872763D01*
X96192093Y-65872762D01*
X96186752Y-65868882D01*
X96180724Y-65866198D01*
X96180722Y-65866197D01*
X96018319Y-65793891D01*
X96018318Y-65793891D01*
X96012288Y-65791206D01*
X95918888Y-65771353D01*
X95831944Y-65752872D01*
X95831939Y-65752872D01*
X95825487Y-65751500D01*
X95634513Y-65751500D01*
X95628061Y-65752872D01*
X95628056Y-65752872D01*
X95541112Y-65771353D01*
X95447712Y-65791206D01*
X95441682Y-65793891D01*
X95441681Y-65793891D01*
X95279278Y-65866197D01*
X95279276Y-65866198D01*
X95273248Y-65868882D01*
X95267907Y-65872762D01*
X95267906Y-65872763D01*
X95244281Y-65889928D01*
X95118747Y-65981134D01*
X95114326Y-65986044D01*
X95114325Y-65986045D01*
X95027253Y-66082749D01*
X94990960Y-66123056D01*
X94965939Y-66166394D01*
X94914556Y-66215387D01*
X94844842Y-66228822D01*
X94778931Y-66202435D01*
X94763189Y-66187709D01*
X94721253Y-66141134D01*
X94566752Y-66028882D01*
X94560724Y-66026198D01*
X94560722Y-66026197D01*
X94398319Y-65953891D01*
X94398318Y-65953891D01*
X94392288Y-65951206D01*
X94298290Y-65931226D01*
X94211944Y-65912872D01*
X94211939Y-65912872D01*
X94205487Y-65911500D01*
X94014513Y-65911500D01*
X94008061Y-65912872D01*
X94008056Y-65912872D01*
X93921710Y-65931226D01*
X93827712Y-65951206D01*
X93821682Y-65953891D01*
X93821681Y-65953891D01*
X93659278Y-66026197D01*
X93659276Y-66026198D01*
X93653248Y-66028882D01*
X93498747Y-66141134D01*
X93494329Y-66146041D01*
X93494325Y-66146045D01*
X93383802Y-66268794D01*
X93370960Y-66283056D01*
X93275473Y-66448444D01*
X93216458Y-66630072D01*
X93196496Y-66820000D01*
X93197186Y-66826565D01*
X93208552Y-66934703D01*
X93216458Y-67009928D01*
X93275473Y-67191556D01*
X93278776Y-67197278D01*
X93278777Y-67197279D01*
X93359161Y-67336507D01*
X93370960Y-67356944D01*
X93375379Y-67361852D01*
X93377436Y-67364683D01*
X93401295Y-67431551D01*
X93401500Y-67438744D01*
X93401500Y-68105110D01*
X93401208Y-68113680D01*
X93397275Y-68171374D01*
X93406956Y-68226841D01*
X93408261Y-68234321D01*
X93409223Y-68240843D01*
X93416898Y-68304264D01*
X93419581Y-68311365D01*
X93420222Y-68313974D01*
X93424685Y-68330284D01*
X93425450Y-68332820D01*
X93426757Y-68340306D01*
X93429811Y-68347263D01*
X93452442Y-68398817D01*
X93454933Y-68404921D01*
X93465386Y-68432585D01*
X93474497Y-68456695D01*
X93477513Y-68464678D01*
X93481817Y-68470941D01*
X93483054Y-68473307D01*
X93491299Y-68488119D01*
X93492632Y-68490373D01*
X93495685Y-68497327D01*
X93500307Y-68503350D01*
X93534579Y-68548013D01*
X93538459Y-68553354D01*
X93570339Y-68599742D01*
X93570344Y-68599747D01*
X93574643Y-68606003D01*
X93580313Y-68611054D01*
X93580314Y-68611056D01*
X93621170Y-68647457D01*
X93626446Y-68652438D01*
X97699443Y-72725436D01*
X97733469Y-72787748D01*
X97728404Y-72858564D01*
X97685857Y-72915399D01*
X97619337Y-72940210D01*
X97610348Y-72940531D01*
X96665402Y-72940531D01*
X96597281Y-72920529D01*
X96576307Y-72903626D01*
X94283770Y-70611089D01*
X94271384Y-70596677D01*
X94262851Y-70585082D01*
X94262846Y-70585077D01*
X94258508Y-70579182D01*
X94252930Y-70574443D01*
X94252927Y-70574440D01*
X94218232Y-70544965D01*
X94210716Y-70538035D01*
X94205021Y-70532340D01*
X94198880Y-70527482D01*
X94182749Y-70514719D01*
X94179345Y-70511928D01*
X94129297Y-70469409D01*
X94129295Y-70469408D01*
X94123715Y-70464667D01*
X94117199Y-70461339D01*
X94112150Y-70457972D01*
X94107021Y-70454805D01*
X94101284Y-70450266D01*
X94035125Y-70419345D01*
X94031225Y-70417439D01*
X93966192Y-70384231D01*
X93959084Y-70382492D01*
X93953441Y-70380393D01*
X93947678Y-70378476D01*
X93941050Y-70375378D01*
X93869583Y-70360513D01*
X93865299Y-70359543D01*
X93853599Y-70356680D01*
X93794390Y-70342192D01*
X93788788Y-70341844D01*
X93788785Y-70341844D01*
X93786051Y-70341675D01*
X93785298Y-70341628D01*
X93783783Y-70341083D01*
X93783242Y-70341001D01*
X93783258Y-70340895D01*
X93719036Y-70317807D01*
X93706752Y-70308882D01*
X93567819Y-70247025D01*
X93538319Y-70233891D01*
X93538318Y-70233891D01*
X93532288Y-70231206D01*
X93438887Y-70211353D01*
X93351944Y-70192872D01*
X93351939Y-70192872D01*
X93345487Y-70191500D01*
X93154513Y-70191500D01*
X93148061Y-70192872D01*
X93148056Y-70192872D01*
X93061113Y-70211353D01*
X92967712Y-70231206D01*
X92961685Y-70233889D01*
X92961677Y-70233892D01*
X92885748Y-70267698D01*
X92815381Y-70277132D01*
X92751084Y-70247025D01*
X92713271Y-70186936D01*
X92708500Y-70152591D01*
X92708500Y-65371722D01*
X92709492Y-65355944D01*
X92712985Y-65328295D01*
X92713380Y-65300000D01*
X92694080Y-65103167D01*
X92636916Y-64913831D01*
X92544066Y-64739204D01*
X92474686Y-64654136D01*
X92447132Y-64588704D01*
X92459327Y-64518763D01*
X92507400Y-64466518D01*
X92572329Y-64448500D01*
X97194271Y-64448500D01*
X97262392Y-64468502D01*
X97287906Y-64490189D01*
X97358747Y-64568866D01*
X97513248Y-64681118D01*
X97519276Y-64683802D01*
X97519278Y-64683803D01*
X97657242Y-64745228D01*
X97687712Y-64758794D01*
X97781113Y-64778647D01*
X97868056Y-64797128D01*
X97868061Y-64797128D01*
X97874513Y-64798500D01*
X98065487Y-64798500D01*
X98071939Y-64797128D01*
X98071944Y-64797128D01*
X98158887Y-64778647D01*
X98252288Y-64758794D01*
X98282758Y-64745228D01*
X98420722Y-64683803D01*
X98420724Y-64683802D01*
X98426752Y-64681118D01*
X98581253Y-64568866D01*
X98585675Y-64563955D01*
X98704621Y-64431852D01*
X98704622Y-64431851D01*
X98709040Y-64426944D01*
X98804527Y-64261556D01*
X98863542Y-64079928D01*
X98883504Y-63890000D01*
X98868751Y-63749634D01*
X98864232Y-63706635D01*
X98864232Y-63706633D01*
X98863542Y-63700072D01*
X98804527Y-63518444D01*
X98765001Y-63449982D01*
X98757794Y-63437500D01*
X98741056Y-63368505D01*
X98764276Y-63301413D01*
X98820084Y-63257526D01*
X98866913Y-63248500D01*
X99579054Y-63248500D01*
X99647175Y-63268502D01*
G37*
G04 #@! TD.AperFunction*
M02*
